LibertinusSerif-BoldItalic.ufo
<glyph name="ampersand" format="2">
	<unicode hex="0026"/>
	<advance width="729"/>
	<outline>
		<contour>
			<point x="603" y="355" type="curve" smooth="yes"/>
			<point x="586" y="326"/>
			<point x="535" y="263"/>
			<point x="487" y="210" type="curve"/>
			<point x="482" y="205"/>
			<point x="475" y="207"/>
			<point x="472" y="214" type="curve" smooth="yes"/>
			<point x="433" y="299"/>
			<point x="416" y="344"/>
			<point x="407" y="372" type="curve"/>
			<point x="406" y="374"/>
			<point x="406" y="375"/>
			<point x="405" y="377" type="curve"/>
			<point x="492" y="418"/>
			<point x="566" y="464"/>
			<point x="581" y="537" type="curve"/>
			<point x="583" y="544"/>
			<point x="583" y="552"/>
			<point x="583" y="559" type="curve"/>
			<point x="581" y="605"/>
			<point x="546" y="654"/>
			<point x="472" y="654" type="curve" smooth="yes"/>
			<point x="467" y="654"/>
			<point x="463" y="654"/>
			<point x="458" y="654" type="curve"/>
			<point x="407" y="651"/>
			<point x="353" y="631"/>
			<point x="320" y="600" type="curve" smooth="yes"/>
			<point x="287" y="569"/>
			<point x="263" y="530"/>
			<point x="254" y="500" type="curve"/>
			<point x="253" y="497"/>
			<point x="253" y="494"/>
			<point x="252" y="491" type="curve"/>
			<point x="242" y="445"/>
			<point x="251" y="409"/>
			<point x="282" y="349" type="curve"/>
			<point x="143" y="284"/>
			<point x="90" y="222"/>
			<point x="75" y="150" type="curve" smooth="yes"/>
			<point x="73" y="139"/>
			<point x="71" y="129"/>
			<point x="71" y="119" type="curve"/>
			<point x="68" y="79"/>
			<point x="78" y="47"/>
			<point x="100" y="26" type="curve" smooth="yes"/>
			<point x="129" y="-1"/>
			<point x="177" y="-10"/>
			<point x="227" y="-10" type="curve" smooth="yes"/>
			<point x="232" y="-10"/>
			<point x="237" y="-10"/>
			<point x="242" y="-10" type="curve"/>
			<point x="311" y="-6"/>
			<point x="367" y="24"/>
			<point x="413" y="64" type="curve"/>
			<point x="423" y="40"/>
			<point x="436" y="24"/>
			<point x="449" y="13" type="curve" smooth="yes"/>
			<point x="473" y="-7"/>
			<point x="501" y="-10"/>
			<point x="527" y="-10" type="curve" smooth="yes"/>
			<point x="543" y="-10"/>
			<point x="558" y="-7"/>
			<point x="574" y="-2" type="curve"/>
			<point x="601" y="9"/>
			<point x="628" y="29"/>
			<point x="658" y="61" type="curve"/>
			<point x="654" y="75"/>
			<point x="643" y="90"/>
			<point x="634" y="90" type="curve"/>
			<point x="608" y="58"/>
			<point x="589" y="52"/>
			<point x="573" y="51" type="curve"/>
			<point x="570" y="51"/>
			<point x="567" y="51"/>
			<point x="564" y="51" type="curve" smooth="yes"/>
			<point x="546" y="51"/>
			<point x="533" y="73"/>
			<point x="522" y="100" type="curve"/>
			<point x="514" y="118"/>
			<point x="508" y="138"/>
			<point x="501" y="156" type="curve"/>
			<point x="550" y="217"/>
			<point x="654" y="341"/>
			<point x="654" y="341" type="curve"/>
			<point x="680" y="372"/>
			<point x="698" y="390"/>
			<point x="717" y="397" type="curve"/>
			<point x="724" y="400"/>
			<point x="731" y="402"/>
			<point x="738" y="402" type="curve" smooth="yes"/>
			<point x="744" y="402"/>
			<point x="749" y="406"/>
			<point x="750" y="411" type="curve" smooth="yes"/>
			<point x="755" y="434" type="line"/>
			<point x="754" y="436" type="line"/>
			<point x="754" y="436"/>
			<point x="705" y="434"/>
			<point x="675" y="434" type="curve" smooth="yes"/>
			<point x="670" y="434"/>
			<point x="664" y="434"/>
			<point x="658" y="434" type="curve"/>
			<point x="622" y="435"/>
			<point x="579" y="436"/>
			<point x="579" y="436" type="curve"/>
			<point x="574" y="433" type="line"/>
			<point x="569" y="409" type="line"/>
			<point x="569" y="406"/>
			<point x="571" y="402"/>
			<point x="575" y="402" type="curve"/>
			<point x="584" y="401"/>
			<point x="593" y="400"/>
			<point x="599" y="397" type="curve"/>
			<point x="612" y="391"/>
			<point x="617" y="378"/>
		</contour>
		<contour>
			<point x="296" y="317" type="curve"/>
			<point x="312" y="276"/>
			<point x="358" y="167"/>
			<point x="389" y="105" type="curve"/>
			<point x="345" y="59"/>
			<point x="310" y="37"/>
			<point x="271" y="32" type="curve"/>
			<point x="265" y="31"/>
			<point x="260" y="31"/>
			<point x="254" y="31" type="curve" smooth="yes"/>
			<point x="224" y="31"/>
			<point x="199" y="73"/>
			<point x="196" y="125" type="curve"/>
			<point x="196" y="139"/>
			<point x="197" y="155"/>
			<point x="200" y="170" type="curve" smooth="yes"/>
			<point x="209" y="214"/>
			<point x="227" y="265"/>
		</contour>
		<contour>
			<point x="373" y="536" type="curve"/>
			<point x="376" y="554"/>
			<point x="379" y="565"/>
			<point x="389" y="581" type="curve" smooth="yes"/>
			<point x="403" y="604"/>
			<point x="427" y="613"/>
			<point x="445" y="613" type="curve" smooth="yes"/>
			<point x="448" y="613"/>
			<point x="452" y="613"/>
			<point x="455" y="612" type="curve"/>
			<point x="476" y="608"/>
			<point x="490" y="588"/>
			<point x="494" y="563" type="curve"/>
			<point x="495" y="552"/>
			<point x="495" y="540"/>
			<point x="492" y="527" type="curve" smooth="yes"/>
			<point x="484" y="489"/>
			<point x="438" y="447"/>
			<point x="392" y="414" type="curve"/>
			<point x="391" y="416"/>
			<point x="389" y="418"/>
			<point x="388" y="420" type="curve"/>
			<point x="372" y="458"/>
			<point x="368" y="515"/>
		</contour>
	</outline>
</glyph>
<glyph name="parenleft" format="2">
	<unicode hex="0028"/>
	<advance width="315"/>
	<outline>
		<contour>
			<point x="97" y="253" type="curve" smooth="yes"/>
			<point x="94" y="240"/>
			<point x="88" y="210"/>
			<point x="86" y="170" type="curve" smooth="yes"/>
			<point x="83" y="116"/>
			<point x="86" y="43"/>
			<point x="113" y="-34" type="curve"/>
			<point x="132" y="-93"/>
			<point x="164" y="-154"/>
			<point x="216" y="-213" type="curve"/>
			<point x="251" y="-181" type="line"/>
			<point x="236" y="-157"/>
			<point x="195" y="-89"/>
			<point x="187" y="31" type="curve" smooth="yes"/>
			<point x="186" y="51"/>
			<point x="185" y="73"/>
			<point x="186" y="96" type="curve" smooth="yes"/>
			<point x="187" y="142"/>
			<point x="193" y="194"/>
			<point x="205" y="253" type="curve" smooth="yes"/>
			<point x="222" y="332"/>
			<point x="246" y="400"/>
			<point x="273" y="456" type="curve" smooth="yes"/>
			<point x="335" y="588"/>
			<point x="411" y="662"/>
			<point x="435" y="686" type="curve"/>
			<point x="416" y="720" type="line"/>
			<point x="343" y="664"/>
			<point x="273" y="592"/>
			<point x="216" y="512" type="curve" smooth="yes"/>
			<point x="160" y="433"/>
			<point x="117" y="344"/>
		</contour>
	</outline>
</glyph>
<glyph name="slash" format="2">
	<unicode hex="002F"/>
	<advance width="296"/>
	<outline>
		<contour>
			<point x="405" y="682" type="line"/>
			<point x="346" y="682" type="line"/>
			<point x="25" y="-21" type="line"/>
			<point x="84" y="-21" type="line"/>
		</contour>
	</outline>
</glyph>
<glyph name="zero" format="2">
	<unicode hex="0030"/>
	<advance width="514"/>
	<outline>
		<contour>
			<point x="253" y="-10" type="curve" smooth="yes"/>
			<point x="306" y="-10"/>
			<point x="375" y="16"/>
			<point x="433" y="83" type="curve" smooth="yes"/>
			<point x="487" y="146"/>
			<point x="549" y="284"/>
			<point x="549" y="420" type="curve" smooth="yes"/>
			<point x="549" y="565"/>
			<point x="467" y="610"/>
			<point x="390" y="610" type="curve" smooth="yes"/>
			<point x="361" y="610"/>
			<point x="332" y="604"/>
			<point x="305" y="591" type="curve"/>
			<point x="277" y="579"/>
			<point x="251" y="560"/>
			<point x="226" y="536" type="curve" smooth="yes"/>
			<point x="160" y="470"/>
			<point x="96" y="341"/>
			<point x="96" y="195" type="curve" smooth="yes"/>
			<point x="96" y="78"/>
			<point x="146" y="-10"/>
		</contour>
		<contour>
			<point x="380" y="565" type="curve" smooth="yes"/>
			<point x="388" y="565"/>
			<point x="396" y="562"/>
			<point x="402" y="556" type="curve"/>
			<point x="416" y="543"/>
			<point x="425" y="516"/>
			<point x="425" y="469" type="curve" smooth="yes"/>
			<point x="425" y="463"/>
			<point x="425" y="457"/>
			<point x="424" y="450" type="curve"/>
			<point x="419" y="353"/>
			<point x="376" y="194"/>
			<point x="354" y="140" type="curve" smooth="yes"/>
			<point x="320" y="56"/>
			<point x="288" y="33"/>
			<point x="263" y="33" type="curve" smooth="yes"/>
			<point x="226" y="33"/>
			<point x="215" y="70"/>
			<point x="215" y="118" type="curve" smooth="yes"/>
			<point x="215" y="125"/>
			<point x="215" y="132"/>
			<point x="215" y="139" type="curve"/>
			<point x="221" y="262"/>
			<point x="272" y="431"/>
			<point x="301" y="491" type="curve" smooth="yes"/>
			<point x="306" y="501"/>
			<point x="311" y="510"/>
			<point x="315" y="518" type="curve"/>
			<point x="339" y="557"/>
			<point x="362" y="565"/>
		</contour>
	</outline>
</glyph>
<glyph name="one" format="2">
	<unicode hex="0031"/>
	<advance width="514"/>
	<outline>
		<contour>
			<point x="376" y="122" type="curve" smooth="yes"/>
			<point x="453" y="483" type="line" smooth="yes"/>
			<point x="464" y="536"/>
			<point x="484" y="593"/>
			<point x="484" y="593" type="curve"/>
			<point x="487" y="606"/>
			<point x="480" y="610"/>
			<point x="472" y="610" type="curve" smooth="yes"/>
			<point x="470" y="610"/>
			<point x="467" y="610"/>
			<point x="464" y="609" type="curve"/>
			<point x="457" y="608"/>
			<point x="449" y="606"/>
			<point x="439" y="602" type="curve" smooth="yes"/>
			<point x="434" y="600"/>
			<point x="428" y="598"/>
			<point x="422" y="595" type="curve"/>
			<point x="359" y="567"/>
			<point x="289" y="543"/>
			<point x="200" y="507" type="curve"/>
			<point x="197" y="490"/>
			<point x="200" y="474"/>
			<point x="211" y="464" type="curve"/>
			<point x="267" y="487"/>
			<point x="301" y="489"/>
			<point x="314" y="489" type="curve"/>
			<point x="314" y="489"/>
			<point x="314" y="489"/>
			<point x="314" y="489" type="curve"/>
			<point x="323" y="489"/>
			<point x="329" y="487"/>
			<point x="326" y="465" type="curve" smooth="yes"/>
			<point x="325" y="457"/>
			<point x="324" y="448"/>
			<point x="321" y="435" type="curve" smooth="yes"/>
			<point x="254" y="122" type="line"/>
			<point x="254" y="122" type="line"/>
			<point x="241" y="64"/>
			<point x="215" y="45"/>
			<point x="183" y="37" type="curve"/>
			<point x="169" y="34"/>
			<point x="154" y="33"/>
			<point x="138" y="32" type="curve"/>
			<point x="127" y="26"/>
			<point x="123" y="4"/>
			<point x="131" y="-2" type="curve"/>
			<point x="190" y="-1"/>
			<point x="252" y="0"/>
			<point x="290" y="0" type="curve" smooth="yes"/>
			<point x="328" y="0"/>
			<point x="388" y="-1"/>
			<point x="447" y="-2" type="curve"/>
			<point x="458" y="4"/>
			<point x="462" y="26"/>
			<point x="454" y="32" type="curve"/>
			<point x="437" y="33"/>
			<point x="421" y="34"/>
			<point x="407" y="38" type="curve" smooth="yes"/>
			<point x="380" y="46"/>
			<point x="364" y="67"/>
		</contour>
	</outline>
</glyph>
<glyph name="two" format="2">
	<unicode hex="0032"/>
	<advance width="514"/>
	<outline>
		<contour>
			<point x="257" y="583" type="curve" smooth="yes"/>
			<point x="195" y="553"/>
			<point x="140" y="512"/>
			<point x="140" y="455" type="curve" smooth="yes"/>
			<point x="140" y="433"/>
			<point x="155" y="410"/>
			<point x="185" y="410" type="curve" smooth="yes"/>
			<point x="212" y="410"/>
			<point x="243" y="423"/>
			<point x="249" y="454" type="curve" smooth="yes"/>
			<point x="251" y="466"/>
			<point x="249" y="476"/>
			<point x="247" y="485" type="curve"/>
			<point x="246" y="491"/>
			<point x="245" y="496"/>
			<point x="245" y="501" type="curve" smooth="yes"/>
			<point x="245" y="507"/>
			<point x="246" y="512"/>
			<point x="249" y="518" type="curve" smooth="yes"/>
			<point x="260" y="539"/>
			<point x="282" y="550"/>
			<point x="320" y="550" type="curve" smooth="yes"/>
			<point x="325" y="550"/>
			<point x="331" y="550"/>
			<point x="336" y="549" type="curve" smooth="yes"/>
			<point x="372" y="542"/>
			<point x="400" y="512"/>
			<point x="400" y="466" type="curve" smooth="yes"/>
			<point x="400" y="396"/>
			<point x="377" y="348"/>
			<point x="320" y="289" type="curve" smooth="yes"/>
			<point x="316" y="285"/>
			<point x="312" y="281"/>
			<point x="308" y="277" type="curve" smooth="yes"/>
			<point x="238" y="204" type="line"/>
			<point x="238" y="204" type="line"/>
			<point x="153" y="116"/>
			<point x="105" y="70"/>
			<point x="75" y="42" type="curve"/>
			<point x="68" y="36" type="line"/>
			<point x="62" y="26"/>
			<point x="60" y="8"/>
			<point x="64" y="0" type="curve"/>
			<point x="93" y="0"/>
			<point x="123" y="0"/>
			<point x="152" y="0" type="curve" smooth="yes"/>
			<point x="328" y="0" type="line" smooth="yes"/>
			<point x="357" y="0"/>
			<point x="387" y="0"/>
			<point x="416" y="0" type="curve"/>
			<point x="435" y="38"/>
			<point x="461" y="107"/>
			<point x="480" y="164" type="curve"/>
			<point x="469" y="170"/>
			<point x="462" y="174"/>
			<point x="440" y="174" type="curve"/>
			<point x="405" y="106"/>
			<point x="395" y="99"/>
			<point x="353" y="99" type="curve" smooth="yes"/>
			<point x="212" y="99" type="line"/>
			<point x="232" y="122"/>
			<point x="249" y="141"/>
			<point x="285" y="174" type="curve" smooth="yes"/>
			<point x="339" y="223" type="line" smooth="yes"/>
			<point x="360" y="242"/>
			<point x="380" y="260"/>
			<point x="397" y="276" type="curve" smooth="yes"/>
			<point x="491" y="360"/>
			<point x="531" y="402"/>
			<point x="531" y="482" type="curve" smooth="yes"/>
			<point x="531" y="488"/>
			<point x="531" y="494"/>
			<point x="530" y="499" type="curve"/>
			<point x="519" y="567"/>
			<point x="445" y="610"/>
			<point x="370" y="610" type="curve" smooth="yes"/>
			<point x="322" y="610"/>
			<point x="291" y="599"/>
		</contour>
	</outline>
</glyph>
<glyph name="four" format="2">
	<unicode hex="0034"/>
	<advance width="514"/>
	<outline>
		<contour>
			<point x="502" y="209" type="curve" smooth="yes"/>
			<point x="410" y="209" type="line"/>
			<point x="475" y="514" type="line" smooth="yes"/>
			<point x="482" y="546"/>
			<point x="489" y="578"/>
			<point x="496" y="610" type="curve"/>
			<point x="462" y="610" type="line" smooth="yes"/>
			<point x="445" y="610"/>
			<point x="428" y="610"/>
			<point x="411" y="610" type="curve"/>
			<point x="320" y="519"/>
			<point x="183" y="347"/>
			<point x="79" y="223" type="curve"/>
			<point x="76" y="219"/>
			<point x="69" y="213"/>
			<point x="69" y="209" type="curve" smooth="yes"/>
			<point x="69" y="201"/>
			<point x="83" y="177"/>
			<point x="88" y="169" type="curve" smooth="yes"/>
			<point x="91" y="164"/>
			<point x="94" y="162"/>
			<point x="117" y="162" type="curve" smooth="yes"/>
			<point x="284" y="162" type="line"/>
			<point x="275" y="122" type="line"/>
			<point x="275" y="122" type="line"/>
			<point x="264" y="72"/>
			<point x="247" y="51"/>
			<point x="224" y="41" type="curve"/>
			<point x="208" y="35"/>
			<point x="190" y="33"/>
			<point x="169" y="32" type="curve"/>
			<point x="158" y="26"/>
			<point x="154" y="4"/>
			<point x="162" y="-2" type="curve"/>
			<point x="239" y="-1"/>
			<point x="270" y="0"/>
			<point x="308" y="0" type="curve" smooth="yes"/>
			<point x="316" y="0"/>
			<point x="324" y="0"/>
			<point x="333" y="0" type="curve" smooth="yes"/>
			<point x="362" y="0"/>
			<point x="393" y="-1"/>
			<point x="453" y="-2" type="curve"/>
			<point x="464" y="4"/>
			<point x="468" y="26"/>
			<point x="460" y="32" type="curve"/>
			<point x="449" y="33"/>
			<point x="438" y="33"/>
			<point x="429" y="35" type="curve"/>
			<point x="405" y="39"/>
			<point x="390" y="49"/>
			<point x="387" y="78" type="curve"/>
			<point x="387" y="89"/>
			<point x="388" y="104"/>
			<point x="392" y="122" type="curve" smooth="yes"/>
			<point x="400" y="162" type="line"/>
			<point x="479" y="162" type="line" smooth="yes"/>
			<point x="494" y="162"/>
			<point x="514" y="183"/>
			<point x="514" y="199" type="curve" smooth="yes"/>
			<point x="514" y="205"/>
			<point x="510" y="209"/>
		</contour>
		<contour>
			<point x="356" y="501" type="curve"/>
			<point x="294" y="209" type="line"/>
			<point x="121" y="209" type="line"/>
			<point x="186" y="293"/>
			<point x="291" y="429"/>
		</contour>
	</outline>
</glyph>
<glyph name="six" format="2">
	<unicode hex="0036"/>
	<advance width="514"/>
	<outline>
		<contour>
			<point x="542" y="602" type="curve"/>
			<point x="542" y="616"/>
			<point x="539" y="628"/>
			<point x="532" y="636" type="curve"/>
			<point x="422" y="610"/>
			<point x="346" y="573"/>
			<point x="266" y="513" type="curve" smooth="yes"/>
			<point x="167" y="439"/>
			<point x="90" y="314"/>
			<point x="90" y="184" type="curve" smooth="yes"/>
			<point x="90" y="52"/>
			<point x="180" y="-10"/>
			<point x="259" y="-10" type="curve" smooth="yes"/>
			<point x="406" y="-10"/>
			<point x="511" y="106"/>
			<point x="511" y="240" type="curve" smooth="yes"/>
			<point x="511" y="294"/>
			<point x="482" y="371"/>
			<point x="356" y="371" type="curve" smooth="yes"/>
			<point x="328" y="371"/>
			<point x="290" y="358"/>
			<point x="252" y="336" type="curve"/>
			<point x="274" y="408"/>
			<point x="319" y="471"/>
			<point x="371" y="509" type="curve" smooth="yes"/>
			<point x="437" y="557"/>
			<point x="480" y="579"/>
		</contour>
		<contour>
			<point x="237" y="295" type="curve"/>
			<point x="278" y="319"/>
			<point x="296" y="321"/>
			<point x="313" y="321" type="curve" smooth="yes"/>
			<point x="358" y="321"/>
			<point x="381" y="275"/>
			<point x="381" y="225" type="curve" smooth="yes"/>
			<point x="381" y="136"/>
			<point x="348" y="32"/>
			<point x="278" y="32" type="curve" smooth="yes"/>
			<point x="255" y="32"/>
			<point x="211" y="60"/>
			<point x="211" y="137" type="curve" smooth="yes"/>
			<point x="211" y="193"/>
			<point x="221" y="254"/>
		</contour>
	</outline>
</glyph>
<glyph name="eight" format="2">
	<unicode hex="0038"/>
	<advance width="514"/>
	<outline>
		<contour>
			<point x="492" y="395" type="curve" smooth="yes"/>
			<point x="521" y="423"/>
			<point x="540" y="447"/>
			<point x="540" y="496" type="curve" smooth="yes"/>
			<point x="540" y="550"/>
			<point x="491" y="610"/>
			<point x="392" y="610" type="curve" smooth="yes"/>
			<point x="385" y="610"/>
			<point x="379" y="610"/>
			<point x="372" y="609" type="curve"/>
			<point x="309" y="606"/>
			<point x="264" y="585"/>
			<point x="230" y="555" type="curve" smooth="yes"/>
			<point x="197" y="527"/>
			<point x="174" y="493"/>
			<point x="169" y="448" type="curve"/>
			<point x="168" y="442"/>
			<point x="168" y="436"/>
			<point x="168" y="430" type="curve" smooth="yes"/>
			<point x="168" y="392"/>
			<point x="191" y="360"/>
			<point x="236" y="326" type="curve" smooth="yes"/>
			<point x="254" y="313" type="line"/>
			<point x="202" y="290"/>
			<point x="169" y="269"/>
			<point x="140" y="242" type="curve" smooth="yes"/>
			<point x="104" y="208"/>
			<point name=".hr01" x="73" y="165"/>
			<point x="73" y="115" type="curve" smooth="yes"/>
			<point x="73" y="34"/>
			<point x="154" y="-10"/>
			<point x="248" y="-10" type="curve" smooth="yes"/>
			<point x="316" y="-10"/>
			<point x="372" y="11"/>
			<point x="414" y="41" type="curve" smooth="yes"/>
			<point x="474" y="83"/>
			<point x="505" y="132"/>
			<point x="505" y="204" type="curve" smooth="yes"/>
			<point x="505" y="248"/>
			<point x="489" y="288"/>
			<point x="453" y="314" type="curve" smooth="yes"/>
			<point x="449" y="317"/>
			<point x="445" y="320"/>
			<point x="442" y="322" type="curve"/>
			<point x="407" y="347" type="line"/>
			<point x="437" y="356"/>
			<point x="468" y="372"/>
		</contour>
		<contour>
			<point x="262" y="32" type="curve" smooth="yes"/>
			<point x="222" y="32"/>
			<point x="188" y="65"/>
			<point x="188" y="110" type="curve" smooth="yes"/>
			<point x="188" y="114"/>
			<point x="188" y="119"/>
			<point x="188" y="123" type="curve"/>
			<point x="190" y="183"/>
			<point x="205" y="238"/>
			<point x="287" y="290" type="curve"/>
			<point x="332" y="259" type="line" smooth="yes"/>
			<point x="372" y="231"/>
			<point x="385" y="210"/>
			<point x="385" y="180" type="curve" smooth="yes"/>
			<point x="385" y="175"/>
			<point x="385" y="170"/>
			<point x="384" y="165" type="curve"/>
			<point x="381" y="124"/>
			<point x="363" y="88"/>
			<point x="346" y="68" type="curve" smooth="yes"/>
			<point x="319" y="37"/>
			<point x="288" y="32"/>
		</contour>
		<contour>
			<point x="378" y="567" type="curve" smooth="yes"/>
			<point x="413" y="567"/>
			<point x="434" y="537"/>
			<point x="434" y="496" type="curve"/>
			<point name=".hr02" x="434" y="496"/>
			<point x="434" y="496"/>
			<point x="434" y="496" type="curve"/>
			<point x="434" y="442"/>
			<point x="408" y="392"/>
			<point x="372" y="371" type="curve"/>
			<point x="338" y="392" type="line"/>
			<point x="336" y="394"/>
			<point x="333" y="395"/>
			<point x="330" y="397" type="curve" smooth="yes"/>
			<point x="300" y="416"/>
			<point x="292" y="443"/>
			<point x="292" y="466" type="curve"/>
			<point x="292" y="466"/>
			<point x="292" y="466"/>
			<point x="292" y="466" type="curve"/>
			<point x="292" y="498"/>
			<point x="298" y="529"/>
			<point x="314" y="547" type="curve" smooth="yes"/>
			<point x="327" y="561"/>
			<point x="346" y="567"/>
		</contour>
	</outline>
</glyph>
<glyph name="nine" format="2">
	<unicode hex="0039"/>
	<advance width="514"/>
	<outline>
		<contour>
			<point x="78" y="-2" type="curve"/>
			<point x="78" y="-16"/>
			<point x="81" y="-28"/>
			<point x="88" y="-36" type="curve"/>
			<point x="198" y="-10"/>
			<point x="273" y="27"/>
			<point x="353" y="87" type="curve" smooth="yes"/>
			<point x="452" y="161"/>
			<point x="530" y="286"/>
			<point x="530" y="416" type="curve" smooth="yes"/>
			<point x="530" y="548"/>
			<point x="439" y="610"/>
			<point x="360" y="610" type="curve" smooth="yes"/>
			<point x="213" y="610"/>
			<point x="108" y="494"/>
			<point x="108" y="360" type="curve" smooth="yes"/>
			<point x="108" y="306"/>
			<point x="137" y="229"/>
			<point x="263" y="229" type="curve" smooth="yes"/>
			<point x="291" y="229"/>
			<point x="329" y="242"/>
			<point x="367" y="264" type="curve"/>
			<point x="345" y="192"/>
			<point x="300" y="129"/>
			<point x="248" y="91" type="curve" smooth="yes"/>
			<point x="182" y="43"/>
			<point x="140" y="21"/>
		</contour>
		<contour>
			<point x="382" y="305" type="curve"/>
			<point x="341" y="281"/>
			<point x="323" y="279"/>
			<point x="306" y="279" type="curve" smooth="yes"/>
			<point x="261" y="279"/>
			<point x="238" y="325"/>
			<point x="238" y="375" type="curve" smooth="yes"/>
			<point x="238" y="464"/>
			<point x="270" y="568"/>
			<point x="340" y="568" type="curve" smooth="yes"/>
			<point x="363" y="568"/>
			<point x="408" y="540"/>
			<point x="408" y="463" type="curve" smooth="yes"/>
			<point x="408" y="407"/>
			<point x="398" y="346"/>
		</contour>
	</outline>
</glyph>
<glyph name="colon" format="2">
	<unicode hex="003A"/>
	<advance width="256"/>
	<outline>
		<contour>
			<point x="68" y="59" type="curve" smooth="yes"/>
			<point x="68" y="21"/>
			<point x="100" y="-9"/>
			<point x="140" y="-9" type="curve" smooth="yes"/>
			<point x="180" y="-9"/>
			<point x="214" y="23"/>
			<point x="214" y="61" type="curve" smooth="yes"/>
			<point x="214" y="100"/>
			<point x="182" y="130"/>
			<point x="142" y="130" type="curve" smooth="yes"/>
			<point x="102" y="130"/>
			<point x="68" y="98"/>
		</contour>
		<contour>
			<point x="128" y="359" type="curve" smooth="yes"/>
			<point x="128" y="321"/>
			<point x="160" y="291"/>
			<point x="200" y="291" type="curve" smooth="yes"/>
			<point x="240" y="291"/>
			<point x="274" y="323"/>
			<point x="274" y="361" type="curve" smooth="yes"/>
			<point x="274" y="400"/>
			<point x="242" y="430"/>
			<point x="202" y="430" type="curve" smooth="yes"/>
			<point x="162" y="430"/>
			<point x="128" y="398"/>
		</contour>
	</outline>
</glyph>
<glyph name="semicolon" format="2">
	<unicode hex="003B"/>
	<advance width="256"/>
	<outline>
		<contour>
			<point x="154" y="127" type="curve" smooth="yes"/>
			<point x="128" y="127"/>
			<point x="86" y="96"/>
			<point x="81" y="73" type="curve"/>
			<point x="80" y="70"/>
			<point x="80" y="67"/>
			<point x="79" y="63" type="curve"/>
			<point x="77" y="41"/>
			<point x="86" y="17"/>
			<point x="105" y="6" type="curve"/>
			<point x="106" y="5"/>
			<point x="107" y="5"/>
			<point x="109" y="4" type="curve"/>
			<point x="118" y="0"/>
			<point x="136" y="-8"/>
			<point x="132" y="-27" type="curve" smooth="yes"/>
			<point name=".hr01" x="127" y="-53"/>
			<point x="62" y="-124"/>
			<point x="16" y="-136" type="curve"/>
			<point x="8" y="-149"/>
			<point x="6" y="-159"/>
			<point x="16" y="-167" type="curve"/>
			<point x="53" y="-161"/>
			<point x="100" y="-136"/>
			<point x="134" y="-108" type="curve" smooth="yes"/>
			<point x="168" y="-80"/>
			<point x="203" y="-31"/>
			<point x="211" y="4" type="curve" smooth="yes"/>
			<point x="214" y="18"/>
			<point x="216" y="32"/>
			<point name=".hr02" x="217" y="44" type="curve"/>
			<point x="220" y="99"/>
			<point x="196" y="127"/>
		</contour>
		<contour>
			<point x="127" y="362" type="curve" smooth="yes"/>
			<point name=".hr03" x="127" y="328"/>
			<point x="153" y="300"/>
			<point x="187" y="295" type="curve"/>
			<point x="191" y="294"/>
			<point x="195" y="294"/>
			<point x="199" y="294" type="curve" smooth="yes"/>
			<point x="239" y="294"/>
			<point x="273" y="326"/>
			<point x="273" y="364" type="curve" smooth="yes"/>
			<point x="273" y="368"/>
			<point x="273" y="372"/>
			<point x="272" y="375" type="curve"/>
			<point x="267" y="405"/>
			<point x="243" y="427"/>
			<point x="213" y="432" type="curve"/>
			<point x="209" y="433"/>
			<point x="205" y="433"/>
			<point x="201" y="433" type="curve" smooth="yes"/>
			<point x="161" y="433"/>
			<point x="127" y="401"/>
		</contour>
	</outline>
</glyph>
<glyph name="A" format="2">
	<unicode hex="0041"/>
	<advance width="710"/>
	<outline>
		<contour>
			<point x="174" y="73" type="curve"/>
			<point x="252" y="218" type="line" smooth="yes"/>
			<point x="259" y="231"/>
			<point x="266" y="235"/>
			<point x="289" y="235" type="curve" smooth="yes"/>
			<point x="471" y="235" type="line"/>
			<point x="492" y="73" type="line"/>
			<point x="493" y="68"/>
			<point x="493" y="63"/>
			<point x="493" y="62" type="curve"/>
			<point x="493" y="48"/>
			<point x="478" y="39"/>
			<point x="452" y="37" type="curve" smooth="yes"/>
			<point x="414" y="34" type="line"/>
			<point x="408" y="28"/>
			<point x="403" y="5"/>
			<point x="408" y="-2" type="curve"/>
			<point x="444" y="-1"/>
			<point x="535" y="0"/>
			<point x="575" y="0" type="curve" smooth="yes"/>
			<point x="615" y="0"/>
			<point x="657" y="-1"/>
			<point x="700" y="-2" type="curve"/>
			<point x="706" y="3"/>
			<point x="711" y="26"/>
			<point x="707" y="34" type="curve"/>
			<point x="689" y="37" type="line" smooth="yes"/>
			<point x="661" y="42"/>
			<point x="634" y="61"/>
			<point x="631" y="82" type="curve" smooth="yes"/>
			<point x="544" y="658" type="line"/>
			<point x="539" y="658" type="line"/>
			<point x="524" y="647"/>
			<point x="440" y="614"/>
			<point x="430" y="614" type="curve"/>
			<point x="122" y="99" type="line"/>
			<point x="95" y="51"/>
			<point x="66" y="34"/>
			<point x="13" y="34" type="curve"/>
			<point x="7" y="28"/>
			<point x="1" y="6"/>
			<point x="6" y="-2" type="curve"/>
			<point x="42" y="-1"/>
			<point x="60" y="0"/>
			<point x="97" y="0" type="curve" smooth="yes"/>
			<point x="136" y="0"/>
			<point x="189" y="-1"/>
			<point x="224" y="-2" type="curve"/>
			<point x="231" y="4"/>
			<point x="236" y="28"/>
			<point x="231" y="34" type="curve"/>
			<point x="208" y="37" type="line" smooth="yes"/>
			<point x="186" y="40"/>
			<point x="171" y="48"/>
			<point x="171" y="61" type="curve" smooth="yes"/>
			<point x="171" y="65"/>
			<point x="172" y="69"/>
		</contour>
		<contour>
			<point x="317" y="283" type="line" smooth="yes"/>
			<point x="301" y="283"/>
			<point x="293" y="285"/>
			<point x="293" y="290" type="curve" smooth="yes"/>
			<point x="293" y="292"/>
			<point x="294" y="294"/>
			<point x="295" y="296" type="curve"/>
			<point x="424" y="520" type="line"/>
			<point x="430" y="520" type="line"/>
			<point x="463" y="283" type="line"/>
		</contour>
	</outline>
	<anchor name="t.uni0302" x="480" y="740"/>
	<guideline x="588" y="86" angle="99.6337"/>
	<guideline x="437" y="622" angle="238.794"/>
	<guideline x="482" y="241" angle="278.415"/>
	<guideline x="317" y="3" angle="78"/>
	<guideline x="0" y="740" angle="0"/>
</glyph>
<glyph name="E" format="2">
	<unicode hex="0045"/>
	<advance width="578"/>
	<outline>
		<contour>
			<point x="377" y="367" type="curve" smooth="yes"/>
			<point x="299" y="367" type="line"/>
			<point x="335" y="554" type="line" smooth="yes"/>
			<point x="341" y="587"/>
			<point x="358" y="603"/>
			<point x="384" y="603" type="curve" smooth="yes"/>
			<point x="466" y="603" type="line" smooth="yes"/>
			<point x="538" y="603"/>
			<point x="550" y="565"/>
			<point x="558" y="496" type="curve"/>
			<point x="570" y="494"/>
			<point x="590" y="496"/>
			<point x="600" y="501" type="curve"/>
			<point x="603" y="542"/>
			<point x="617" y="638"/>
			<point x="617" y="646" type="curve" smooth="yes"/>
			<point x="617" y="648"/>
			<point x="617" y="649"/>
			<point x="614" y="649" type="curve"/>
			<point x="597" y="646"/>
			<point x="589" y="645"/>
			<point x="566" y="645" type="curve" smooth="yes"/>
			<point x="283" y="645" type="line" smooth="yes"/>
			<point x="273" y="645"/>
			<point x="183" y="646"/>
			<point x="135" y="647" type="curve"/>
			<point x="130" y="642"/>
			<point x="123" y="619"/>
			<point name=".hr01" x="129" y="613" type="curve"/>
			<point x="182" y="609"/>
			<point x="199" y="598"/>
			<point x="199" y="566" type="curve" smooth="yes"/>
			<point x="199" y="555"/>
			<point x="197" y="540"/>
			<point x="194" y="522" type="curve" smooth="yes"/>
			<point x="117" y="122" type="line" smooth="yes"/>
			<point x="104" y="55"/>
			<point x="86" y="40"/>
			<point x="16" y="32" type="curve"/>
			<point x="10" y="26"/>
			<point x="4" y="5"/>
			<point x="9" y="-2" type="curve"/>
			<point x="46" y="-1"/>
			<point x="115" y="0"/>
			<point x="145" y="0" type="curve" smooth="yes"/>
			<point x="384" y="0" type="line" smooth="yes"/>
			<point x="430" y="0"/>
			<point x="507" y="-2"/>
			<point x="516" y="-2" type="curve"/>
			<point x="530" y="50"/>
			<point x="551" y="108"/>
			<point x="574" y="165" type="curve"/>
			<point x="565" y="171"/>
			<point x="545" y="173"/>
			<point x="532" y="170" type="curve"/>
			<point x="502" y="104"/>
			<point name=".hr02" x="453" y="42"/>
			<point x="389" y="42" type="curve" smooth="yes"/>
			<point x="275" y="42" type="line" smooth="yes"/>
			<point x="254" y="42"/>
			<point x="244" y="61"/>
			<point x="244" y="79" type="curve" smooth="yes"/>
			<point x="244" y="83"/>
			<point x="244" y="86"/>
			<point x="245" y="90" type="curve"/>
			<point x="289" y="317" type="line"/>
			<point x="367" y="317" type="line" smooth="yes"/>
			<point x="425" y="317"/>
			<point x="443" y="302"/>
			<point x="443" y="273" type="curve" smooth="yes"/>
			<point x="443" y="255" type="line"/>
			<point x="449" y="249"/>
			<point x="477" y="249"/>
			<point x="483" y="255" type="curve"/>
			<point x="493" y="313"/>
			<point x="504" y="371"/>
			<point x="517" y="429" type="curve"/>
			<point x="513" y="435"/>
			<point x="482" y="435"/>
			<point x="476" y="429" type="curve"/>
			<point x="459" y="370"/>
			<point x="437" y="367"/>
		</contour>
	</outline>
	<anchor name="t.uni0302" x="385" y="740"/>
</glyph>
<glyph name="G" format="2">
	<unicode hex="0047"/>
	<advance width="723"/>
	<outline>
		<contour>
			<point x="518" y="658" type="curve" smooth="yes"/>
			<point x="290" y="658"/>
			<point x="83" y="458"/>
			<point x="83" y="238" type="curve" smooth="yes"/>
			<point x="83" y="80"/>
			<point x="191" y="-10"/>
			<point x="381" y="-10" type="curve" smooth="yes"/>
			<point x="495" y="-10"/>
			<point x="611" y="23"/>
			<point x="687" y="78" type="curve"/>
			<point x="678" y="87"/>
			<point x="676" y="94"/>
			<point x="678" y="106" type="curve" smooth="yes"/>
			<point x="700" y="223" type="line" smooth="yes"/>
			<point x="706" y="254"/>
			<point x="722" y="268"/>
			<point x="754" y="271" type="curve"/>
			<point x="761" y="277"/>
			<point x="766" y="305"/>
			<point x="761" y="310" type="curve"/>
			<point x="733" y="309"/>
			<point x="704" y="308"/>
			<point x="641" y="308" type="curve" smooth="yes"/>
			<point x="577" y="308"/>
			<point x="530" y="309"/>
			<point x="499" y="310" type="curve"/>
			<point x="492" y="303"/>
			<point x="488" y="278"/>
			<point x="492" y="271" type="curve"/>
			<point x="520" y="268" type="line" smooth="yes"/>
			<point x="550" y="265"/>
			<point x="562" y="256"/>
			<point x="562" y="236" type="curve" smooth="yes"/>
			<point x="562" y="230"/>
			<point x="562" y="227"/>
			<point x="561" y="223" type="curve"/>
			<point x="532" y="74" type="line"/>
			<point x="493" y="42"/>
			<point x="466" y="32"/>
			<point x="422" y="32" type="curve" smooth="yes"/>
			<point x="301" y="32"/>
			<point x="231" y="110"/>
			<point x="231" y="253" type="curve" smooth="yes"/>
			<point x="231" y="443"/>
			<point x="354" y="616"/>
			<point x="496" y="616" type="curve" smooth="yes"/>
			<point x="614" y="616"/>
			<point x="685" y="558"/>
			<point x="695" y="454" type="curve"/>
			<point x="739" y="460" type="line"/>
			<point x="739" y="502"/>
			<point x="742" y="551"/>
			<point x="749" y="623" type="curve"/>
			<point x="691" y="623"/>
			<point x="635" y="658"/>
		</contour>
	</outline>
	<anchor name="t.uni0302" x="499" y="740"/>
</glyph>
<glyph name="J" format="2">
	<unicode hex="004A"/>
	<advance width="494"/>
	<outline>
		<contour>
			<point x="200" y="334" type="line"/>
			<point x="200" y="299" type="line"/>
			<point x="348" y="290" type="line"/>
			<point x="335" y="223"/>
			<point x="322" y="156"/>
			<point x="306" y="95" type="curve" smooth="yes"/>
			<point x="276" y="-18"/>
			<point x="236" y="-108"/>
			<point x="169" y="-125" type="curve"/>
			<point x="165" y="-111"/>
			<point x="157" y="-95"/>
			<point x="144" y="-82" type="curve"/>
			<point x="131" y="-70"/>
			<point x="114" y="-61"/>
			<point x="91" y="-61" type="curve" smooth="yes"/>
			<point x="51" y="-61"/>
			<point x="31" y="-93"/>
			<point x="31" y="-121" type="curve" smooth="yes"/>
			<point x="31" y="-180"/>
			<point x="105" y="-200"/>
			<point x="146" y="-200" type="curve" smooth="yes"/>
			<point x="319" y="-200"/>
			<point x="396" y="-69"/>
			<point x="439" y="93" type="curve" smooth="yes"/>
			<point x="456" y="156"/>
			<point x="467" y="224"/>
			<point x="477" y="291" type="curve"/>
			<point x="528" y="296" type="line"/>
			<point x="535" y="335" type="line"/>
			<point x="518" y="337"/>
			<point x="500" y="339"/>
			<point x="483" y="341" type="curve"/>
			<point x="494" y="422"/>
			<point x="503" y="499"/>
			<point x="517" y="561" type="curve"/>
			<point x="551" y="577"/>
			<point x="576" y="601"/>
			<point x="576" y="630" type="curve" smooth="yes"/>
			<point x="576" y="647"/>
			<point x="561" y="666"/>
			<point x="542" y="674" type="curve"/>
			<point x="536" y="676"/>
			<point x="529" y="678"/>
			<point x="522" y="678" type="curve" smooth="yes"/>
			<point x="489" y="678"/>
			<point x="464" y="658"/>
			<point x="443" y="624" type="curve"/>
			<point x="393" y="640"/>
			<point x="346" y="663"/>
			<point x="292" y="663" type="curve" smooth="yes"/>
			<point x="218" y="663"/>
			<point x="137" y="629"/>
			<point x="124" y="558" type="curve" smooth="yes"/>
			<point x="123" y="552"/>
			<point x="122" y="545"/>
			<point x="122" y="538" type="curve" smooth="yes"/>
			<point x="122" y="502"/>
			<point x="144" y="474"/>
			<point x="180" y="474" type="curve" smooth="yes"/>
			<point x="205" y="474"/>
			<point x="231" y="484"/>
			<point name=".hr01" x="240" y="504" type="curve"/>
			<point x="243" y="509"/>
			<point x="244" y="515"/>
			<point x="244" y="521" type="curve" smooth="yes"/>
			<point x="244" y="547"/>
			<point x="225" y="568"/>
			<point name=".hr02" x="205" y="577" type="curve"/>
			<point x="212" y="587"/>
			<point x="226" y="592"/>
			<point name=".hr03" x="240" y="592" type="curve" smooth="yes"/>
			<point x="276" y="592"/>
			<point x="318" y="567"/>
			<point x="365" y="552" type="curve"/>
			<point x="372" y="550"/>
			<point x="379" y="548"/>
			<point x="386" y="546" type="curve" smooth="yes"/>
			<point x="393" y="544"/>
			<point x="400" y="543"/>
			<point x="407" y="542" type="curve"/>
			<point x="407" y="542" type="line"/>
			<point x="390" y="491"/>
			<point x="376" y="428"/>
			<point x="363" y="362" type="curve"/>
			<point x="358" y="340" type="line"/>
		</contour>
	</outline>
</glyph>
<glyph name="K" format="2">
	<unicode hex="004B"/>
	<advance width="706"/>
	<outline>
		<contour>
			<point x="211" y="523" type="curve" smooth="yes"/>
			<point x="133" y="122" type="line"/>
			<point x="121" y="51"/>
			<point x="101" y="38"/>
			<point x="36" y="32" type="curve"/>
			<point x="25" y="26"/>
			<point x="21" y="4"/>
			<point x="29" y="-2" type="curve"/>
			<point x="64" y="-1"/>
			<point x="125" y="0"/>
			<point x="165" y="0" type="curve" smooth="yes"/>
			<point x="177" y="0" type="line" smooth="yes"/>
			<point x="215" y="0"/>
			<point x="285" y="-1"/>
			<point x="323" y="-2" type="curve"/>
			<point x="334" y="4"/>
			<point x="337" y="26"/>
			<point x="329" y="32" type="curve"/>
			<point x="286" y="37"/>
			<point x="262" y="44"/>
			<point x="262" y="81" type="curve" smooth="yes"/>
			<point x="262" y="92"/>
			<point x="264" y="105"/>
			<point x="267" y="122" type="curve" smooth="yes"/>
			<point x="345" y="523" type="line" smooth="yes"/>
			<point x="359" y="593"/>
			<point x="377" y="609"/>
			<point x="442" y="613" type="curve"/>
			<point x="453" y="619"/>
			<point x="457" y="641"/>
			<point x="449" y="647" type="curve"/>
			<point x="410" y="646"/>
			<point x="341" y="645"/>
			<point x="303" y="645" type="curve" smooth="yes"/>
			<point x="291" y="645" type="line" smooth="yes"/>
			<point x="251" y="645"/>
			<point x="189" y="646"/>
			<point x="155" y="647" type="curve"/>
			<point x="144" y="641"/>
			<point x="140" y="619"/>
			<point x="148" y="613" type="curve"/>
			<point x="196" y="609"/>
			<point x="215" y="594"/>
			<point x="215" y="563" type="curve" smooth="yes"/>
			<point x="215" y="552"/>
			<point x="214" y="539"/>
		</contour>
		<contour>
			<point x="282" y="308" type="line"/>
			<point x="324" y="311"/>
			<point x="333" y="301"/>
			<point x="349" y="271" type="curve" smooth="yes"/>
			<point x="456" y="74" type="line" smooth="yes"/>
			<point x="467" y="54"/>
			<point x="477" y="28"/>
			<point x="477" y="4" type="curve" smooth="yes"/>
			<point x="477" y="1"/>
			<point x="477" y="-2"/>
			<point x="481" y="-2" type="curve"/>
			<point x="495" y="-1"/>
			<point x="531" y="0"/>
			<point x="561" y="0" type="curve" smooth="yes"/>
			<point x="587" y="0" type="line" smooth="yes"/>
			<point x="622" y="0"/>
			<point x="658" y="0"/>
			<point x="693" y="-2" type="curve"/>
			<point x="699" y="3"/>
			<point x="703" y="24"/>
			<point x="699" y="32" type="curve"/>
			<point x="667" y="39"/>
			<point x="653" y="44"/>
			<point x="633" y="74" type="curve"/>
			<point x="473" y="333" type="line" smooth="yes"/>
			<point x="466" y="344"/>
			<point x="453" y="366"/>
			<point x="453" y="376" type="curve" smooth="yes"/>
			<point x="453" y="388"/>
			<point x="458" y="398"/>
			<point x="470" y="407" type="curve" smooth="yes"/>
			<point x="645" y="545" type="line" smooth="yes"/>
			<point x="689" y="580"/>
			<point x="728" y="606"/>
			<point x="782" y="613" type="curve"/>
			<point x="788" y="618"/>
			<point x="790" y="640"/>
			<point x="788" y="647" type="curve"/>
			<point x="743" y="646"/>
			<point x="735" y="645"/>
			<point x="697" y="645" type="curve" smooth="yes"/>
			<point x="683" y="645" type="line" smooth="yes"/>
			<point x="650" y="645"/>
			<point x="618" y="646"/>
			<point x="579" y="647" type="curve"/>
			<point x="574" y="643"/>
			<point x="569" y="623"/>
			<point x="572" y="613" type="curve"/>
			<point x="607" y="609"/>
			<point x="617" y="605"/>
			<point x="617" y="591" type="curve" smooth="yes"/>
			<point x="617" y="577"/>
			<point x="604" y="559"/>
			<point x="560" y="525" type="curve" smooth="yes"/>
			<point x="367" y="376" type="line" smooth="yes"/>
			<point x="342" y="357"/>
			<point x="321" y="352"/>
			<point x="299" y="350" type="curve"/>
		</contour>
	</outline>
	<anchor name="t.uni0302" x="494" y="740"/>
	<guideline x="410" y="407" angle="42.6368"/>
</glyph>
<glyph name="O" format="2">
	<unicode hex="004F"/>
	<advance width="699"/>
	<outline>
		<contour>
			<point x="88" y="249" type="curve" smooth="yes"/>
			<point x="88" y="84"/>
			<point x="204" y="-10"/>
			<point x="356" y="-10" type="curve" smooth="yes"/>
			<point x="570" y="-10"/>
			<point x="737" y="175"/>
			<point x="737" y="404" type="curve" smooth="yes"/>
			<point x="737" y="560"/>
			<point x="629" y="658"/>
			<point x="479" y="658" type="curve" smooth="yes"/>
			<point x="260" y="658"/>
			<point x="88" y="449"/>
		</contour>
		<contour>
			<point x="233" y="220" type="curve" smooth="yes"/>
			<point x="233" y="346"/>
			<point x="297" y="616"/>
			<point x="458" y="616" type="curve" smooth="yes"/>
			<point x="537" y="616"/>
			<point x="592" y="550"/>
			<point x="592" y="423" type="curve" smooth="yes"/>
			<point x="592" y="216"/>
			<point x="494" y="32"/>
			<point x="367" y="32" type="curve" smooth="yes"/>
			<point x="289" y="32"/>
			<point x="233" y="102"/>
		</contour>
	</outline>
	<anchor name="t.uni0302" x="486" y="740"/>
	<anchor name="b.uni0328" x="400" y="30"/>
</glyph>
<glyph name="P" format="2">
	<unicode hex="0050"/>
	<advance width="588"/>
	<outline>
		<contour>
			<point x="459" y="658" type="curve" smooth="yes"/>
			<point x="402" y="658"/>
			<point name=".hr01" x="345" y="647"/>
			<point x="288" y="647" type="curve" smooth="yes"/>
			<point x="228" y="647"/>
			<point x="172" y="647"/>
			<point x="155" y="647" type="curve"/>
			<point x="144" y="641"/>
			<point x="140" y="619"/>
			<point x="148" y="613" type="curve"/>
			<point x="184" y="609" type="line" smooth="yes"/>
			<point x="210" y="606"/>
			<point x="216" y="586"/>
			<point x="216" y="563" type="curve" smooth="yes"/>
			<point x="216" y="552"/>
			<point x="214" y="539"/>
			<point x="211" y="523" type="curve" smooth="yes"/>
			<point x="133" y="122" type="line"/>
			<point x="119" y="59"/>
			<point x="108" y="36"/>
			<point x="36" y="32" type="curve"/>
			<point x="25" y="26"/>
			<point x="21" y="4"/>
			<point x="29" y="-2" type="curve"/>
			<point x="78" y="-1"/>
			<point x="128" y="0"/>
			<point x="177" y="0" type="curve" smooth="yes"/>
			<point x="215" y="0"/>
			<point x="285" y="-1"/>
			<point x="323" y="-2" type="curve"/>
			<point x="334" y="4"/>
			<point x="337" y="26"/>
			<point x="329" y="32" type="curve"/>
			<point x="295" y="34"/>
			<point x="251" y="40"/>
			<point x="259" y="81" type="curve" smooth="yes"/>
			<point x="345" y="524" type="line" smooth="yes"/>
			<point x="358" y="592"/>
			<point name=".hr02" x="373" y="617"/>
			<point x="420" y="617" type="curve" smooth="yes"/>
			<point x="467" y="617"/>
			<point x="517" y="596"/>
			<point x="517" y="517" type="curve" smooth="yes"/>
			<point x="517" y="427"/>
			<point x="484" y="319"/>
			<point x="376" y="319" type="curve" smooth="yes"/>
			<point x="359" y="319"/>
			<point x="346" y="320"/>
			<point x="329" y="322" type="curve"/>
			<point x="325" y="303"/>
			<point x="328" y="289"/>
			<point x="340" y="280" type="curve"/>
			<point x="353" y="278"/>
			<point x="364" y="277"/>
			<point x="373" y="277" type="curve" smooth="yes"/>
			<point x="525" y="277"/>
			<point x="663" y="348"/>
			<point x="663" y="518" type="curve" smooth="yes"/>
			<point x="663" y="636"/>
			<point x="553" y="658"/>
		</contour>
	</outline>
	<anchor name="t.uni0302" x="385" y="740"/>
</glyph>
<glyph name="T" format="2">
	<unicode hex="0054"/>
	<advance width="625"/>
	<outline>
		<contour>
			<point x="413" y="123" type="curve" smooth="yes"/>
			<point x="432" y="222"/>
			<point x="472" y="426"/>
			<point x="487" y="503" type="curve" smooth="yes"/>
			<point x="499" y="567"/>
			<point x="515" y="605"/>
			<point x="550" y="605" type="curve" smooth="yes"/>
			<point x="555" y="605"/>
			<point x="567" y="605"/>
			<point x="572" y="605" type="curve" smooth="yes"/>
			<point x="644" y="605"/>
			<point x="679" y="579"/>
			<point x="680" y="502" type="curve"/>
			<point x="691" y="502"/>
			<point x="710" y="503"/>
			<point x="719" y="507" type="curve"/>
			<point x="721" y="553"/>
			<point x="726" y="605"/>
			<point x="734" y="650" type="curve"/>
			<point x="734" y="651"/>
			<point x="733" y="653"/>
			<point x="732" y="653" type="curve"/>
			<point x="699" y="650"/>
			<point x="591" y="645"/>
			<point x="515" y="645" type="curve" smooth="yes"/>
			<point x="380" y="645" type="line" smooth="yes"/>
			<point x="306" y="645"/>
			<point x="194" y="650"/>
			<point x="158" y="653" type="curve"/>
			<point x="156" y="653"/>
			<point x="153" y="651"/>
			<point x="153" y="650" type="curve"/>
			<point x="140" y="605"/>
			<point x="121" y="552"/>
			<point x="101" y="504" type="curve"/>
			<point x="110" y="500"/>
			<point x="125" y="499"/>
			<point x="137" y="499" type="curve"/>
			<point x="172" y="579"/>
			<point x="217" y="605"/>
			<point x="280" y="605" type="curve" smooth="yes"/>
			<point x="293" y="605"/>
			<point x="317" y="605"/>
			<point x="327" y="605" type="curve" smooth="yes"/>
			<point x="363" y="605"/>
			<point x="365" y="567"/>
			<point x="353" y="506" type="curve" smooth="yes"/>
			<point x="340" y="441"/>
			<point x="296" y="217"/>
			<point x="278" y="123" type="curve" smooth="yes"/>
			<point x="262" y="40"/>
			<point x="244" y="35"/>
			<point x="167" y="32" type="curve"/>
			<point x="160" y="26"/>
			<point x="156" y="4"/>
			<point x="161" y="-2" type="curve"/>
			<point x="208" y="-1"/>
			<point x="259" y="0"/>
			<point x="320" y="0" type="curve" smooth="yes"/>
			<point x="383" y="0"/>
			<point x="433" y="-1"/>
			<point x="481" y="-2" type="curve"/>
			<point x="488" y="4"/>
			<point x="493" y="26"/>
			<point x="488" y="32" type="curve"/>
			<point x="412" y="35"/>
			<point x="397" y="40"/>
		</contour>
	</outline>
</glyph>
<glyph name="asciicircum" format="2">
	<unicode hex="005E"/>
	<advance width="518"/>
	<outline>
		<contour>
			<point x="328" y="569" type="line"/>
			<point x="364" y="346" type="line"/>
			<point x="418" y="346" type="line"/>
			<point x="366" y="650" type="line"/>
			<point x="327" y="650" type="line"/>
			<point x="140" y="346" type="line"/>
			<point x="194" y="346" type="line"/>
		</contour>
	</outline>
</glyph>
<glyph name="grave" format="2">
	<unicode hex="0060"/>
	<advance width="319"/>
	<outline>
		<contour>
			<point x="254" y="669" type="line"/>
			<point x="251" y="670"/>
			<point x="243" y="671"/>
			<point x="238" y="671" type="curve" smooth="yes"/>
			<point x="207" y="671"/>
			<point x="184" y="653"/>
			<point x="178" y="642" type="curve"/>
			<point x="178" y="624" type="line"/>
			<point x="313" y="516" type="line" smooth="yes"/>
			<point x="328" y="504"/>
			<point x="343" y="500"/>
			<point x="353" y="500" type="curve" smooth="yes"/>
			<point x="361" y="500"/>
			<point x="367" y="507"/>
			<point x="367" y="514" type="curve" smooth="yes"/>
			<point x="367" y="520"/>
			<point x="363" y="529"/>
			<point x="356" y="538" type="curve" smooth="yes"/>
		</contour>
	</outline>
	<guideline x="347" y="535" angle="308.99"/>
	<guideline x="313" y="520" angle="140.87"/>
	<guideline x="0" y="500" angle="0"/>
</glyph>
<glyph name="a" format="2">
	<unicode hex="0061"/>
	<advance width="518"/>
	<outline>
		<contour>
			<point x="477" y="439" type="curve" smooth="yes"/>
			<point x="471" y="439"/>
			<point x="459" y="437"/>
			<point x="452" y="435" type="curve"/>
			<point x="444" y="432"/>
			<point x="431" y="430"/>
			<point x="416" y="430" type="curve" smooth="yes"/>
			<point x="406" y="430"/>
			<point x="393" y="431"/>
			<point x="380" y="434" type="curve"/>
			<point x="367" y="438"/>
			<point x="353" y="439"/>
			<point x="341" y="439" type="curve" smooth="yes"/>
			<point x="184" y="439"/>
			<point x="46" y="265"/>
			<point x="46" y="118" type="curve" smooth="yes"/>
			<point x="46" y="49"/>
			<point x="76" y="-10"/>
			<point x="147" y="-10" type="curve" smooth="yes"/>
			<point x="204" y="-10"/>
			<point x="253" y="29"/>
			<point x="318" y="127" type="curve"/>
			<point x="322" y="125" type="line"/>
			<point x="317" y="107" type="line" smooth="yes"/>
			<point x="313" y="91"/>
			<point x="309" y="64"/>
			<point x="309" y="48" type="curve" smooth="yes"/>
			<point x="309" y="13"/>
			<point x="324" y="-10"/>
			<point x="362" y="-10" type="curve" smooth="yes"/>
			<point x="434" y="-10"/>
			<point x="496" y="26"/>
			<point x="540" y="82" type="curve"/>
			<point x="537" y="91"/>
			<point x="525" y="110"/>
			<point x="511" y="110" type="curve"/>
			<point x="485" y="80"/>
			<point x="451" y="63"/>
			<point x="441" y="63" type="curve" smooth="yes"/>
			<point x="433" y="63"/>
			<point x="430" y="71"/>
			<point x="430" y="80" type="curve" smooth="yes"/>
			<point x="430" y="87"/>
			<point x="432" y="99"/>
			<point x="437" y="124" type="curve" smooth="yes"/>
			<point x="479" y="320" type="line" smooth="yes"/>
			<point x="491" y="374"/>
			<point x="493" y="384"/>
			<point x="500" y="415" type="curve"/>
			<point x="500" y="429"/>
			<point x="492" y="439"/>
		</contour>
		<contour>
			<point x="336" y="226" type="curve"/>
			<point x="287" y="136"/>
			<point x="247" y="85"/>
			<point x="209" y="85" type="curve" smooth="yes"/>
			<point x="184" y="85"/>
			<point x="171" y="108"/>
			<point x="171" y="144" type="curve" smooth="yes"/>
			<point x="171" y="221"/>
			<point x="229" y="397"/>
			<point x="335" y="397" type="curve" smooth="yes"/>
			<point x="355" y="397"/>
			<point x="366" y="391"/>
			<point x="368" y="378" type="curve"/>
			<point x="366" y="326"/>
			<point x="361" y="290"/>
		</contour>
	</outline>
	<anchor name="t.uni0302" x="385" y="500"/>
</glyph>
<glyph name="b" format="2">
	<unicode hex="0062"/>
	<advance width="521"/>
	<outline>
		<contour>
			<point x="256" y="266" type="line"/>
			<point x="312" y="332"/>
			<point x="344" y="352"/>
			<point x="389" y="352" type="curve" smooth="yes"/>
			<point x="419" y="352"/>
			<point x="422" y="319"/>
			<point x="422" y="299" type="curve" smooth="yes"/>
			<point x="422" y="217"/>
			<point x="369" y="32"/>
			<point x="265" y="32" type="curve" smooth="yes"/>
			<point x="238" y="32"/>
			<point x="227" y="44"/>
			<point x="227" y="74" type="curve" smooth="yes"/>
			<point x="227" y="87"/>
			<point x="229" y="105"/>
			<point x="234" y="127" type="curve" smooth="yes"/>
			<point x="334" y="583" type="line" smooth="yes"/>
			<point x="343" y="622"/>
			<point x="353" y="657"/>
			<point x="362" y="680" type="curve"/>
			<point x="362" y="691"/>
			<point x="357" y="698"/>
			<point x="343" y="698" type="curve"/>
			<point x="303" y="688"/>
			<point x="204" y="674"/>
			<point x="153" y="672" type="curve"/>
			<point x="149" y="661"/>
			<point x="148" y="651"/>
			<point x="148" y="638" type="curve"/>
			<point x="201" y="636"/>
			<point x="217" y="628"/>
			<point x="217" y="603" type="curve" smooth="yes"/>
			<point x="217" y="593"/>
			<point x="215" y="580"/>
			<point x="211" y="563" type="curve" smooth="yes"/>
			<point x="109" y="118" type="line"/>
			<point x="107" y="108"/>
			<point x="105" y="95"/>
			<point x="105" y="82" type="curve" smooth="yes"/>
			<point x="105" y="34"/>
			<point x="135" y="-10"/>
			<point x="211" y="-10" type="curve" smooth="yes"/>
			<point x="389" y="-10"/>
			<point x="551" y="147"/>
			<point x="551" y="320" type="curve" smooth="yes"/>
			<point x="551" y="369"/>
			<point x="538" y="439"/>
			<point x="457" y="439" type="curve" smooth="yes"/>
			<point x="383" y="439"/>
			<point x="323" y="382"/>
			<point x="282" y="335" type="curve"/>
			<point x="256" y="335" type="line"/>
		</contour>
	</outline>
</glyph>
<glyph name="c" format="2">
	<unicode hex="0063"/>
	<advance width="434"/>
	<outline>
		<contour>
			<point x="421" y="87" type="curve"/>
			<point x="421" y="98"/>
			<point x="408" y="118"/>
			<point x="400" y="118" type="curve"/>
			<point x="356" y="81"/>
			<point x="323" y="66"/>
			<point x="292" y="66" type="curve" smooth="yes"/>
			<point x="239" y="66"/>
			<point x="204" y="110"/>
			<point x="204" y="184" type="curve" smooth="yes"/>
			<point x="204" y="284"/>
			<point x="267" y="397"/>
			<point x="328" y="397" type="curve" smooth="yes"/>
			<point x="350" y="397"/>
			<point x="369" y="381"/>
			<point x="369" y="358" type="curve" smooth="yes"/>
			<point x="369" y="346"/>
			<point x="364" y="334"/>
			<point x="364" y="321" type="curve" smooth="yes"/>
			<point x="364" y="296"/>
			<point x="383" y="279"/>
			<point x="409" y="279" type="curve" smooth="yes"/>
			<point x="446" y="279"/>
			<point x="476" y="314"/>
			<point x="476" y="354" type="curve" smooth="yes"/>
			<point x="476" y="405"/>
			<point x="427" y="439"/>
			<point x="354" y="439" type="curve" smooth="yes"/>
			<point x="206" y="439"/>
			<point x="72" y="300"/>
			<point x="72" y="143" type="curve" smooth="yes"/>
			<point x="72" y="41"/>
			<point x="128" y="-10"/>
			<point x="235" y="-10" type="curve" smooth="yes"/>
			<point x="295" y="-10"/>
			<point x="373" y="31"/>
		</contour>
	</outline>
</glyph>
<glyph name="e" format="2">
	<unicode hex="0065"/>
	<advance width="409"/>
	<outline>
		<contour>
			<point x="177" y="199" type="curve"/>
			<point x="376" y="241"/>
			<point x="440" y="283"/>
			<point x="440" y="368" type="curve" smooth="yes"/>
			<point x="440" y="403"/>
			<point x="399" y="439"/>
			<point x="313" y="439" type="curve" smooth="yes"/>
			<point x="124" y="439"/>
			<point x="47" y="268"/>
			<point x="47" y="135" type="curve" smooth="yes"/>
			<point x="47" y="57"/>
			<point x="73" y="-10"/>
			<point x="193" y="-10" type="curve" smooth="yes"/>
			<point x="260" y="-10"/>
			<point x="338" y="23"/>
			<point x="397" y="99" type="curve"/>
			<point x="392" y="110"/>
			<point x="377" y="124"/>
			<point x="365" y="124" type="curve"/>
			<point x="308" y="66"/>
			<point x="277" y="50"/>
			<point x="229" y="50" type="curve" smooth="yes"/>
			<point x="190" y="50"/>
			<point x="176" y="98"/>
			<point x="176" y="165" type="curve" smooth="yes"/>
			<point x="176" y="170"/>
			<point x="176" y="191"/>
		</contour>
		<contour>
			<point x="327" y="361" type="curve" smooth="yes"/>
			<point x="327" y="279"/>
			<point x="237" y="245"/>
			<point x="184" y="236" type="curve"/>
			<point x="218" y="377"/>
			<point x="256" y="397"/>
			<point x="293" y="397" type="curve" smooth="yes"/>
			<point x="316" y="397"/>
			<point x="327" y="389"/>
		</contour>
	</outline>
	<anchor name="t.uni0302" x="335" y="500"/>
</glyph>
<glyph name="h" format="2">
	<unicode hex="0068"/>
	<advance width="620"/>
	<outline>
		<contour>
			<point x="219" y="47" type="curve" smooth="yes"/>
			<point x="338" y="583" type="line" smooth="yes"/>
			<point x="347" y="623"/>
			<point x="353" y="652"/>
			<point x="363" y="679" type="curve"/>
			<point x="363" y="692"/>
			<point x="353" y="698"/>
			<point x="340" y="698" type="curve"/>
			<point x="296" y="685"/>
			<point x="204" y="675"/>
			<point x="157" y="672" type="curve"/>
			<point x="152" y="665"/>
			<point x="149" y="648"/>
			<point x="152" y="638" type="curve"/>
			<point x="198" y="635"/>
			<point x="220" y="624"/>
			<point x="220" y="601" type="curve" smooth="yes"/>
			<point x="220" y="594"/>
			<point x="218" y="580"/>
			<point x="214" y="563" type="curve" smooth="yes"/>
			<point x="93" y="29" type="line" smooth="yes"/>
			<point x="88" y="6"/>
			<point x="110" y="0"/>
			<point x="125" y="0" type="curve" smooth="yes"/>
			<point x="162" y="0" type="line" smooth="yes"/>
			<point x="190" y="0"/>
			<point x="211" y="11"/>
		</contour>
		<contour>
			<point x="247" y="214" type="line"/>
			<point x="316" y="303"/>
			<point x="370" y="369"/>
			<point x="416" y="369" type="curve" smooth="yes"/>
			<point x="429" y="369"/>
			<point x="443" y="364"/>
			<point x="443" y="328" type="curve" smooth="yes"/>
			<point x="443" y="319"/>
			<point x="442" y="309"/>
			<point x="434" y="275" type="curve" smooth="yes"/>
			<point x="397" y="115" type="line" smooth="yes"/>
			<point x="389" y="80"/>
			<point x="387" y="63"/>
			<point x="387" y="49" type="curve" smooth="yes"/>
			<point x="387" y="17"/>
			<point x="398" y="-10"/>
			<point x="439" y="-10" type="curve" smooth="yes"/>
			<point x="509" y="-10"/>
			<point x="578" y="23"/>
			<point x="624" y="82" type="curve"/>
			<point x="621" y="91"/>
			<point x="609" y="110"/>
			<point x="595" y="110" type="curve"/>
			<point x="569" y="80"/>
			<point x="535" y="63"/>
			<point x="525" y="63" type="curve" smooth="yes"/>
			<point x="518" y="63"/>
			<point x="515" y="70"/>
			<point x="515" y="81" type="curve" smooth="yes"/>
			<point x="515" y="88"/>
			<point x="516" y="101"/>
			<point x="521" y="124" type="curve" smooth="yes"/>
			<point x="559" y="283" type="line" smooth="yes"/>
			<point x="567" y="318"/>
			<point x="572" y="341"/>
			<point x="572" y="359" type="curve" smooth="yes"/>
			<point x="572" y="412"/>
			<point x="531" y="439"/>
			<point x="478" y="439" type="curve" smooth="yes"/>
			<point x="429" y="439"/>
			<point x="360" y="416"/>
			<point x="263" y="298" type="curve"/>
		</contour>
	</outline>
</glyph>
<glyph name="j" format="2">
	<unicode hex="006A"/>
	<advance width="330"/>
	<outline>
		<contour>
			<point x="141" y="176" type="line" smooth="yes"/>
			<point x="121" y="78"/>
			<point x="114" y="16"/>
			<point x="96" y="-56" type="curve" smooth="yes"/>
			<point x="74" y="-142"/>
			<point x="58" y="-172"/>
			<point x="34" y="-172" type="curve" smooth="yes"/>
			<point x="-3" y="-172"/>
			<point x="10" y="-99"/>
			<point x="-56" y="-99" type="curve" smooth="yes"/>
			<point x="-74" y="-99"/>
			<point x="-95" y="-114"/>
			<point x="-95" y="-144" type="curve" smooth="yes"/>
			<point x="-95" y="-191"/>
			<point x="-44" y="-207"/>
			<point x="15" y="-207" type="curve" smooth="yes"/>
			<point x="184" y="-207"/>
			<point x="225" y="-8"/>
			<point x="277" y="235" type="curve"/>
			<point x="293" y="320" type="line" smooth="yes"/>
			<point x="301" y="360"/>
			<point x="314" y="398"/>
			<point x="314" y="415" type="curve" smooth="yes"/>
			<point x="314" y="429"/>
			<point x="306" y="436"/>
			<point x="293" y="436" type="curve" smooth="yes"/>
			<point x="261" y="436"/>
			<point x="168" y="429"/>
			<point x="121" y="423" type="curve"/>
			<point x="114" y="415"/>
			<point x="113" y="394"/>
			<point x="119" y="385" type="curve"/>
			<point x="159" y="382" type="line" smooth="yes"/>
			<point x="171" y="381"/>
			<point x="177" y="372"/>
			<point x="177" y="362" type="curve" smooth="yes"/>
			<point x="177" y="353"/>
			<point x="177" y="349"/>
			<point x="171" y="321" type="curve" smooth="yes"/>
		</contour>
		<contour>
			<point x="204" y="596" type="curve" smooth="yes"/>
			<point x="204" y="563"/>
			<point x="228" y="530"/>
			<point x="268" y="530" type="curve" smooth="yes"/>
			<point x="313" y="530"/>
			<point x="339" y="566"/>
			<point x="339" y="592" type="curve" smooth="yes"/>
			<point x="339" y="622"/>
			<point x="316" y="658"/>
			<point x="274" y="658" type="curve" smooth="yes"/>
			<point x="227" y="658"/>
			<point x="204" y="626"/>
		</contour>
	</outline>
</glyph>
<glyph name="o" format="2">
	<unicode hex="006F"/>
	<advance width="479"/>
	<outline>
		<contour>
			<point x="333" y="439" type="line"/>
			<point x="460" y="439"/>
			<point x="499" y="331"/>
			<point x="499" y="267" type="curve" smooth="yes"/>
			<point x="499" y="126"/>
			<point x="368" y="-10"/>
			<point x="228" y="-10" type="curve"/>
			<point x="278" y="42" type="line"/>
			<point x="329" y="42"/>
			<point x="368" y="127"/>
			<point x="368" y="239" type="curve" smooth="yes"/>
			<point x="368" y="359"/>
			<point x="310" y="387"/>
			<point x="283" y="387" type="curve"/>
		</contour>
		<contour>
			<point x="228" y="-10" type="line"/>
			<point x="101" y="-10"/>
			<point x="62" y="98"/>
			<point x="62" y="162" type="curve" smooth="yes"/>
			<point x="62" y="303"/>
			<point x="193" y="439"/>
			<point x="333" y="439" type="curve"/>
			<point x="283" y="387" type="line"/>
			<point x="232" y="387"/>
			<point x="193" y="302"/>
			<point x="193" y="190" type="curve" smooth="yes"/>
			<point x="193" y="70"/>
			<point x="251" y="42"/>
			<point x="278" y="42" type="curve"/>
		</contour>
	</outline>
	<anchor name="t.uni0302" x="334" y="500"/>
	<anchor name="b.uni0328" x="300" y="34"/>
	<guideline x="0" y="500" angle="0"/>
	<guideline x="228" y="3" angle="78"/>
</glyph>
<glyph name="t" format="2">
	<unicode hex="0074"/>
	<advance width="367"/>
	<outline>
		<contour>
			<point x="118" y="118" type="line" smooth="yes"/>
			<point x="113" y="95"/>
			<point x="108" y="68"/>
			<point x="108" y="47" type="curve" smooth="yes"/>
			<point x="108" y="13"/>
			<point x="123" y="-10"/>
			<point x="159" y="-10" type="curve" smooth="yes"/>
			<point x="229" y="-10"/>
			<point x="295" y="30"/>
			<point x="345" y="85" type="curve"/>
			<point x="342" y="94"/>
			<point x="330" y="113"/>
			<point x="316" y="113" type="curve"/>
			<point x="290" y="83"/>
			<point x="256" y="66"/>
			<point x="246" y="66" type="curve" smooth="yes"/>
			<point x="238" y="66"/>
			<point x="235" y="74"/>
			<point x="235" y="84" type="curve" smooth="yes"/>
			<point x="235" y="97"/>
			<point x="239" y="113"/>
			<point x="242" y="127" type="curve" smooth="yes"/>
			<point x="302" y="382" type="line"/>
			<point x="400" y="382" type="line"/>
			<point x="412" y="387"/>
			<point x="422" y="421"/>
			<point x="411" y="429" type="curve"/>
			<point x="312" y="429" type="line"/>
			<point x="322" y="474" type="line" smooth="yes"/>
			<point x="326" y="492"/>
			<point x="342" y="552"/>
			<point x="342" y="564" type="curve" smooth="yes"/>
			<point x="342" y="581"/>
			<point x="277" y="569"/>
			<point x="246" y="561" type="curve" smooth="yes"/>
			<point x="211" y="552"/>
			<point x="212" y="517"/>
			<point x="202" y="479" type="curve" smooth="yes"/>
			<point x="189" y="429" type="line"/>
			<point x="136" y="426" type="line" smooth="yes"/>
			<point x="117" y="425"/>
			<point x="110" y="417"/>
			<point x="108" y="409" type="curve"/>
			<point x="107" y="406"/>
			<point x="103" y="386"/>
			<point x="103" y="384" type="curve" smooth="yes"/>
			<point x="103" y="382"/>
			<point x="106" y="382"/>
			<point x="109" y="382" type="curve" smooth="yes"/>
			<point x="179" y="382" type="line"/>
		</contour>
	</outline>
</glyph>
<glyph name="u" format="2">
	<unicode hex="0075"/>
	<advance width="616"/>
	<outline>
		<contour>
			<point x="428" y="225" type="line"/>
			<point x="362" y="131"/>
			<point x="317" y="76"/>
			<point x="277" y="76" type="curve" smooth="yes"/>
			<point x="252" y="76"/>
			<point x="242" y="97"/>
			<point x="242" y="123" type="curve" smooth="yes"/>
			<point x="242" y="134"/>
			<point x="244" y="146"/>
			<point x="247" y="158" type="curve" smooth="yes"/>
			<point x="293" y="356" type="line"/>
			<point x="297" y="371"/>
			<point x="301" y="388"/>
			<point x="301" y="400" type="curve" smooth="yes"/>
			<point x="301" y="429"/>
			<point x="279" y="443"/>
			<point x="238" y="443" type="curve" smooth="yes"/>
			<point x="172" y="443"/>
			<point x="100" y="407"/>
			<point x="54" y="348" type="curve"/>
			<point x="57" y="339"/>
			<point x="72" y="323"/>
			<point x="86" y="323" type="curve"/>
			<point x="112" y="353"/>
			<point x="146" y="370"/>
			<point x="156" y="370" type="curve" smooth="yes"/>
			<point x="164" y="370"/>
			<point x="167" y="362"/>
			<point x="167" y="353" type="curve" smooth="yes"/>
			<point x="167" y="343"/>
			<point x="163" y="322"/>
			<point x="160" y="309" type="curve" smooth="yes"/>
			<point x="122" y="150" type="line" smooth="yes"/>
			<point x="116" y="125"/>
			<point x="114" y="101"/>
			<point x="114" y="76" type="curve" smooth="yes"/>
			<point x="114" y="19"/>
			<point x="160" y="-6"/>
			<point x="210" y="-6" type="curve" smooth="yes"/>
			<point x="258" y="-6"/>
			<point x="317" y="19"/>
			<point x="420" y="145" type="curve"/>
		</contour>
		<contour>
			<point x="404" y="122" type="line"/>
			<point x="398" y="103"/>
			<point x="393" y="76"/>
			<point x="393" y="53" type="curve" smooth="yes"/>
			<point x="393" y="18"/>
			<point x="405" y="-10"/>
			<point x="446" y="-10" type="curve" smooth="yes"/>
			<point x="516" y="-10"/>
			<point x="578" y="23"/>
			<point x="624" y="82" type="curve"/>
			<point x="621" y="91"/>
			<point x="609" y="110"/>
			<point x="595" y="110" type="curve"/>
			<point x="569" y="80"/>
			<point x="535" y="63"/>
			<point x="525" y="63" type="curve" smooth="yes"/>
			<point x="517" y="63"/>
			<point x="514" y="71"/>
			<point x="514" y="81" type="curve" smooth="yes"/>
			<point x="514" y="90"/>
			<point x="516" y="101"/>
			<point x="521" y="124" type="curve" smooth="yes"/>
			<point x="573" y="361" type="line"/>
			<point x="576" y="377"/>
			<point x="582" y="404"/>
			<point x="582" y="411" type="curve" smooth="yes"/>
			<point x="582" y="436"/>
			<point x="561" y="443"/>
			<point x="526" y="443" type="curve" smooth="yes"/>
			<point x="482" y="443"/>
			<point x="467" y="428"/>
			<point x="459" y="394" type="curve" smooth="yes"/>
			<point x="393" y="123" type="line"/>
		</contour>
	</outline>
	<anchor name="t.uni0302" x="393" y="500"/>
	<guideline x="431" y="357" angle="255.231"/>
	<guideline x="450" y="124" angle="76.2005"/>
	<guideline x="208" y="151" angle="75.2218"/>
</glyph>
<glyph name="x" format="2">
	<unicode hex="0078"/>
	<advance width="517"/>
	<outline>
		<contour>
			<point x="197" y="334" type="curve"/>
			<point x="197" y="334"/>
			<point x="202" y="323"/>
			<point x="209" y="307" type="curve" smooth="yes"/>
			<point x="222" y="277"/>
			<point x="242" y="230"/>
			<point x="254" y="196" type="curve"/>
			<point x="234" y="161"/>
			<point x="204" y="124"/>
			<point x="180" y="92" type="curve" smooth="yes"/>
			<point x="173" y="83"/>
			<point x="167" y="76"/>
			<point x="162" y="72" type="curve" smooth="yes"/>
			<point x="157" y="68"/>
			<point x="153" y="66"/>
			<point x="150" y="66" type="curve" smooth="yes"/>
			<point x="146" y="66"/>
			<point x="142" y="68"/>
			<point name=".hr01" x="137" y="70" type="curve"/>
			<point x="130" y="74"/>
			<point x="121" y="80"/>
			<point x="111" y="84" type="curve"/>
			<point x="101" y="89"/>
			<point name=".hr02" x="89" y="93"/>
			<point x="75" y="93" type="curve" smooth="yes"/>
			<point x="38" y="93"/>
			<point x="27" y="72"/>
			<point x="27" y="44" type="curve" smooth="yes"/>
			<point x="27" y="40"/>
			<point x="27" y="36"/>
			<point x="28" y="33" type="curve"/>
			<point x="34" y="9"/>
			<point name=".hr03" x="61" y="-6"/>
			<point name=".hr04" x="86" y="-9" type="curve"/>
			<point name=".hr05" x="90" y="-10"/>
			<point x="93" y="-10"/>
			<point x="97" y="-10" type="curve" smooth="yes"/>
			<point x="146" y="-10"/>
			<point x="162" y="-1"/>
			<point x="217" y="61" type="curve" smooth="yes"/>
			<point x="230" y="76"/>
			<point x="253" y="107"/>
			<point x="271" y="134" type="curve"/>
			<point x="290" y="76" type="line" smooth="yes"/>
			<point x="294" y="64"/>
			<point x="298" y="52"/>
			<point x="303" y="41" type="curve" smooth="yes"/>
			<point x="317" y="10"/>
			<point x="333" y="-10"/>
			<point x="364" y="-10" type="curve" smooth="yes"/>
			<point x="367" y="-10"/>
			<point x="369" y="-10"/>
			<point x="372" y="-10" type="curve"/>
			<point name=".hr06" x="412" y="-9"/>
			<point x="455" y="4"/>
			<point x="512" y="67" type="curve"/>
			<point x="504" y="76"/>
			<point x="496" y="84"/>
			<point x="488" y="93" type="curve"/>
			<point x="464" y="69"/>
			<point name=".hr07" x="449" y="66"/>
			<point x="434" y="66" type="curve" smooth="yes"/>
			<point x="426" y="66"/>
			<point x="419" y="74"/>
			<point x="412" y="90" type="curve" smooth="yes"/>
			<point x="350" y="234" type="line"/>
			<point x="425" y="336" type="line" smooth="yes"/>
			<point x="436" y="351"/>
			<point x="447" y="354"/>
			<point x="451" y="354" type="curve" smooth="yes"/>
			<point x="455" y="354"/>
			<point name=".hr08" x="468" y="350"/>
			<point name=".hr09" x="476" y="345" type="curve"/>
			<point x="482" y="341"/>
			<point x="492" y="337"/>
			<point x="502" y="334" type="curve" smooth="yes"/>
			<point x="509" y="332"/>
			<point x="516" y="331"/>
			<point x="522" y="331" type="curve" smooth="yes"/>
			<point x="529" y="331"/>
			<point x="535" y="333"/>
			<point name=".hr10" x="540" y="336" type="curve" smooth="yes"/>
			<point x="557" y="346"/>
			<point x="568" y="368"/>
			<point x="568" y="390" type="curve" smooth="yes"/>
			<point x="568" y="394"/>
			<point x="568" y="397"/>
			<point x="567" y="400" type="curve"/>
			<point x="561" y="422"/>
			<point name=".hr11" x="536" y="435"/>
			<point name=".hr12" x="510" y="437" type="curve"/>
			<point name=".hr13" x="506" y="438"/>
			<point x="503" y="438"/>
			<point x="499" y="438" type="curve" smooth="yes"/>
			<point x="442" y="438"/>
			<point x="408" y="401"/>
			<point x="374" y="353" type="curve" smooth="yes"/>
			<point x="369" y="346"/>
			<point x="365" y="340"/>
			<point x="360" y="333" type="curve"/>
			<point x="360" y="333"/>
			<point x="344" y="311"/>
			<point x="336" y="299" type="curve"/>
			<point x="310" y="372" type="line" smooth="yes"/>
			<point x="291" y="423"/>
			<point x="284" y="439"/>
			<point x="259" y="439" type="curve" smooth="yes"/>
			<point x="253" y="439"/>
			<point x="245" y="438"/>
			<point name=".hr14" x="236" y="435" type="curve"/>
			<point x="193" y="424"/>
			<point x="125" y="390"/>
			<point x="95" y="373" type="curve"/>
			<point x="96" y="362"/>
			<point x="104" y="342"/>
			<point x="112" y="334" type="curve"/>
			<point x="124" y="340"/>
			<point x="147" y="351"/>
			<point x="168" y="351" type="curve" smooth="yes"/>
			<point x="171" y="351"/>
			<point x="174" y="351"/>
			<point x="177" y="350" type="curve"/>
			<point x="186" y="348"/>
			<point x="193" y="342"/>
		</contour>
	</outline>
</glyph>
<glyph name="y" format="2">
	<unicode hex="0079"/>
	<advance width="514"/>
	<outline>
		<contour>
			<point x="181" y="338" type="curve" smooth="yes"/>
			<point x="185" y="332"/>
			<point x="189" y="323"/>
			<point x="194" y="310" type="curve"/>
			<point x="226" y="217"/>
			<point x="264" y="-36"/>
			<point x="252" y="-62" type="curve"/>
			<point x="211" y="-129"/>
			<point x="182" y="-152"/>
			<point x="166" y="-152" type="curve" smooth="yes"/>
			<point x="155" y="-152"/>
			<point x="130" y="-135"/>
			<point x="123" y="-128" type="curve"/>
			<point x="115" y="-119"/>
			<point name=".hr01" x="92" y="-108"/>
			<point x="83" y="-108" type="curve" smooth="yes"/>
			<point x="59" y="-108"/>
			<point x="31" y="-135"/>
			<point x="31" y="-179" type="curve" smooth="yes"/>
			<point x="31" y="-216"/>
			<point x="67" y="-237"/>
			<point x="100" y="-237" type="curve" smooth="yes"/>
			<point x="156" y="-237"/>
			<point x="237" y="-179"/>
			<point x="298" y="-87" type="curve"/>
			<point x="302" y="-82"/>
			<point x="305" y="-76"/>
			<point x="309" y="-70" type="curve"/>
			<point x="344" y="-13" type="line" smooth="yes"/>
			<point x="396" y="72"/>
			<point x="448" y="157"/>
			<point x="500" y="242" type="curve"/>
			<point x="508" y="254"/>
			<point x="514" y="266"/>
			<point x="520" y="277" type="curve" smooth="yes"/>
			<point x="543" y="320"/>
			<point x="551" y="354"/>
			<point x="551" y="393" type="curve" smooth="yes"/>
			<point x="551" y="422"/>
			<point x="523" y="435"/>
			<point x="499" y="438" type="curve"/>
			<point x="495" y="439"/>
			<point x="490" y="439"/>
			<point x="486" y="439" type="curve" smooth="yes"/>
			<point x="465" y="439"/>
			<point x="429" y="432"/>
			<point x="429" y="410" type="curve" smooth="yes"/>
			<point x="429" y="396"/>
			<point x="433" y="384"/>
			<point x="439" y="373" type="curve"/>
			<point x="446" y="358"/>
			<point name=".hr02" x="456" y="345"/>
			<point x="456" y="332" type="curve"/>
			<point x="456" y="332"/>
			<point x="456" y="332"/>
			<point x="456" y="332" type="curve"/>
			<point x="456" y="310"/>
			<point x="452" y="269"/>
			<point x="424" y="222" type="curve" smooth="yes"/>
			<point x="413" y="204"/>
			<point x="402" y="186"/>
			<point x="391" y="168" type="curve"/>
			<point x="375" y="140"/>
			<point x="358" y="113"/>
			<point x="342" y="86" type="curve"/>
			<point x="338" y="87" type="line"/>
			<point x="332" y="180"/>
			<point x="325" y="262"/>
			<point x="300" y="365" type="curve" smooth="yes"/>
			<point x="298" y="374"/>
			<point x="295" y="382"/>
			<point x="293" y="389" type="curve"/>
			<point x="281" y="424"/>
			<point x="269" y="439"/>
			<point x="248" y="439" type="curve" smooth="yes"/>
			<point x="242" y="439"/>
			<point x="233" y="437"/>
			<point x="224" y="435" type="curve"/>
			<point x="180" y="423"/>
			<point x="110" y="389"/>
			<point x="81" y="372" type="curve"/>
			<point x="82" y="361"/>
			<point x="90" y="341"/>
			<point x="98" y="333" type="curve"/>
			<point x="110" y="339"/>
			<point x="136" y="351"/>
			<point x="157" y="351" type="curve" smooth="yes"/>
			<point x="170" y="351"/>
			<point x="174" y="349"/>
		</contour>
	</outline>
	<anchor name="t.uni0302" x="386" y="500"/>
</glyph>
<glyph name="bar" format="2">
	<unicode hex="007C"/>
	<advance width="220"/>
	<outline>
		<contour>
			<point x="126" y="-233" type="line"/>
			<point x="257" y="698" type="line"/>
			<point x="200" y="698" type="line"/>
			<point x="69" y="-233" type="line"/>
		</contour>
	</outline>
</glyph>
<glyph name="asciitilde" format="2">
	<unicode hex="007E"/>
	<advance width="449"/>
	<outline>
		<contour>
			<point x="63" y="209" type="curve"/>
			<point x="67" y="204"/>
			<point x="76" y="202"/>
			<point x="85" y="206" type="curve"/>
			<point x="116" y="250"/>
			<point x="162" y="263"/>
			<point x="197" y="263" type="curve" smooth="yes"/>
			<point x="249" y="263"/>
			<point name=".hr01" x="282" y="198"/>
			<point x="335" y="198" type="curve" smooth="yes"/>
			<point x="359" y="198"/>
			<point x="426" y="226"/>
			<point x="476" y="333" type="curve"/>
			<point x="469" y="339"/>
			<point x="461" y="341"/>
			<point x="450" y="339" type="curve"/>
			<point x="419" y="289"/>
			<point x="377" y="287"/>
			<point x="349" y="287" type="curve" smooth="yes"/>
			<point x="304" y="287"/>
			<point name=".hr02" x="259" y="352"/>
			<point x="213" y="352" type="curve" smooth="yes"/>
			<point x="153" y="352"/>
			<point x="87" y="274"/>
		</contour>
	</outline>
</glyph>
<glyph name="exclamdown" format="2">
	<unicode hex="00A1"/>
	<advance width="266"/>
	<outline>
		<contour>
			<point x="89" y="-224" type="curve" smooth="yes"/>
			<point x="118" y="-224"/>
			<point x="161" y="-205"/>
			<point x="173" y="-149" type="curve" smooth="yes"/>
			<point x="179" y="-121"/>
			<point x="180" y="-98"/>
			<point x="181" y="-75" type="curve"/>
			<point x="182" y="-66"/>
			<point x="182" y="-56"/>
			<point x="182" y="-46" type="curve" smooth="yes"/>
			<point x="182" y="-42"/>
			<point x="182" y="-37"/>
			<point x="183" y="-32" type="curve"/>
			<point x="184" y="-9"/>
			<point x="186" y="19"/>
			<point x="189" y="47" type="curve" smooth="yes"/>
			<point x="194" y="104"/>
			<point x="200" y="162"/>
			<point x="206" y="192" type="curve"/>
			<point x="208" y="206"/>
			<point x="210" y="217"/>
			<point x="210" y="226" type="curve"/>
			<point x="210" y="226" type="line"/>
			<point x="209" y="234"/>
			<point x="207" y="241"/>
			<point x="201" y="244" type="curve"/>
			<point x="198" y="245"/>
			<point x="194" y="246"/>
			<point x="189" y="246" type="curve" smooth="yes"/>
			<point x="179" y="246"/>
			<point x="171" y="240"/>
			<point x="165" y="232" type="curve"/>
			<point x="160" y="224"/>
			<point x="156" y="214"/>
			<point x="154" y="204" type="curve" smooth="yes"/>
			<point x="147" y="171"/>
			<point x="129" y="116"/>
			<point x="108" y="54" type="curve" smooth="yes"/>
			<point x="97" y="23"/>
			<point x="85" y="-10"/>
			<point x="73" y="-43" type="curve" smooth="yes"/>
			<point x="61" y="-76"/>
			<point x="45" y="-114"/>
			<point x="38" y="-149" type="curve"/>
			<point x="35" y="-162"/>
			<point x="35" y="-173"/>
			<point x="37" y="-182" type="curve"/>
			<point x="41" y="-211"/>
			<point x="64" y="-224"/>
		</contour>
		<contour>
			<point x="284" y="376" type="curve" smooth="yes"/>
			<point x="284" y="380"/>
			<point x="284" y="384"/>
			<point x="283" y="387" type="curve"/>
			<point name=".hr01" x="278" y="416"/>
			<point x="254" y="438"/>
			<point x="224" y="443" type="curve"/>
			<point x="220" y="444"/>
			<point x="216" y="444"/>
			<point x="212" y="444" type="curve" smooth="yes"/>
			<point x="172" y="444"/>
			<point x="138" y="412"/>
			<point x="138" y="374" type="curve" smooth="yes"/>
			<point x="138" y="370"/>
			<point x="138" y="366"/>
			<point x="139" y="363" type="curve"/>
			<point x="144" y="333"/>
			<point x="168" y="311"/>
			<point x="198" y="306" type="curve"/>
			<point x="202" y="305"/>
			<point x="206" y="305"/>
			<point x="210" y="305" type="curve" smooth="yes"/>
			<point x="250" y="305"/>
			<point x="284" y="337"/>
		</contour>
	</outline>
</glyph>
<glyph name="currency" format="2">
	<unicode hex="00A4"/>
	<advance width="463"/>
	<outline>
		<contour>
			<point x="245" y="122" type="curve" smooth="yes"/>
			<point x="282" y="122"/>
			<point x="316" y="132"/>
			<point x="348" y="149" type="curve"/>
			<point x="383" y="91" type="line"/>
			<point x="446" y="149" type="line"/>
			<point x="435" y="162"/>
			<point x="419" y="180"/>
			<point x="407" y="193" type="curve"/>
			<point x="439" y="228"/>
			<point x="460" y="263"/>
			<point x="468" y="299" type="curve" smooth="yes"/>
			<point x="471" y="312"/>
			<point x="472" y="324"/>
			<point x="471" y="336" type="curve"/>
			<point x="471" y="360"/>
			<point x="464" y="383"/>
			<point x="451" y="406" type="curve"/>
			<point x="513" y="451" type="line"/>
			<point x="471" y="512" type="line"/>
			<point x="458" y="498"/>
			<point x="429" y="470"/>
			<point x="410" y="451" type="curve"/>
			<point x="386" y="467"/>
			<point x="360" y="477"/>
			<point x="323" y="477" type="curve"/>
			<point x="323" y="477"/>
			<point x="323" y="477"/>
			<point x="323" y="477" type="curve"/>
			<point x="286" y="477"/>
			<point x="253" y="468"/>
			<point x="221" y="452" type="curve"/>
			<point x="186" y="507" type="line"/>
			<point x="122" y="450" type="line"/>
			<point x="134" y="437"/>
			<point x="150" y="421"/>
			<point x="162" y="409" type="curve"/>
			<point x="128" y="374"/>
			<point x="106" y="338"/>
			<point x="98" y="299" type="curve" smooth="yes"/>
			<point x="95" y="286"/>
			<point x="94" y="274"/>
			<point x="95" y="262" type="curve"/>
			<point x="95" y="238"/>
			<point x="102" y="214"/>
			<point x="115" y="191" type="curve"/>
			<point x="56" y="148" type="line"/>
			<point x="101" y="89" type="line"/>
			<point x="114" y="103"/>
			<point x="140" y="129"/>
			<point x="157" y="147" type="curve"/>
			<point x="180" y="131"/>
			<point x="209" y="122"/>
		</contour>
		<contour>
			<point x="174" y="300" type="curve"/>
			<point x="189" y="369"/>
			<point x="250" y="422"/>
			<point x="311" y="422" type="curve" smooth="yes"/>
			<point x="359" y="422"/>
			<point x="398" y="382"/>
			<point x="395" y="322" type="curve"/>
			<point x="395" y="315"/>
			<point x="394" y="307"/>
			<point x="392" y="299" type="curve"/>
			<point x="377" y="231"/>
			<point x="320" y="177"/>
			<point x="257" y="177" type="curve" smooth="yes"/>
			<point x="202" y="177"/>
			<point x="167" y="219"/>
			<point x="171" y="277" type="curve"/>
			<point x="171" y="285"/>
			<point x="172" y="292"/>
		</contour>
	</outline>
</glyph>
<glyph name="yen" format="2">
	<unicode hex="00A5"/>
	<advance width="540"/>
	<outline>
		<contour>
			<point x="493" y="177" type="line"/>
			<point x="371" y="177" type="line"/>
			<point x="386" y="245" type="line"/>
			<point x="507" y="245" type="line"/>
			<point x="516" y="287" type="line"/>
			<point x="395" y="287" type="line"/>
			<point x="401" y="312"/>
			<point x="406" y="323"/>
			<point x="425" y="351" type="curve" smooth="yes"/>
			<point x="533" y="510" type="line"/>
			<point x="536" y="515"/>
			<point x="539" y="519"/>
			<point x="542" y="524" type="curve"/>
			<point x="562" y="548"/>
			<point x="582" y="561"/>
			<point x="611" y="566" type="curve"/>
			<point x="611" y="566" type="line"/>
			<point x="616" y="567"/>
			<point x="621" y="568"/>
			<point x="626" y="568" type="curve"/>
			<point x="628" y="570"/>
			<point x="630" y="574"/>
			<point x="632" y="578" type="curve"/>
			<point x="635" y="587"/>
			<point x="637" y="598"/>
			<point x="634" y="602" type="curve"/>
			<point x="634" y="602" type="line"/>
			<point x="605" y="601"/>
			<point x="577" y="600"/>
			<point x="555" y="600" type="curve" smooth="yes"/>
			<point x="534" y="600"/>
			<point x="498" y="601"/>
			<point x="461" y="602" type="curve"/>
			<point x="459" y="600"/>
			<point x="457" y="596"/>
			<point x="455" y="592" type="curve"/>
			<point x="453" y="587"/>
			<point x="452" y="583"/>
			<point x="452" y="578" type="curve"/>
			<point x="451" y="574"/>
			<point x="452" y="570"/>
			<point x="453" y="568" type="curve"/>
			<point x="461" y="567"/>
			<point x="469" y="567"/>
			<point x="475" y="566" type="curve"/>
			<point x="475" y="566" type="line"/>
			<point x="494" y="563"/>
			<point x="502" y="558"/>
			<point x="499" y="546" type="curve"/>
			<point x="499" y="542"/>
			<point x="496" y="537"/>
			<point x="493" y="531" type="curve"/>
			<point x="493" y="531"/>
			<point x="493" y="531"/>
			<point x="493" y="531" type="curve"/>
			<point x="393" y="370" type="line" smooth="yes"/>
			<point x="386" y="359"/>
			<point x="381" y="353"/>
			<point x="376" y="354" type="curve"/>
			<point x="372" y="355"/>
			<point x="368" y="361"/>
			<point x="365" y="373" type="curve" smooth="yes"/>
			<point x="328" y="531" type="line"/>
			<point x="328" y="531"/>
			<point x="328" y="531"/>
			<point x="328" y="531" type="curve"/>
			<point x="326" y="539"/>
			<point x="325" y="545"/>
			<point x="327" y="551" type="curve"/>
			<point x="328" y="556"/>
			<point x="333" y="560"/>
			<point x="341" y="562" type="curve"/>
			<point x="349" y="565"/>
			<point x="361" y="567"/>
			<point x="379" y="568" type="curve"/>
			<point x="384" y="572"/>
			<point x="387" y="583"/>
			<point x="388" y="592" type="curve"/>
			<point x="388" y="592" type="line"/>
			<point x="388" y="596"/>
			<point x="388" y="600"/>
			<point x="386" y="602" type="curve"/>
			<point x="349" y="601"/>
			<point x="312" y="600"/>
			<point x="274" y="600" type="curve" smooth="yes"/>
			<point x="266" y="600"/>
			<point x="256" y="600"/>
			<point x="246" y="600" type="curve" smooth="yes"/>
			<point x="211" y="600"/>
			<point x="168" y="601"/>
			<point x="146" y="602" type="curve"/>
			<point x="144" y="600"/>
			<point x="142" y="596"/>
			<point x="140" y="592" type="curve"/>
			<point x="139" y="587"/>
			<point x="138" y="583"/>
			<point x="138" y="578" type="curve" smooth="yes"/>
			<point x="138" y="574"/>
			<point x="138" y="570"/>
			<point x="140" y="568" type="curve"/>
			<point x="145" y="568"/>
			<point x="149" y="567"/>
			<point x="153" y="566" type="curve"/>
			<point x="153" y="566" type="line"/>
			<point x="158" y="565"/>
			<point x="162" y="564"/>
			<point x="165" y="562" type="curve"/>
			<point x="180" y="555"/>
			<point x="191" y="544"/>
			<point x="200" y="525" type="curve" smooth="yes"/>
			<point x="204" y="516"/>
			<point x="208" y="505"/>
			<point x="211" y="492" type="curve"/>
			<point x="260" y="332" type="line"/>
			<point x="266" y="309"/>
			<point x="270" y="297"/>
			<point x="270" y="287" type="curve"/>
			<point x="159" y="287" type="line"/>
			<point x="150" y="245" type="line"/>
			<point x="264" y="245" type="line"/>
			<point x="249" y="177" type="line"/>
			<point x="135" y="177" type="line"/>
			<point x="126" y="135" type="line"/>
			<point x="240" y="135" type="line"/>
			<point x="237" y="122" type="line"/>
			<point x="234" y="107"/>
			<point x="231" y="94"/>
			<point x="227" y="84" type="curve"/>
			<point x="217" y="53"/>
			<point x="204" y="41"/>
			<point x="177" y="36" type="curve"/>
			<point x="168" y="35"/>
			<point x="158" y="34"/>
			<point x="146" y="33" type="curve"/>
			<point x="140" y="33"/>
			<point x="134" y="32"/>
			<point x="127" y="32" type="curve"/>
			<point x="125" y="30"/>
			<point x="123" y="26"/>
			<point x="121" y="22" type="curve"/>
			<point x="120" y="17"/>
			<point x="119" y="13"/>
			<point x="118" y="8" type="curve"/>
			<point x="118" y="4"/>
			<point x="119" y="0"/>
			<point x="120" y="-2" type="curve"/>
			<point x="166" y="-1"/>
			<point x="218" y="0"/>
			<point x="280" y="0" type="curve" smooth="yes"/>
			<point x="337" y="0"/>
			<point x="378" y="-1"/>
			<point x="424" y="-2" type="curve"/>
			<point x="424" y="-2" type="line"/>
			<point x="429" y="2"/>
			<point x="432" y="13"/>
			<point x="433" y="22" type="curve"/>
			<point x="434" y="26"/>
			<point x="433" y="30"/>
			<point x="432" y="32" type="curve"/>
			<point x="425" y="32"/>
			<point x="419" y="33"/>
			<point x="413" y="33" type="curve"/>
			<point x="401" y="34"/>
			<point x="392" y="35"/>
			<point x="383" y="36" type="curve"/>
			<point x="359" y="41"/>
			<point x="351" y="53"/>
			<point x="354" y="84" type="curve" smooth="yes"/>
			<point x="355" y="94"/>
			<point x="357" y="107"/>
			<point x="360" y="122" type="curve"/>
			<point x="361" y="126"/>
			<point x="362" y="131"/>
			<point x="362" y="135" type="curve"/>
			<point x="484" y="135" type="line"/>
		</contour>
	</outline>
</glyph>
<glyph name="brokenbar" format="2">
	<unicode hex="00A6"/>
	<advance width="220"/>
	<outline>
		<contour>
			<point x="175" y="161" type="line"/>
			<point x="119" y="161" type="line"/>
			<point x="42" y="-201" type="line"/>
			<point x="98" y="-201" type="line"/>
		</contour>
		<contour>
			<point x="284" y="674" type="line"/>
			<point x="228" y="674" type="line"/>
			<point x="151" y="312" type="line"/>
			<point x="207" y="312" type="line"/>
		</contour>
	</outline>
</glyph>
<glyph name="copyright" format="2">
	<unicode hex="00A9"/>
	<advance width="633"/>
	<outline>
		<contour>
			<point x="317" y="23" type="curve" smooth="yes"/>
			<point x="489" y="23"/>
			<point x="642" y="182"/>
			<point x="642" y="360" type="curve" smooth="yes"/>
			<point x="642" y="492"/>
			<point x="558" y="588"/>
			<point x="421" y="588" type="curve" smooth="yes"/>
			<point x="247" y="588"/>
			<point x="97" y="433"/>
			<point x="97" y="254" type="curve" smooth="yes"/>
			<point x="97" y="118"/>
			<point x="184" y="23"/>
		</contour>
		<contour>
			<point x="419" y="559" type="curve" smooth="yes"/>
			<point x="536" y="559"/>
			<point x="612" y="474"/>
			<point x="612" y="354" type="curve" smooth="yes"/>
			<point x="612" y="193"/>
			<point x="477" y="52"/>
			<point x="324" y="52" type="curve" smooth="yes"/>
			<point x="203" y="52"/>
			<point x="127" y="139"/>
			<point x="127" y="255" type="curve" smooth="yes"/>
			<point x="127" y="413"/>
			<point x="266" y="559"/>
		</contour>
		<contour>
			<point x="467" y="217" type="curve"/>
			<point x="465" y="223"/>
			<point x="462" y="229"/>
			<point x="454" y="232" type="curve"/>
			<point x="442" y="217"/>
			<point x="420" y="197"/>
			<point x="381" y="197" type="curve" smooth="yes"/>
			<point x="341" y="197"/>
			<point x="325" y="218"/>
			<point x="325" y="257" type="curve" smooth="yes"/>
			<point x="325" y="309"/>
			<point x="352" y="416"/>
			<point x="414" y="416" type="curve" smooth="yes"/>
			<point x="455" y="416"/>
			<point x="463" y="401"/>
			<point x="474" y="356" type="curve"/>
			<point x="481" y="356"/>
			<point x="487" y="356"/>
			<point x="492" y="359" type="curve"/>
			<point x="495" y="381"/>
			<point x="497" y="405"/>
			<point x="499" y="436" type="curve"/>
			<point x="474" y="437"/>
			<point x="449" y="450"/>
			<point x="413" y="450" type="curve" smooth="yes"/>
			<point x="319" y="450"/>
			<point x="244" y="358"/>
			<point x="244" y="267" type="curve" smooth="yes"/>
			<point x="244" y="200"/>
			<point x="286" y="158"/>
			<point x="349" y="158" type="curve" smooth="yes"/>
			<point x="402" y="158"/>
			<point x="444" y="187"/>
		</contour>
	</outline>
</glyph>
<glyph name="guillemotleft" format="2">
	<unicode hex="00AB"/>
	<advance width="555"/>
	<outline>
		<contour>
			<point x="314" y="207" type="line"/>
			<point x="321" y="198"/>
			<point x="328" y="190"/>
			<point x="335" y="182" type="curve" smooth="yes"/>
			<point x="375" y="134"/>
			<point x="406" y="95"/>
			<point x="448" y="23" type="curve"/>
			<point x="458" y="26"/>
			<point x="473" y="35"/>
			<point x="480" y="45" type="curve"/>
			<point x="459" y="121"/>
			<point x="439" y="176"/>
			<point x="418" y="215" type="curve"/>
			<point x="456" y="254"/>
			<point x="499" y="310"/>
			<point x="552" y="385" type="curve"/>
			<point x="550" y="395"/>
			<point x="538" y="404"/>
			<point x="530" y="407" type="curve"/>
			<point x="455" y="333"/>
			<point x="406" y="294"/>
			<point x="343" y="244" type="curve"/>
			<point x="335" y="237"/>
			<point x="326" y="230"/>
			<point x="317" y="223" type="curve"/>
		</contour>
		<contour>
			<point x="137" y="207" type="line"/>
			<point x="144" y="198"/>
			<point x="151" y="190"/>
			<point x="158" y="182" type="curve" smooth="yes"/>
			<point x="198" y="134"/>
			<point x="229" y="95"/>
			<point x="271" y="23" type="curve"/>
			<point x="281" y="26"/>
			<point x="296" y="35"/>
			<point x="303" y="45" type="curve"/>
			<point x="282" y="121"/>
			<point x="262" y="176"/>
			<point x="242" y="215" type="curve"/>
			<point x="279" y="254"/>
			<point x="322" y="310"/>
			<point x="375" y="385" type="curve"/>
			<point x="373" y="395"/>
			<point x="361" y="404"/>
			<point x="353" y="407" type="curve"/>
			<point x="278" y="333"/>
			<point x="230" y="294"/>
			<point x="167" y="244" type="curve"/>
			<point x="159" y="237"/>
			<point x="150" y="230"/>
			<point x="141" y="223" type="curve"/>
		</contour>
	</outline>
</glyph>
<glyph name="logicalnot" format="2">
	<unicode hex="00AC"/>
	<advance width="560"/>
	<outline>
		<contour>
			<point x="477" y="133" type="line"/>
			<point x="546" y="133" type="line"/>
			<point x="603" y="401" type="line"/>
			<point x="121" y="401" type="line"/>
			<point x="109" y="347" type="line"/>
			<point x="522" y="347" type="line"/>
		</contour>
	</outline>
</glyph>
<glyph name="registered" format="2">
	<unicode hex="00AE"/>
	<advance width="633"/>
	<outline>
		<contour>
			<point x="310" y="23" type="curve" smooth="yes"/>
			<point x="457" y="23"/>
			<point x="602" y="150"/>
			<point x="635" y="306" type="curve" smooth="yes"/>
			<point x="668" y="462"/>
			<point x="577" y="588"/>
			<point x="430" y="588" type="curve" smooth="yes"/>
			<point x="283" y="588"/>
			<point x="137" y="462"/>
			<point x="104" y="306" type="curve" smooth="yes"/>
			<point x="71" y="151"/>
			<point x="162" y="23"/>
		</contour>
		<contour>
			<point x="423" y="557" type="curve" smooth="yes"/>
			<point x="554" y="557"/>
			<point x="636" y="445"/>
			<point x="606" y="306" type="curve" smooth="yes"/>
			<point x="577" y="167"/>
			<point x="446" y="55"/>
			<point x="317" y="55" type="curve" smooth="yes"/>
			<point x="185" y="55"/>
			<point x="104" y="168"/>
			<point x="133" y="306" type="curve" smooth="yes"/>
			<point x="163" y="445"/>
			<point x="292" y="557"/>
		</contour>
		<contour>
			<point x="484" y="372" type="curve" smooth="yes"/>
			<point x="490" y="402"/>
			<point x="481" y="447"/>
			<point x="410" y="447" type="curve" smooth="yes"/>
			<point x="341" y="447"/>
			<point x="305" y="445"/>
			<point x="284" y="442" type="curve"/>
			<point x="282" y="429" type="line"/>
			<point x="281" y="425"/>
			<point x="283" y="423"/>
			<point x="290" y="423" type="curve"/>
			<point x="305" y="424" type="line"/>
			<point x="308" y="424"/>
			<point x="307" y="418"/>
			<point x="306" y="413" type="curve" smooth="yes"/>
			<point x="260" y="195" type="line"/>
			<point x="259" y="188"/>
			<point x="256" y="187"/>
			<point x="251" y="187" type="curve" smooth="yes"/>
			<point x="240" y="187" type="line" smooth="yes"/>
			<point x="233" y="187"/>
			<point x="229" y="185"/>
			<point x="228" y="181" type="curve"/>
			<point x="225" y="167" type="line"/>
			<point x="278" y="169" type="line"/>
			<point x="291" y="169"/>
			<point x="342" y="167"/>
			<point x="342" y="167" type="curve"/>
			<point x="344" y="181" type="line"/>
			<point x="345" y="185"/>
			<point x="343" y="187"/>
			<point x="335" y="187" type="curve" smooth="yes"/>
			<point x="324" y="187" type="line" smooth="yes"/>
			<point x="318" y="187"/>
			<point x="318" y="189"/>
			<point x="319" y="194" type="curve" smooth="yes"/>
			<point x="338" y="285" type="line"/>
			<point x="343" y="285"/>
			<point x="360" y="284"/>
			<point x="363" y="282" type="curve"/>
			<point x="392" y="204" type="line"/>
			<point x="397" y="178"/>
			<point x="420" y="166"/>
			<point x="448" y="166" type="curve" smooth="yes"/>
			<point name=".hr01" x="452" y="166"/>
			<point x="460" y="167"/>
			<point x="470" y="170" type="curve"/>
			<point x="473" y="183" type="line"/>
			<point x="458" y="183"/>
			<point x="449" y="192"/>
			<point x="442" y="214" type="curve" smooth="yes"/>
			<point x="414" y="296" type="line"/>
			<point x="414" y="296"/>
			<point x="473" y="320"/>
		</contour>
		<contour>
			<point x="426" y="372" type="curve" smooth="yes"/>
			<point x="412" y="310"/>
			<point x="373" y="309"/>
			<point x="344" y="309" type="curve"/>
			<point x="368" y="424" type="line"/>
			<point x="373" y="426"/>
			<point x="385" y="427"/>
			<point x="395" y="427" type="curve" smooth="yes"/>
			<point x="427" y="427"/>
			<point name=".hr02" x="433" y="406"/>
		</contour>
	</outline>
</glyph>
<glyph name="plusminus" format="2">
	<unicode hex="00B1"/>
	<advance width="527"/>
	<outline>
		<contour>
			<point x="389" y="374" type="line"/>
			<point x="423" y="538" type="line"/>
			<point x="346" y="538" type="line"/>
			<point x="311" y="374" type="line"/>
			<point x="154" y="374" type="line"/>
			<point x="139" y="300" type="line"/>
			<point x="295" y="300" type="line"/>
			<point x="261" y="137" type="line"/>
			<point x="338" y="137" type="line"/>
			<point x="373" y="300" type="line"/>
			<point x="530" y="300" type="line"/>
			<point x="545" y="374" type="line"/>
		</contour>
		<contour>
			<point x="490" y="87" type="line"/>
			<point x="95" y="87" type="line"/>
			<point x="74" y="8" type="line"/>
			<point x="469" y="8" type="line"/>
		</contour>
	</outline>
</glyph>
<glyph name="acute" format="2">
	<unicode hex="00B4"/>
	<advance width="341"/>
	<outline>
		<contour>
			<point x="279" y="669" type="curve"/>
			<point x="177" y="538" type="line" smooth="yes"/>
			<point x="170" y="529"/>
			<point x="167" y="520"/>
			<point x="166" y="514" type="curve" smooth="yes"/>
			<point x="165" y="508"/>
			<point x="172" y="500"/>
			<point x="180" y="500" type="curve" smooth="yes"/>
			<point x="190" y="500"/>
			<point x="205" y="504"/>
			<point x="220" y="516" type="curve" smooth="yes"/>
			<point x="355" y="624" type="line"/>
			<point x="355" y="645" type="line"/>
			<point x="341" y="659"/>
			<point x="317" y="671"/>
			<point x="295" y="671" type="curve" smooth="yes"/>
			<point x="290" y="671"/>
			<point x="282" y="670"/>
		</contour>
	</outline>
	<anchor name="_top" x="260" y="500"/>
	<guideline x="273" y="661" angle="231.009"/>
	<guideline x="339" y="629" angle="39.126"/>
</glyph>
<glyph name="mu" format="2">
	<unicode hex="00B5"/>
	<advance width="589"/>
	<outline>
		<contour>
			<point x="381" y="49" type="line"/>
			<point x="381" y="43"/>
			<point x="381" y="38"/>
			<point x="382" y="33" type="curve"/>
			<point x="382" y="28"/>
			<point x="383" y="23"/>
			<point x="385" y="19" type="curve"/>
			<point x="391" y="3"/>
			<point x="405" y="-6"/>
			<point x="425" y="-9" type="curve"/>
			<point x="430" y="-10"/>
			<point x="435" y="-10"/>
			<point x="441" y="-10" type="curve" smooth="yes"/>
			<point x="493" y="-10"/>
			<point x="538" y="11"/>
			<point x="580" y="46" type="curve"/>
			<point x="583" y="58"/>
			<point x="579" y="64"/>
			<point x="569" y="74" type="curve"/>
			<point x="555" y="64"/>
			<point x="545" y="60"/>
			<point x="527" y="60" type="curve" smooth="yes"/>
			<point x="523" y="60"/>
			<point x="519" y="61"/>
			<point x="516" y="62" type="curve"/>
			<point x="510" y="65"/>
			<point x="507" y="72"/>
			<point x="506" y="82" type="curve" smooth="yes"/>
			<point x="505" y="93"/>
			<point x="507" y="107"/>
			<point x="511" y="127" type="curve" smooth="yes"/>
			<point x="560" y="356" type="line" smooth="yes"/>
			<point x="566" y="387"/>
			<point x="573" y="417"/>
			<point x="579" y="448" type="curve"/>
			<point x="558" y="446"/>
			<point x="537" y="443"/>
			<point x="517" y="441" type="curve" smooth="yes"/>
			<point x="454" y="434" type="line"/>
			<point x="449" y="409"/>
			<point x="443" y="383"/>
			<point x="438" y="358" type="curve" smooth="yes"/>
			<point x="415" y="251" type="line"/>
			<point x="405" y="200"/>
			<point x="394" y="149"/>
			<point x="383" y="98" type="curve"/>
			<point x="356" y="68"/>
			<point x="304" y="53"/>
			<point x="266" y="53" type="curve"/>
			<point x="266" y="53"/>
			<point x="266" y="53"/>
			<point x="266" y="53" type="curve"/>
			<point x="233" y="53"/>
			<point x="235" y="97"/>
			<point x="248" y="160" type="curve" smooth="yes"/>
			<point x="287" y="343" type="line" smooth="yes"/>
			<point x="288" y="348"/>
			<point x="289" y="353"/>
			<point x="290" y="359" type="curve"/>
			<point x="297" y="394"/>
			<point x="306" y="447"/>
			<point x="306" y="447" type="curve"/>
			<point x="286" y="445"/>
			<point x="267" y="443"/>
			<point x="247" y="441" type="curve" smooth="yes"/>
			<point x="223" y="439"/>
			<point x="198" y="436"/>
			<point x="174" y="434" type="curve"/>
			<point x="174" y="434"/>
			<point x="166" y="348"/>
			<point x="161" y="323" type="curve" smooth="yes"/>
			<point x="124" y="153" type="line"/>
			<point x="121" y="137" type="line" smooth="yes"/>
			<point x="116" y="112"/>
			<point x="118" y="72"/>
			<point x="115" y="46" type="curve"/>
			<point x="112" y="26"/>
			<point x="110" y="10"/>
			<point x="107" y="-4" type="curve" smooth="yes"/>
			<point x="99" y="-40"/>
			<point x="88" y="-66"/>
			<point x="79" y="-92" type="curve" smooth="yes"/>
			<point x="70" y="-118"/>
			<point x="62" y="-142"/>
			<point x="57" y="-163" type="curve"/>
			<point x="56" y="-169"/>
			<point x="56" y="-175"/>
			<point x="56" y="-180" type="curve"/>
			<point x="60" y="-207"/>
			<point x="85" y="-225"/>
			<point x="102" y="-230" type="curve"/>
			<point x="105" y="-231"/>
			<point x="108" y="-232"/>
			<point x="111" y="-232" type="curve" smooth="yes"/>
			<point x="141" y="-232"/>
			<point x="175" y="-211"/>
			<point x="184" y="-168" type="curve" smooth="yes"/>
			<point x="188" y="-151"/>
			<point x="188" y="-122"/>
			<point x="188" y="-96" type="curve"/>
			<point x="189" y="-72"/>
			<point x="195" y="-46"/>
			<point x="200" y="-19" type="curve" smooth="yes"/>
			<point x="201" y="-14"/>
			<point x="202" y="-8"/>
			<point x="203" y="-3" type="curve"/>
			<point x="207" y="-5"/>
			<point x="211" y="-6"/>
			<point x="216" y="-7" type="curve"/>
			<point x="225" y="-10"/>
			<point x="235" y="-10"/>
			<point x="245" y="-10" type="curve" smooth="yes"/>
			<point x="297" y="-10"/>
			<point x="327" y="15"/>
			<point x="373" y="48" type="curve"/>
		</contour>
	</outline>
</glyph>
<glyph name="cedilla" format="2">
	<unicode hex="00B8"/>
	<advance width="541"/>
	<outline>
		<contour>
			<point x="236" y="-101" type="line"/>
			<point x="254" y="-102"/>
			<point x="276" y="-104"/>
			<point x="293" y="-110" type="curve" smooth="yes"/>
			<point x="310" y="-116"/>
			<point x="322" y="-126"/>
			<point x="319" y="-145" type="curve" smooth="yes"/>
			<point x="315" y="-172"/>
			<point x="294" y="-186"/>
			<point x="264" y="-186" type="curve" smooth="yes"/>
			<point x="244" y="-186"/>
			<point x="233" y="-182"/>
			<point x="207" y="-172" type="curve"/>
			<point x="198" y="-176"/>
			<point x="195" y="-188"/>
			<point x="194" y="-198" type="curve"/>
			<point x="217" y="-209"/>
			<point x="223" y="-215"/>
			<point x="255" y="-215" type="curve" smooth="yes"/>
			<point x="259" y="-215"/>
			<point x="263" y="-215"/>
			<point x="267" y="-215" type="curve"/>
			<point x="327" y="-210"/>
			<point x="378" y="-172"/>
			<point x="385" y="-125" type="curve"/>
			<point x="386" y="-120"/>
			<point x="386" y="-116"/>
			<point x="386" y="-112" type="curve" smooth="yes"/>
			<point x="386" y="-79"/>
			<point x="364" y="-61"/>
			<point x="336" y="-50" type="curve" smooth="yes"/>
			<point x="326" y="-46"/>
			<point x="315" y="-43"/>
			<point x="304" y="-41" type="curve"/>
			<point x="331" y="7" type="line"/>
			<point x="297" y="7" type="line"/>
			<point x="231" y="-95" type="line"/>
		</contour>
	</outline>
</glyph>
<glyph name="uni00B9" format="2">
	<unicode hex="00B9"/>
	<advance width="340"/>
	<outline>
		<contour>
			<point x="262" y="640" type="curve" smooth="yes"/>
			<point x="273" y="640"/>
			<point x="273" y="631"/>
			<point x="267" y="599" type="curve"/>
			<point x="235" y="449" type="line"/>
			<point x="235" y="449" type="line"/>
			<point x="228" y="418"/>
			<point x="215" y="405"/>
			<point x="197" y="399" type="curve" smooth="yes"/>
			<point x="185" y="395"/>
			<point x="171" y="394"/>
			<point x="156" y="393" type="curve"/>
			<point x="154" y="390"/>
			<point x="152" y="387"/>
			<point x="151" y="383" type="curve" smooth="yes"/>
			<point x="149" y="375"/>
			<point x="148" y="367"/>
			<point x="150" y="363" type="curve"/>
			<point x="178" y="364"/>
			<point x="225" y="364"/>
			<point x="258" y="364" type="curve" smooth="yes"/>
			<point x="294" y="364"/>
			<point x="323" y="364"/>
			<point x="351" y="363" type="curve"/>
			<point x="351" y="363" type="line"/>
			<point x="354" y="368"/>
			<point x="357" y="376"/>
			<point x="357" y="383" type="curve"/>
			<point x="358" y="387"/>
			<point x="358" y="390"/>
			<point x="357" y="393" type="curve"/>
			<point x="353" y="393"/>
			<point x="349" y="394"/>
			<point x="346" y="394" type="curve" smooth="yes"/>
			<point x="343" y="394"/>
			<point x="339" y="395"/>
			<point x="336" y="395" type="curve"/>
			<point x="321" y="399"/>
			<point x="313" y="407"/>
			<point x="315" y="432" type="curve"/>
			<point x="315" y="437"/>
			<point x="316" y="443"/>
			<point x="317" y="449" type="curve"/>
			<point x="374" y="714" type="line"/>
			<point x="371" y="717"/>
			<point x="361" y="718"/>
			<point x="353" y="716" type="curve"/>
			<point x="349" y="716"/>
			<point x="346" y="715"/>
			<point x="344" y="714" type="curve" smooth="yes"/>
			<point x="296" y="691"/>
			<point x="251" y="675"/>
			<point x="203" y="658" type="curve"/>
			<point x="200" y="646"/>
			<point x="199" y="631"/>
			<point x="205" y="625" type="curve"/>
			<point x="231" y="634"/>
			<point x="250" y="640"/>
		</contour>
	</outline>
</glyph>
<glyph name="onehalf" format="2">
	<unicode hex="00BD"/>
	<advance width="700"/>
	<outline>
		<contour>
			<point x="501" y="183" type="curve" smooth="yes"/>
			<point x="499" y="175"/>
			<point x="499" y="167"/>
			<point x="499" y="161" type="curve"/>
			<point x="500" y="148"/>
			<point x="507" y="140"/>
			<point x="524" y="140" type="curve" smooth="yes"/>
			<point x="544" y="140"/>
			<point x="564" y="153"/>
			<point x="570" y="169" type="curve"/>
			<point x="572" y="172"/>
			<point x="572" y="176"/>
			<point x="573" y="180" type="curve"/>
			<point x="574" y="185"/>
			<point x="575" y="190"/>
			<point x="576" y="195" type="curve"/>
			<point x="578" y="201"/>
			<point x="581" y="214"/>
			<point x="583" y="218" type="curve"/>
			<point x="590" y="231"/>
			<point x="602" y="236"/>
			<point x="622" y="236" type="curve" smooth="yes"/>
			<point x="630" y="236"/>
			<point x="642" y="231"/>
			<point x="645" y="221" type="curve"/>
			<point x="648" y="215"/>
			<point x="649" y="207"/>
			<point x="649" y="197" type="curve" smooth="yes"/>
			<point x="649" y="191"/>
			<point x="648" y="184"/>
			<point x="647" y="177" type="curve"/>
			<point x="647" y="173"/>
			<point x="646" y="169"/>
			<point x="645" y="165" type="curve" smooth="yes"/>
			<point x="640" y="143"/>
			<point x="624" y="114"/>
			<point x="594" y="90" type="curve" smooth="yes"/>
			<point x="584" y="82"/>
			<point x="574" y="74"/>
			<point x="564" y="66" type="curve" smooth="yes"/>
			<point x="552" y="56"/>
			<point x="539" y="46"/>
			<point x="527" y="36" type="curve" smooth="yes"/>
			<point x="488" y="2"/>
			<point x="456" y="-37"/>
			<point x="447" y="-79" type="curve"/>
			<point x="669" y="-79" type="line"/>
			<point x="684" y="-50"/>
			<point x="708" y="-5"/>
			<point x="720" y="34" type="curve"/>
			<point x="717" y="38"/>
			<point x="706" y="40"/>
			<point x="695" y="40" type="curve"/>
			<point x="679" y="10"/>
			<point x="649" y="-22"/>
			<point x="620" y="-22" type="curve" smooth="yes"/>
			<point x="617" y="-22"/>
			<point x="614" y="-22"/>
			<point x="610" y="-22" type="curve" smooth="yes"/>
			<point x="543" y="-22" type="line"/>
			<point x="547" y="-9"/>
			<point x="558" y="8"/>
			<point x="578" y="23" type="curve"/>
			<point x="589" y="32"/>
			<point x="601" y="41"/>
			<point x="612" y="49" type="curve"/>
			<point x="626" y="60" type="line" smooth="yes"/>
			<point x="647" y="76"/>
			<point x="673" y="98"/>
			<point x="690" y="113" type="curve" smooth="yes"/>
			<point x="716" y="137"/>
			<point x="726" y="155"/>
			<point x="731" y="179" type="curve"/>
			<point x="733" y="187"/>
			<point x="734" y="194"/>
			<point x="734" y="201" type="curve"/>
			<point x="735" y="220"/>
			<point x="730" y="234"/>
			<point x="718" y="246" type="curve" smooth="yes"/>
			<point x="699" y="265"/>
			<point x="667" y="266"/>
			<point x="642" y="266" type="curve" smooth="yes"/>
			<point x="638" y="266"/>
			<point x="634" y="266"/>
			<point x="630" y="266" type="curve"/>
			<point x="561" y="260"/>
			<point x="507" y="209"/>
		</contour>
		<contour>
			<point x="659" y="601" type="line"/>
			<point x="109" y="-54" type="line"/>
			<point x="163" y="-67" type="line"/>
			<point x="715" y="588" type="line"/>
		</contour>
		<contour>
			<point x="261" y="591" type="curve" smooth="yes"/>
			<point x="272" y="591"/>
			<point x="272" y="582"/>
			<point x="266" y="550" type="curve"/>
			<point x="234" y="400" type="line"/>
			<point x="234" y="400" type="line"/>
			<point x="227" y="369"/>
			<point x="214" y="356"/>
			<point x="196" y="350" type="curve" smooth="yes"/>
			<point x="184" y="346"/>
			<point x="170" y="345"/>
			<point x="155" y="344" type="curve"/>
			<point x="153" y="341"/>
			<point x="151" y="338"/>
			<point x="150" y="334" type="curve" smooth="yes"/>
			<point x="148" y="326"/>
			<point x="147" y="318"/>
			<point x="149" y="314" type="curve"/>
			<point x="177" y="315"/>
			<point x="224" y="315"/>
			<point x="257" y="315" type="curve" smooth="yes"/>
			<point x="293" y="315"/>
			<point x="322" y="315"/>
			<point x="350" y="314" type="curve"/>
			<point x="350" y="314" type="line"/>
			<point x="353" y="319"/>
			<point x="356" y="327"/>
			<point x="356" y="334" type="curve"/>
			<point x="357" y="338"/>
			<point x="357" y="341"/>
			<point x="356" y="344" type="curve"/>
			<point x="352" y="344"/>
			<point x="348" y="345"/>
			<point x="345" y="345" type="curve" smooth="yes"/>
			<point x="342" y="345"/>
			<point x="338" y="346"/>
			<point x="335" y="346" type="curve"/>
			<point x="320" y="350"/>
			<point x="312" y="358"/>
			<point x="314" y="383" type="curve"/>
			<point x="314" y="388"/>
			<point x="315" y="394"/>
			<point x="316" y="400" type="curve"/>
			<point x="373" y="665" type="line"/>
			<point x="370" y="668"/>
			<point x="360" y="669"/>
			<point x="352" y="667" type="curve"/>
			<point x="348" y="667"/>
			<point x="345" y="666"/>
			<point x="343" y="665" type="curve" smooth="yes"/>
			<point x="295" y="642"/>
			<point x="250" y="626"/>
			<point x="202" y="609" type="curve"/>
			<point x="199" y="597"/>
			<point x="198" y="582"/>
			<point x="204" y="576" type="curve"/>
			<point x="230" y="585"/>
			<point x="249" y="591"/>
		</contour>
	</outline>
</glyph>
<glyph name="threequarters" format="2">
	<unicode hex="00BE"/>
	<advance width="700"/>
	<outline>
		<contour>
			<point x="598" y="-48" type="curve" smooth="yes"/>
			<point x="603" y="-27" type="line"/>
			<point x="656" y="-27" type="line"/>
			<point x="668" y="15" type="line"/>
			<point x="612" y="15" type="line"/>
			<point x="653" y="211" type="line" smooth="yes"/>
			<point x="655" y="220"/>
			<point x="649" y="221"/>
			<point x="644" y="221" type="curve" smooth="yes"/>
			<point x="632" y="221"/>
			<point x="621" y="221"/>
			<point x="609" y="221" type="curve" smooth="yes"/>
			<point x="597" y="221" type="line"/>
			<point x="588" y="211"/>
			<point x="577" y="199"/>
			<point x="566" y="187" type="curve" smooth="yes"/>
			<point x="515" y="132"/>
			<point x="443" y="57"/>
			<point x="395" y="3" type="curve"/>
			<point x="389" y="-3"/>
			<point x="384" y="-9"/>
			<point x="379" y="-15" type="curve"/>
			<point x="382" y="-19"/>
			<point x="384" y="-23"/>
			<point x="387" y="-27" type="curve"/>
			<point x="525" y="-27" type="line"/>
			<point x="520" y="-48" type="line" smooth="yes"/>
			<point x="509" y="-99"/>
			<point x="480" y="-102"/>
			<point x="442" y="-104" type="curve"/>
			<point x="435" y="-112"/>
			<point x="433" y="-128"/>
			<point x="435" y="-134" type="curve"/>
			<point x="464" y="-133"/>
			<point x="492" y="-133"/>
			<point x="526" y="-133" type="curve" smooth="yes"/>
			<point x="540" y="-133" type="line" smooth="yes"/>
			<point x="573" y="-133"/>
			<point x="603" y="-133"/>
			<point x="627" y="-134" type="curve"/>
			<point x="632" y="-127"/>
			<point x="635" y="-112"/>
			<point x="633" y="-104" type="curve"/>
			<point x="602" y="-102"/>
			<point x="587" y="-99"/>
		</contour>
		<contour>
			<point x="229" y="338" type="curve" smooth="yes"/>
			<point x="210" y="338"/>
			<point x="200" y="348"/>
			<point x="194" y="357" type="curve"/>
			<point x="193" y="360"/>
			<point x="191" y="364"/>
			<point x="190" y="368" type="curve"/>
			<point x="185" y="380"/>
			<point x="178" y="394"/>
			<point x="159" y="394" type="curve" smooth="yes"/>
			<point x="136" y="394"/>
			<point x="117" y="373"/>
			<point x="117" y="352" type="curve" smooth="yes"/>
			<point x="117" y="317"/>
			<point x="170" y="308"/>
			<point x="214" y="308" type="curve" smooth="yes"/>
			<point x="259" y="308"/>
			<point x="305" y="322"/>
			<point x="341" y="346" type="curve"/>
			<point x="370" y="367"/>
			<point x="395" y="395"/>
			<point x="402" y="434" type="curve" smooth="yes"/>
			<point x="403" y="440"/>
			<point x="403" y="446"/>
			<point x="403" y="453" type="curve" smooth="yes"/>
			<point x="403" y="491"/>
			<point x="378" y="507"/>
			<point x="350" y="516" type="curve"/>
			<point x="349" y="516"/>
			<point x="349" y="517"/>
			<point x="349" y="517" type="curve"/>
			<point x="349" y="518"/>
			<point x="350" y="519"/>
			<point x="351" y="520" type="curve"/>
			<point x="381" y="539"/>
			<point x="406" y="562"/>
			<point x="410" y="592" type="curve"/>
			<point x="411" y="595"/>
			<point name=".hr01" x="411" y="598"/>
			<point x="411" y="601" type="curve" smooth="yes"/>
			<point x="411" y="604"/>
			<point x="411" y="606"/>
			<point x="410" y="608" type="curve"/>
			<point x="406" y="639"/>
			<point x="371" y="658"/>
			<point x="320" y="658" type="curve" smooth="yes"/>
			<point x="223" y="658"/>
			<point x="178" y="596"/>
			<point x="174" y="577" type="curve"/>
			<point x="174" y="576"/>
			<point x="173" y="574"/>
			<point x="173" y="571" type="curve" smooth="yes"/>
			<point x="173" y="564"/>
			<point x="176" y="554"/>
			<point x="188" y="550" type="curve"/>
			<point x="191" y="550"/>
			<point x="195" y="549"/>
			<point x="199" y="549" type="curve" smooth="yes"/>
			<point x="223" y="549"/>
			<point x="238" y="569"/>
			<point x="243" y="583" type="curve"/>
			<point x="244" y="585"/>
			<point x="245" y="587"/>
			<point x="245" y="589" type="curve"/>
			<point x="252" y="612"/>
			<point x="277" y="628"/>
			<point x="298" y="628" type="curve"/>
			<point x="298" y="628"/>
			<point x="298" y="628"/>
			<point x="298" y="628" type="curve"/>
			<point x="315" y="628"/>
			<point x="329" y="617"/>
			<point x="329" y="596" type="curve"/>
			<point x="329" y="596"/>
			<point x="329" y="596"/>
			<point x="329" y="596" type="curve"/>
			<point x="329" y="544"/>
			<point x="268" y="511"/>
			<point x="224" y="505" type="curve"/>
			<point x="218" y="475" type="line"/>
			<point x="231" y="478"/>
			<point x="242" y="479"/>
			<point x="251" y="479" type="curve" smooth="yes"/>
			<point x="285" y="479"/>
			<point x="311" y="470"/>
			<point name=".hr02" x="311" y="438" type="curve"/>
			<point x="311" y="438"/>
			<point x="311" y="438"/>
			<point x="311" y="438" type="curve"/>
			<point x="311" y="389"/>
			<point x="265" y="338"/>
		</contour>
		<contour>
			<point x="659" y="601" type="line"/>
			<point x="109" y="-54" type="line"/>
			<point x="163" y="-67" type="line"/>
			<point x="715" y="588" type="line"/>
		</contour>
		<contour>
			<point x="560" y="142" type="curve"/>
			<point x="551" y="100"/>
			<point x="543" y="57"/>
			<point x="534" y="15" type="curve"/>
			<point x="444" y="15" type="line"/>
			<point x="483" y="57"/>
			<point x="521" y="100"/>
		</contour>
	</outline>
</glyph>
<glyph name="questiondown" format="2">
	<unicode hex="00BF"/>
	<advance width="430"/>
	<outline>
		<contour>
			<point x="268" y="-140" type="curve"/>
			<point x="262" y="-168"/>
			<point x="225" y="-192"/>
			<point x="183" y="-192" type="curve" smooth="yes"/>
			<point x="135" y="-192"/>
			<point x="121" y="-149"/>
			<point x="128" y="-98" type="curve"/>
			<point x="129" y="-92"/>
			<point x="130" y="-87"/>
			<point x="131" y="-82" type="curve" smooth="yes"/>
			<point x="141" y="-36"/>
			<point x="165" y="-1"/>
			<point x="199" y="28" type="curve"/>
			<point x="202" y="31"/>
			<point x="205" y="33"/>
			<point x="208" y="36" type="curve"/>
			<point x="279" y="93"/>
			<point x="297" y="144"/>
			<point x="306" y="183" type="curve"/>
			<point x="308" y="189"/>
			<point x="309" y="194"/>
			<point name=".hr01" x="310" y="199" type="curve" smooth="yes"/>
			<point x="313" y="214" type="line" smooth="yes"/>
			<point x="315" y="225"/>
			<point x="316" y="234"/>
			<point x="312" y="239" type="curve"/>
			<point x="311" y="242"/>
			<point x="308" y="244"/>
			<point x="305" y="246" type="curve"/>
			<point x="301" y="247"/>
			<point x="296" y="248"/>
			<point x="290" y="248" type="curve" smooth="yes"/>
			<point x="263" y="248"/>
			<point x="257" y="239"/>
			<point x="252" y="214" type="curve"/>
			<point x="249" y="201" type="line"/>
			<point x="243" y="171"/>
			<point x="232" y="149"/>
			<point x="220" y="132" type="curve" smooth="yes"/>
			<point x="203" y="108"/>
			<point x="182" y="94"/>
			<point x="164" y="82" type="curve" smooth="yes"/>
			<point x="109" y="45"/>
			<point x="40" y="-1"/>
			<point x="25" y="-75" type="curve" smooth="yes"/>
			<point x="22" y="-90"/>
			<point x="21" y="-103"/>
			<point x="21" y="-116" type="curve"/>
			<point x="23" y="-185"/>
			<point x="76" y="-228"/>
			<point x="166" y="-228" type="curve" smooth="yes"/>
			<point x="223" y="-228"/>
			<point x="270" y="-214"/>
			<point x="303" y="-189" type="curve" smooth="yes"/>
			<point x="341" y="-161"/>
			<point x="364" y="-138"/>
			<point x="371" y="-103" type="curve" smooth="yes"/>
			<point name=".hr02" x="372" y="-98"/>
			<point x="373" y="-93"/>
			<point x="372" y="-88" type="curve"/>
			<point x="372" y="-60"/>
			<point x="350" y="-45"/>
			<point x="330" y="-45" type="curve" smooth="yes"/>
			<point x="302" y="-45"/>
			<point x="277" y="-61"/>
			<point x="271" y="-86" type="curve" smooth="yes"/>
			<point x="269" y="-95"/>
			<point x="269" y="-102"/>
			<point x="269" y="-109" type="curve" smooth="yes"/>
			<point x="269" y="-112"/>
			<point x="270" y="-114"/>
			<point x="270" y="-117" type="curve" smooth="yes"/>
			<point x="270" y="-124"/>
			<point x="271" y="-130"/>
		</contour>
		<contour>
			<point x="391" y="372" type="curve"/>
			<point x="392" y="376"/>
			<point x="392" y="380"/>
			<point x="393" y="384" type="curve"/>
			<point name=".hr03" x="394" y="416"/>
			<point x="372" y="440"/>
			<point name=".hr04" x="338" y="440" type="curve" smooth="yes"/>
			<point x="301" y="440"/>
			<point x="262" y="408"/>
			<point x="254" y="370" type="curve"/>
			<point x="253" y="366"/>
			<point x="252" y="361"/>
			<point name=".hr05" x="252" y="357" type="curve"/>
			<point x="251" y="325"/>
			<point x="273" y="301"/>
			<point x="307" y="301" type="curve" smooth="yes"/>
			<point x="344" y="301"/>
			<point x="383" y="333"/>
		</contour>
	</outline>
</glyph>
<glyph name="Oslash" format="2">
	<unicode hex="00D8"/>
	<advance width="699"/>
	<outline>
		<contour>
			<point x="717" y="670" type="line"/>
			<point x="651" y="601" type="line"/>
			<point x="606" y="638"/>
			<point x="546" y="658"/>
			<point x="476" y="658" type="curve" smooth="yes"/>
			<point x="380" y="658"/>
			<point x="288" y="615"/>
			<point x="219" y="546" type="curve" smooth="yes"/>
			<point x="160" y="487"/>
			<point x="110" y="407"/>
			<point x="94" y="309" type="curve" smooth="yes"/>
			<point x="90" y="287"/>
			<point x="88" y="264"/>
			<point x="88" y="241" type="curve" smooth="yes"/>
			<point x="88" y="172"/>
			<point x="110" y="115"/>
			<point x="147" y="73" type="curve"/>
			<point x="60" y="-18" type="line"/>
			<point x="106" y="-43" type="line"/>
			<point x="185" y="39" type="line"/>
			<point x="222" y="12"/>
			<point x="267" y="-4"/>
			<point x="317" y="-9" type="curve" smooth="yes"/>
			<point x="327" y="-10"/>
			<point x="337" y="-10"/>
			<point x="347" y="-10" type="curve" smooth="yes"/>
			<point x="538" y="-10"/>
			<point x="688" y="126"/>
			<point x="727" y="309" type="curve" smooth="yes"/>
			<point x="734" y="339"/>
			<point x="737" y="371"/>
			<point x="737" y="404" type="curve" smooth="yes"/>
			<point x="737" y="468"/>
			<point x="718" y="523"/>
			<point x="686" y="565" type="curve"/>
			<point name=".hr01" x="762" y="645" type="line"/>
		</contour>
		<contour>
			<point name=".hr02" x="456" y="616" type="curve" smooth="yes"/>
			<point x="512" y="616"/>
			<point x="556" y="585"/>
			<point x="577" y="524" type="curve"/>
			<point x="238" y="168" type="line"/>
			<point x="235" y="186"/>
			<point x="233" y="205"/>
			<point x="233" y="226" type="curve" smooth="yes"/>
			<point x="233" y="247"/>
			<point x="235" y="269"/>
			<point x="237" y="290" type="curve"/>
			<point x="240" y="312"/>
			<point x="244" y="333"/>
			<point x="249" y="354" type="curve" smooth="yes"/>
			<point x="263" y="417"/>
			<point x="286" y="474"/>
			<point x="306" y="509" type="curve" smooth="yes"/>
			<point x="349" y="584"/>
			<point x="403" y="616"/>
		</contour>
		<contour>
			<point x="590" y="464" type="line"/>
			<point x="591" y="451"/>
			<point x="592" y="437"/>
			<point x="592" y="423" type="curve" smooth="yes"/>
			<point x="592" y="375"/>
			<point x="587" y="329"/>
			<point x="577" y="285" type="curve" smooth="yes"/>
			<point x="546" y="141"/>
			<point x="466" y="32"/>
			<point x="374" y="32" type="curve" smooth="yes"/>
			<point x="320" y="32"/>
			<point x="278" y="60"/>
			<point x="254" y="113" type="curve"/>
		</contour>
	</outline>
</glyph>
<glyph name="Thorn" format="2">
	<unicode hex="00DE"/>
	<advance width="616"/>
	<outline>
		<contour>
			<point x="211" y="523" type="curve" smooth="yes"/>
			<point x="133" y="122" type="line"/>
			<point x="129" y="104"/>
			<point x="125" y="89"/>
			<point x="120" y="78" type="curve"/>
			<point x="108" y="49"/>
			<point x="91" y="39"/>
			<point x="68" y="35" type="curve" smooth="yes"/>
			<point x="63" y="34"/>
			<point x="58" y="34"/>
			<point x="53" y="33" type="curve"/>
			<point x="47" y="33"/>
			<point x="42" y="32"/>
			<point x="36" y="32" type="curve"/>
			<point x="32" y="30"/>
			<point x="29" y="26"/>
			<point x="28" y="22" type="curve"/>
			<point x="26" y="17"/>
			<point x="25" y="13"/>
			<point x="25" y="8" type="curve" smooth="yes"/>
			<point x="25" y="4"/>
			<point x="26" y="0"/>
			<point x="29" y="-2" type="curve"/>
			<point x="68" y="-1"/>
			<point x="139" y="0"/>
			<point x="177" y="0" type="curve" smooth="yes"/>
			<point x="215" y="0"/>
			<point x="285" y="-1"/>
			<point x="323" y="-2" type="curve"/>
			<point x="327" y="0"/>
			<point x="329" y="4"/>
			<point x="331" y="8" type="curve"/>
			<point x="333" y="13"/>
			<point x="334" y="17"/>
			<point x="333" y="22" type="curve"/>
			<point x="333" y="26"/>
			<point x="332" y="30"/>
			<point x="329" y="32" type="curve"/>
			<point x="323" y="32"/>
			<point x="318" y="33"/>
			<point x="313" y="33" type="curve"/>
			<point x="302" y="34"/>
			<point x="294" y="35"/>
			<point x="286" y="38" type="curve"/>
			<point x="272" y="44"/>
			<point x="263" y="55"/>
			<point x="262" y="78" type="curve"/>
			<point x="262" y="89"/>
			<point x="263" y="104"/>
			<point x="267" y="122" type="curve"/>
			<point x="273" y="155" type="line"/>
			<point x="287" y="152"/>
			<point x="309" y="151"/>
			<point x="334" y="150" type="curve"/>
			<point x="340" y="150"/>
			<point x="346" y="150"/>
			<point x="352" y="150" type="curve" smooth="yes"/>
			<point x="529" y="150"/>
			<point x="620" y="268"/>
			<point x="636" y="343" type="curve" smooth="yes"/>
			<point x="651" y="414"/>
			<point x="629" y="523"/>
			<point x="444" y="523" type="curve" smooth="yes"/>
			<point x="427" y="523"/>
			<point x="382" y="523"/>
			<point x="345" y="521" type="curve"/>
			<point x="345" y="523" type="line"/>
			<point x="349" y="541"/>
			<point x="353" y="556"/>
			<point x="358" y="567" type="curve"/>
			<point x="370" y="596"/>
			<point x="387" y="606"/>
			<point x="410" y="610" type="curve" smooth="yes"/>
			<point x="415" y="611"/>
			<point x="420" y="611"/>
			<point x="425" y="612" type="curve"/>
			<point x="431" y="612"/>
			<point x="436" y="613"/>
			<point x="442" y="613" type="curve"/>
			<point x="446" y="615"/>
			<point x="449" y="619"/>
			<point x="450" y="623" type="curve"/>
			<point x="452" y="628"/>
			<point x="453" y="632"/>
			<point x="453" y="637" type="curve" smooth="yes"/>
			<point x="453" y="641"/>
			<point x="452" y="645"/>
			<point x="449" y="647" type="curve"/>
			<point x="414" y="646"/>
			<point x="356" y="645"/>
			<point x="317" y="645" type="curve" smooth="yes"/>
			<point x="303" y="645" type="line" smooth="yes"/>
			<point x="269" y="645"/>
			<point x="209" y="646"/>
			<point x="169" y="647" type="curve"/>
			<point x="155" y="647" type="line"/>
			<point x="148" y="643"/>
			<point x="143" y="632"/>
			<point x="144" y="623" type="curve"/>
			<point x="144" y="619"/>
			<point x="145" y="615"/>
			<point x="148" y="613" type="curve"/>
			<point x="154" y="613"/>
			<point x="159" y="612"/>
			<point x="164" y="612" type="curve"/>
			<point x="175" y="611"/>
			<point x="184" y="610"/>
			<point x="191" y="607" type="curve"/>
			<point x="213" y="599"/>
			<point x="222" y="578"/>
		</contour>
		<contour>
			<point x="281" y="194" type="curve"/>
			<point x="336" y="478" type="line"/>
			<point x="355" y="478"/>
			<point x="388" y="481"/>
			<point x="410" y="482" type="curve"/>
			<point x="415" y="482"/>
			<point x="420" y="482"/>
			<point x="424" y="482" type="curve" smooth="yes"/>
			<point x="484" y="482"/>
			<point x="504" y="431"/>
			<point x="485" y="343" type="curve" smooth="yes"/>
			<point x="462" y="234"/>
			<point x="416" y="191"/>
			<point x="344" y="191" type="curve" smooth="yes"/>
			<point x="314" y="191"/>
			<point x="293" y="192"/>
		</contour>
	</outline>
</glyph>
<glyph name="thorn" format="2">
	<unicode hex="00FE"/>
	<advance width="550"/>
	<outline>
		<contour>
			<point x="231" y="563" type="curve"/>
			<point x="231" y="563"/>
			<point x="201" y="427"/>
			<point x="186" y="360" type="curve"/>
			<point x="136" y="324"/>
			<point x="99" y="294"/>
			<point x="71" y="259" type="curve"/>
			<point x="75" y="245"/>
			<point x="81" y="223"/>
			<point x="99" y="223" type="curve"/>
			<point x="121" y="252"/>
			<point x="143" y="270"/>
			<point x="171" y="293" type="curve"/>
			<point x="75" y="-151" type="line" smooth="yes"/>
			<point x="69" y="-179"/>
			<point x="54" y="-191"/>
			<point x="22" y="-196" type="curve" smooth="yes"/>
			<point x="3" y="-199" type="line"/>
			<point x="-2" y="-200"/>
			<point x="-7" y="-201"/>
			<point x="-7" y="-207" type="curve" smooth="yes"/>
			<point x="-7" y="-236" type="line"/>
			<point x="-5" y="-238" type="line"/>
			<point x="-5" y="-238"/>
			<point x="66" y="-235"/>
			<point x="113" y="-234" type="curve"/>
			<point x="125" y="-233"/>
			<point x="135" y="-233"/>
			<point x="142" y="-233" type="curve" smooth="yes"/>
			<point x="181" y="-233"/>
			<point x="249" y="-235"/>
			<point x="249" y="-235" type="curve"/>
			<point x="251" y="-233" type="line"/>
			<point x="251" y="-203" type="line" smooth="yes"/>
			<point x="251" y="-198"/>
			<point x="249" y="-196"/>
			<point x="245" y="-195" type="curve"/>
			<point x="226" y="-192" type="line" smooth="yes"/>
			<point x="211" y="-190"/>
			<point x="185" y="-185"/>
			<point x="193" y="-151" type="curve" smooth="yes"/>
			<point x="232" y="23" type="line"/>
			<point x="245" y="10"/>
			<point x="260" y="-4"/>
			<point x="286" y="-9" type="curve" smooth="yes"/>
			<point x="291" y="-10"/>
			<point x="297" y="-10"/>
			<point x="303" y="-10" type="curve" smooth="yes"/>
			<point x="358" y="-10"/>
			<point x="412" y="10"/>
			<point x="453" y="45" type="curve" smooth="yes"/>
			<point x="530" y="111"/>
			<point x="575" y="220"/>
			<point x="575" y="289" type="curve" smooth="yes"/>
			<point x="575" y="373"/>
			<point x="531" y="439"/>
			<point x="431" y="439" type="curve" smooth="yes"/>
			<point x="380" y="439"/>
			<point x="343" y="420"/>
			<point x="316" y="404" type="curve"/>
			<point x="327" y="457"/>
			<point x="347" y="549"/>
			<point x="353" y="575" type="curve" smooth="yes"/>
			<point x="355" y="583" type="line"/>
			<point x="362" y="616"/>
			<point x="370" y="645"/>
			<point x="370" y="665" type="curve" smooth="yes"/>
			<point x="370" y="676"/>
			<point x="368" y="684"/>
			<point x="364" y="689" type="curve"/>
			<point x="361" y="692"/>
			<point name=".hr01" x="358" y="694"/>
			<point name=".hr02" x="354" y="696" type="curve"/>
			<point x="351" y="697"/>
			<point x="346" y="698"/>
			<point x="340" y="698" type="curve" smooth="yes"/>
			<point x="309" y="698"/>
			<point x="217" y="679"/>
			<point x="174" y="672" type="curve"/>
			<point x="170" y="664"/>
			<point x="168" y="656"/>
			<point x="168" y="648" type="curve" smooth="yes"/>
			<point x="168" y="644"/>
			<point x="168" y="641"/>
			<point x="169" y="638" type="curve"/>
			<point x="176" y="638"/>
			<point x="182" y="638"/>
			<point x="188" y="638" type="curve"/>
			<point x="199" y="637"/>
			<point x="209" y="636"/>
			<point x="216" y="634" type="curve"/>
			<point x="227" y="630"/>
			<point x="233" y="624"/>
			<point x="235" y="613" type="curve"/>
			<point x="238" y="602"/>
			<point x="236" y="586"/>
		</contour>
		<contour>
			<point x="447" y="273" type="curve" smooth="yes"/>
			<point x="447" y="207"/>
			<point x="402" y="32"/>
			<point x="315" y="32" type="curve" smooth="yes"/>
			<point x="289" y="32"/>
			<point x="262" y="46"/>
			<point x="241" y="75" type="curve"/>
			<point x="305" y="354" type="line"/>
			<point x="325" y="367"/>
			<point x="348" y="381"/>
			<point x="375" y="386" type="curve"/>
			<point x="382" y="387"/>
			<point x="389" y="388"/>
			<point x="397" y="388" type="curve" smooth="yes"/>
			<point x="439" y="388"/>
			<point x="447" y="322"/>
		</contour>
	</outline>
</glyph>
<glyph name="eogonek" format="2">
	<unicode hex="0119"/>
	<advance width="409"/>
	<outline>
		<contour>
			<point x="357" y="-161" type="curve"/>
			<point x="355" y="-157"/>
			<point x="345" y="-143"/>
			<point x="342" y="-138" type="curve"/>
			<point x="327" y="-153"/>
			<point x="303" y="-156"/>
			<point x="286" y="-156" type="curve" smooth="yes"/>
			<point x="268" y="-156"/>
			<point x="251" y="-145"/>
			<point x="251" y="-124" type="curve" smooth="yes"/>
			<point x="251" y="-61"/>
			<point x="278" y="-21"/>
			<point x="320" y="19" type="curve"/>
			<point x="353" y="37"/>
			<point x="385" y="63"/>
			<point x="413" y="99" type="curve"/>
			<point x="408" y="110"/>
			<point x="393" y="124"/>
			<point x="381" y="124" type="curve"/>
			<point x="324" y="66"/>
			<point x="293" y="50"/>
			<point x="245" y="50" type="curve" smooth="yes"/>
			<point x="206" y="50"/>
			<point name=".hr01" x="192" y="98"/>
			<point x="192" y="165" type="curve" smooth="yes"/>
			<point x="192" y="170"/>
			<point x="192" y="191"/>
			<point x="193" y="199" type="curve"/>
			<point x="319" y="226"/>
			<point x="391" y="255"/>
			<point x="425" y="288" type="curve" smooth="yes"/>
			<point x="456" y="317"/>
			<point x="456" y="351"/>
			<point x="456" y="369" type="curve" smooth="yes"/>
			<point x="456" y="404"/>
			<point x="415" y="439"/>
			<point x="334" y="439" type="curve" smooth="yes"/>
			<point x="140" y="439"/>
			<point x="63" y="269"/>
			<point x="63" y="142" type="curve" smooth="yes"/>
			<point x="63" y="57"/>
			<point x="89" y="-10"/>
			<point x="209" y="-10" type="curve" smooth="yes"/>
			<point x="217" y="-10"/>
			<point x="225" y="-9"/>
			<point x="233" y="-9" type="curve"/>
			<point x="193" y="-44"/>
			<point name=".hr02" x="159" y="-86"/>
			<point x="159" y="-130" type="curve" smooth="yes"/>
			<point x="159" y="-185"/>
			<point x="198" y="-216"/>
			<point x="248" y="-216" type="curve" smooth="yes"/>
			<point x="287" y="-216"/>
			<point x="331" y="-197"/>
		</contour>
		<contour>
			<point x="343" y="370" type="curve" smooth="yes"/>
			<point x="343" y="280"/>
			<point x="253" y="246"/>
			<point x="200" y="237" type="curve"/>
			<point x="234" y="378"/>
			<point x="272" y="398"/>
			<point x="311" y="398" type="curve" smooth="yes"/>
			<point x="332" y="398"/>
			<point x="343" y="390"/>
		</contour>
	</outline>
</glyph>
<glyph name="uni0122" format="2">
	<unicode hex="0122"/>
	<advance width="723"/>
	<outline>
		<contour>
			<point x="518" y="658" type="curve" smooth="yes"/>
			<point x="434" y="658"/>
			<point x="337" y="627"/>
			<point x="255" y="565" type="curve" smooth="yes"/>
			<point x="175" y="505"/>
			<point x="111" y="415"/>
			<point x="90" y="307" type="curve" smooth="yes"/>
			<point x="86" y="285"/>
			<point x="83" y="262"/>
			<point x="83" y="240" type="curve"/>
			<point x="84" y="173"/>
			<point x="106" y="110"/>
			<point x="149" y="66" type="curve" smooth="yes"/>
			<point x="202" y="12"/>
			<point x="290" y="-10"/>
			<point x="383" y="-10" type="curve" smooth="yes"/>
			<point x="496" y="-10"/>
			<point x="612" y="24"/>
			<point x="687" y="78" type="curve"/>
			<point x="678" y="87"/>
			<point x="676" y="95"/>
			<point x="678" y="106" type="curve" smooth="yes"/>
			<point x="700" y="223" type="line" smooth="yes"/>
			<point x="707" y="258"/>
			<point x="726" y="268"/>
			<point x="754" y="271" type="curve"/>
			<point x="758" y="274"/>
			<point x="761" y="282"/>
			<point x="762" y="290" type="curve"/>
			<point x="764" y="297"/>
			<point x="764" y="305"/>
			<point x="761" y="308" type="curve"/>
			<point x="761" y="308" type="line"/>
			<point x="737" y="307"/>
			<point x="699" y="306"/>
			<point x="666" y="306" type="curve" smooth="yes"/>
			<point x="659" y="306"/>
			<point x="652" y="306"/>
			<point x="646" y="306" type="curve" smooth="yes"/>
			<point x="609" y="306"/>
			<point x="544" y="307"/>
			<point x="499" y="308" type="curve"/>
			<point x="496" y="305"/>
			<point x="493" y="297"/>
			<point x="491" y="290" type="curve"/>
			<point x="491" y="290" type="line"/>
			<point x="490" y="282"/>
			<point x="490" y="274"/>
			<point x="492" y="271" type="curve"/>
			<point x="502" y="270"/>
			<point x="512" y="269"/>
			<point x="520" y="268" type="curve" smooth="yes"/>
			<point x="528" y="267"/>
			<point x="535" y="266"/>
			<point x="541" y="264" type="curve" smooth="yes"/>
			<point x="559" y="258"/>
			<point x="566" y="247"/>
			<point x="561" y="223" type="curve"/>
			<point x="561" y="223"/>
			<point x="561" y="223"/>
			<point x="561" y="223" type="curve"/>
			<point x="532" y="74" type="line"/>
			<point x="493" y="42"/>
			<point x="466" y="32"/>
			<point x="414" y="32" type="curve" smooth="yes"/>
			<point x="270" y="32"/>
			<point x="226" y="148"/>
			<point x="231" y="263" type="curve" smooth="yes"/>
			<point x="232" y="285"/>
			<point x="235" y="306"/>
			<point x="239" y="327" type="curve" smooth="yes"/>
			<point x="256" y="413"/>
			<point x="289" y="491"/>
			<point x="337" y="542" type="curve" smooth="yes"/>
			<point x="387" y="595"/>
			<point x="449" y="616"/>
			<point x="496" y="616" type="curve" smooth="yes"/>
			<point x="635" y="616"/>
			<point x="687" y="539"/>
			<point x="695" y="453" type="curve"/>
			<point x="739" y="459" type="line"/>
			<point x="739" y="501"/>
			<point x="742" y="551"/>
			<point x="749" y="623" type="curve"/>
			<point x="691" y="623"/>
			<point x="635" y="658"/>
		</contour>
		<contour>
			<point x="384" y="-72" type="curve" smooth="yes"/>
			<point x="361" y="-72"/>
			<point x="330" y="-93"/>
			<point x="328" y="-110" type="curve"/>
			<point x="324" y="-135"/>
			<point x="333" y="-150"/>
			<point x="355" y="-155" type="curve"/>
			<point x="356" y="-155"/>
			<point x="357" y="-156"/>
			<point x="358" y="-156" type="curve"/>
			<point x="367" y="-158"/>
			<point x="383" y="-161"/>
			<point x="380" y="-178" type="curve"/>
			<point x="380" y="-178"/>
			<point x="380" y="-178"/>
			<point x="380" y="-178" type="curve"/>
			<point x="378" y="-196"/>
			<point x="349" y="-220"/>
			<point x="308" y="-231" type="curve"/>
			<point x="302" y="-243"/>
			<point x="301" y="-253"/>
			<point x="310" y="-259" type="curve"/>
			<point x="377" y="-248"/>
			<point x="432" y="-210"/>
			<point x="444" y="-157" type="curve"/>
			<point x="444" y="-155"/>
			<point x="445" y="-152"/>
			<point x="445" y="-150" type="curve"/>
			<point x="454" y="-87"/>
			<point x="416" y="-72"/>
		</contour>
	</outline>
</glyph>
<glyph name="uni0123" format="2">
	<unicode hex="0123"/>
	<advance width="497"/>
	<outline>
		<contour>
			<point x="445" y="291" type="curve" smooth="yes"/>
			<point x="445" y="318"/>
			<point x="441" y="349"/>
			<point x="427" y="369" type="curve"/>
			<point x="442" y="383"/>
			<point x="456" y="398"/>
			<point x="465" y="398" type="curve" smooth="yes"/>
			<point x="475" y="398"/>
			<point x="479" y="392"/>
			<point x="483" y="386" type="curve"/>
			<point x="489" y="376"/>
			<point x="497" y="365"/>
			<point x="516" y="365" type="curve" smooth="yes"/>
			<point x="538" y="365"/>
			<point x="553" y="382"/>
			<point x="553" y="405" type="curve" smooth="yes"/>
			<point x="553" y="427"/>
			<point x="534" y="446"/>
			<point x="507" y="446" type="curve" smooth="yes"/>
			<point x="475" y="446"/>
			<point x="442" y="434"/>
			<point x="407" y="402" type="curve"/>
			<point x="385" y="428"/>
			<point x="334" y="439"/>
			<point x="290" y="439" type="curve" smooth="yes"/>
			<point x="184" y="439"/>
			<point x="121" y="371"/>
			<point x="115" y="296" type="curve"/>
			<point x="114" y="292"/>
			<point x="114" y="287"/>
			<point x="114" y="283" type="curve" smooth="yes"/>
			<point x="114" y="239"/>
			<point x="132" y="188"/>
			<point x="170" y="165" type="curve"/>
			<point x="127" y="136"/>
			<point x="110" y="100"/>
			<point name=".hr01" x="107" y="68" type="curve"/>
			<point x="106" y="64"/>
			<point x="106" y="60"/>
			<point x="106" y="56" type="curve" smooth="yes"/>
			<point x="106" y="39"/>
			<point x="111" y="9"/>
			<point x="142" y="-2" type="curve"/>
			<point x="89" y="-31"/>
			<point x="-3" y="-76"/>
			<point x="-3" y="-136" type="curve" smooth="yes"/>
			<point x="-3" y="-217"/>
			<point x="128" y="-238"/>
			<point x="209" y="-238" type="curve" smooth="yes"/>
			<point x="346" y="-238"/>
			<point x="457" y="-199"/>
			<point x="457" y="-100" type="curve" smooth="yes"/>
			<point x="457" y="-40"/>
			<point x="399" y="1"/>
			<point x="348" y="20" type="curve"/>
			<point x="343" y="21"/>
			<point x="339" y="23"/>
			<point x="335" y="24" type="curve"/>
			<point x="255" y="48"/>
			<point x="209" y="66"/>
			<point x="202" y="88" type="curve"/>
			<point x="202" y="88"/>
			<point x="202" y="88"/>
			<point x="202" y="88" type="curve"/>
			<point x="196" y="107"/>
			<point x="196" y="132"/>
			<point x="205" y="149" type="curve"/>
			<point x="221" y="139"/>
			<point x="245" y="132"/>
			<point x="273" y="132" type="curve" smooth="yes"/>
			<point x="360" y="132"/>
			<point name=".hr02" x="445" y="192"/>
		</contour>
		<contour>
			<point x="171" y="-13" type="curve"/>
			<point x="187" y="-17"/>
			<point x="244" y="-42"/>
			<point x="280" y="-58" type="curve"/>
			<point x="284" y="-60"/>
			<point x="288" y="-62"/>
			<point x="292" y="-64" type="curve"/>
			<point x="348" y="-90"/>
			<point x="352" y="-99"/>
			<point name=".hr03" x="352" y="-127" type="curve" smooth="yes"/>
			<point x="352" y="-157"/>
			<point x="335" y="-200"/>
			<point x="250" y="-200" type="curve" smooth="yes"/>
			<point x="138" y="-200"/>
			<point x="94" y="-168"/>
			<point x="94" y="-113" type="curve" smooth="yes"/>
			<point x="94" y="-65"/>
			<point x="146" y="-31"/>
		</contour>
		<contour>
			<point x="331" y="291" type="curve" smooth="yes"/>
			<point x="331" y="285"/>
			<point name=".hr04" x="331" y="279"/>
			<point x="331" y="273" type="curve"/>
			<point x="332" y="219"/>
			<point x="332" y="172"/>
			<point x="278" y="172" type="curve" smooth="yes"/>
			<point x="225" y="172"/>
			<point x="226" y="219"/>
			<point x="228" y="263" type="curve"/>
			<point x="228" y="269"/>
			<point x="228" y="276"/>
			<point x="228" y="282" type="curve" smooth="yes"/>
			<point x="228" y="289"/>
			<point x="228" y="296"/>
			<point x="228" y="303" type="curve"/>
			<point x="227" y="363"/>
			<point x="227" y="399"/>
			<point x="286" y="399" type="curve" smooth="yes"/>
			<point x="329" y="399"/>
			<point x="331" y="359"/>
		</contour>
		<contour>
			<point x="309" y="511" type="curve" smooth="yes"/>
			<point x="344" y="511"/>
			<point x="365" y="536"/>
			<point x="369" y="552" type="curve"/>
			<point x="372" y="569"/>
			<point x="367" y="593"/>
			<point x="327" y="593" type="curve" smooth="yes"/>
			<point x="321" y="593"/>
			<point x="316" y="593"/>
			<point x="312" y="592" type="curve"/>
			<point x="300" y="591"/>
			<point x="297" y="591"/>
			<point x="301" y="606" type="curve"/>
			<point x="305" y="629"/>
			<point x="332" y="661"/>
			<point x="391" y="673" type="curve"/>
			<point x="393" y="680"/>
			<point x="394" y="689"/>
			<point x="390" y="693" type="curve"/>
			<point x="351" y="688"/>
			<point x="320" y="671"/>
			<point x="299" y="650" type="curve" smooth="yes"/>
			<point x="278" y="630"/>
			<point x="267" y="608"/>
			<point x="262" y="584" type="curve" smooth="yes"/>
			<point x="255" y="548"/>
			<point x="270" y="511"/>
		</contour>
	</outline>
</glyph>
<glyph name="Hbar" format="2">
	<unicode hex="0126"/>
	<advance width="735"/>
	<outline>
		<contour>
			<point x="346" y="526" type="line"/>
			<point x="350" y="544"/>
			<point x="354" y="558"/>
			<point x="359" y="569" type="curve"/>
			<point x="368" y="591"/>
			<point x="381" y="602"/>
			<point x="398" y="607" type="curve"/>
			<point x="410" y="611"/>
			<point x="425" y="612"/>
			<point x="442" y="613" type="curve"/>
			<point x="453" y="619"/>
			<point x="457" y="641"/>
			<point x="449" y="647" type="curve"/>
			<point x="410" y="646"/>
			<point x="341" y="645"/>
			<point x="303" y="645" type="curve" smooth="yes"/>
			<point x="289" y="645" type="line" smooth="yes"/>
			<point x="249" y="645"/>
			<point x="189" y="646"/>
			<point x="155" y="647" type="curve"/>
			<point x="144" y="641"/>
			<point x="140" y="619"/>
			<point x="148" y="613" type="curve"/>
			<point x="161" y="612"/>
			<point x="172" y="611"/>
			<point x="181" y="609" type="curve" smooth="yes"/>
			<point x="200" y="605"/>
			<point x="212" y="596"/>
			<point x="215" y="573" type="curve"/>
			<point x="216" y="561"/>
			<point x="216" y="546"/>
			<point x="212" y="526" type="curve"/>
			<point x="152" y="526" type="line"/>
			<point x="145" y="492" type="line"/>
			<point x="205" y="492" type="line"/>
			<point x="133" y="122" type="line"/>
			<point x="129" y="104"/>
			<point x="125" y="89"/>
			<point x="120" y="78" type="curve"/>
			<point x="108" y="49"/>
			<point x="91" y="39"/>
			<point x="68" y="35" type="curve" smooth="yes"/>
			<point x="58" y="33"/>
			<point x="48" y="33"/>
			<point x="36" y="32" type="curve"/>
			<point x="25" y="26"/>
			<point x="21" y="4"/>
			<point x="29" y="-2" type="curve"/>
			<point x="59" y="-1"/>
			<point x="109" y="0"/>
			<point x="147" y="0" type="curve" smooth="yes"/>
			<point x="158" y="0"/>
			<point x="169" y="0"/>
			<point x="177" y="0" type="curve" smooth="yes"/>
			<point x="215" y="0"/>
			<point x="285" y="-1"/>
			<point x="323" y="-2" type="curve"/>
			<point x="334" y="4"/>
			<point x="337" y="26"/>
			<point x="329" y="32" type="curve"/>
			<point x="316" y="33"/>
			<point x="305" y="34"/>
			<point x="295" y="36" type="curve" smooth="yes"/>
			<point x="276" y="40"/>
			<point x="265" y="49"/>
			<point x="263" y="73" type="curve" smooth="yes"/>
			<point x="262" y="85"/>
			<point x="263" y="101"/>
			<point x="267" y="122" type="curve" smooth="yes"/>
			<point x="305" y="319" type="line"/>
			<point x="555" y="319" type="line"/>
			<point x="517" y="122" type="line"/>
			<point x="515" y="113"/>
			<point x="513" y="105"/>
			<point x="511" y="97" type="curve" smooth="yes"/>
			<point x="501" y="60"/>
			<point x="486" y="45"/>
			<point x="465" y="38" type="curve" smooth="yes"/>
			<point x="453" y="34"/>
			<point x="438" y="33"/>
			<point x="420" y="32" type="curve"/>
			<point x="409" y="26"/>
			<point x="405" y="4"/>
			<point x="413" y="-2" type="curve"/>
			<point x="452" y="-1"/>
			<point x="523" y="0"/>
			<point x="561" y="0" type="curve" smooth="yes"/>
			<point x="599" y="0"/>
			<point x="669" y="-1"/>
			<point x="707" y="-2" type="curve"/>
			<point x="718" y="4"/>
			<point x="721" y="26"/>
			<point x="713" y="32" type="curve"/>
			<point x="700" y="33"/>
			<point x="689" y="34"/>
			<point x="679" y="36" type="curve" smooth="yes"/>
			<point x="660" y="40"/>
			<point x="649" y="49"/>
			<point x="647" y="73" type="curve" smooth="yes"/>
			<point x="646" y="85"/>
			<point x="647" y="101"/>
			<point x="651" y="122" type="curve" smooth="yes"/>
			<point x="723" y="492" type="line"/>
			<point x="775" y="492" type="line"/>
			<point x="782" y="526" type="line"/>
			<point x="730" y="526" type="line"/>
			<point x="734" y="544"/>
			<point x="738" y="558"/>
			<point x="743" y="569" type="curve" smooth="yes"/>
			<point x="755" y="597"/>
			<point x="771" y="606"/>
			<point x="795" y="610" type="curve"/>
			<point x="804" y="612"/>
			<point x="814" y="612"/>
			<point x="826" y="613" type="curve"/>
			<point x="837" y="619"/>
			<point x="841" y="641"/>
			<point x="833" y="647" type="curve"/>
			<point x="798" y="646"/>
			<point x="740" y="645"/>
			<point x="701" y="645" type="curve" smooth="yes"/>
			<point x="687" y="645" type="line" smooth="yes"/>
			<point x="649" y="645"/>
			<point x="577" y="646"/>
			<point x="539" y="647" type="curve"/>
			<point x="528" y="641"/>
			<point x="524" y="619"/>
			<point x="532" y="613" type="curve"/>
			<point x="545" y="612"/>
			<point x="556" y="611"/>
			<point x="565" y="609" type="curve" smooth="yes"/>
			<point x="584" y="605"/>
			<point x="596" y="596"/>
			<point x="599" y="573" type="curve"/>
			<point x="600" y="561"/>
			<point x="600" y="546"/>
			<point x="596" y="526" type="curve"/>
		</contour>
		<contour>
			<point x="589" y="492" type="line"/>
			<point x="565" y="367" type="line"/>
			<point x="315" y="367" type="line"/>
			<point x="339" y="492" type="line"/>
		</contour>
	</outline>
</glyph>
<glyph name="hbar" format="2">
	<unicode hex="0127"/>
	<advance width="620"/>
	<outline>
		<contour>
			<point x="226" y="72" type="curve" smooth="yes"/>
			<point x="261" y="232" type="line"/>
			<point x="323" y="312"/>
			<point x="373" y="369"/>
			<point x="408" y="369" type="curve"/>
			<point x="408" y="369"/>
			<point x="408" y="369"/>
			<point x="408" y="369" type="curve"/>
			<point x="429" y="369"/>
			<point x="443" y="364"/>
			<point x="443" y="333" type="curve" smooth="yes"/>
			<point x="443" y="319"/>
			<point x="442" y="309"/>
			<point x="434" y="275" type="curve" smooth="yes"/>
			<point x="397" y="115" type="line" smooth="yes"/>
			<point x="389" y="83"/>
			<point x="384" y="41"/>
			<point x="390" y="23" type="curve"/>
			<point x="398" y="3"/>
			<point x="409" y="-10"/>
			<point x="439" y="-10" type="curve" smooth="yes"/>
			<point x="509" y="-10"/>
			<point x="578" y="23"/>
			<point x="624" y="82" type="curve"/>
			<point x="621" y="91"/>
			<point x="609" y="110"/>
			<point x="595" y="110" type="curve"/>
			<point x="569" y="80"/>
			<point x="535" y="63"/>
			<point x="525" y="63" type="curve" smooth="yes"/>
			<point x="517" y="63"/>
			<point x="514" y="72"/>
			<point x="514" y="84" type="curve"/>
			<point x="515" y="96"/>
			<point x="518" y="111"/>
			<point x="521" y="124" type="curve" smooth="yes"/>
			<point x="559" y="283" type="line" smooth="yes"/>
			<point x="567" y="318"/>
			<point x="572" y="341"/>
			<point x="572" y="359" type="curve" smooth="yes"/>
			<point x="572" y="412"/>
			<point x="534" y="433"/>
			<point x="498" y="438" type="curve"/>
			<point x="493" y="439"/>
			<point x="488" y="439"/>
			<point x="483" y="439" type="curve" smooth="yes"/>
			<point x="432" y="439"/>
			<point x="368" y="419"/>
			<point x="280" y="318" type="curve"/>
			<point x="326" y="530" type="line"/>
			<point x="436" y="530" type="line"/>
			<point x="445" y="569" type="line"/>
			<point x="335" y="569" type="line"/>
			<point x="338" y="583" type="line" smooth="yes"/>
			<point x="345" y="616"/>
			<point x="353" y="645"/>
			<point x="353" y="665" type="curve" smooth="yes"/>
			<point x="353" y="676"/>
			<point x="351" y="684"/>
			<point x="347" y="689" type="curve"/>
			<point x="344" y="692"/>
			<point name=".hr01" x="341" y="694"/>
			<point name=".hr02" x="337" y="696" type="curve"/>
			<point x="334" y="697"/>
			<point x="329" y="698"/>
			<point x="323" y="698" type="curve" smooth="yes"/>
			<point x="292" y="698"/>
			<point x="200" y="679"/>
			<point x="157" y="672" type="curve"/>
			<point x="153" y="664"/>
			<point x="151" y="656"/>
			<point x="151" y="648" type="curve" smooth="yes"/>
			<point x="151" y="644"/>
			<point x="151" y="641"/>
			<point x="152" y="638" type="curve"/>
			<point x="160" y="638"/>
			<point x="166" y="638"/>
			<point x="173" y="638" type="curve"/>
			<point x="185" y="637"/>
			<point x="195" y="636"/>
			<point x="202" y="633" type="curve"/>
			<point x="213" y="629"/>
			<point x="219" y="621"/>
			<point x="220" y="607" type="curve"/>
			<point x="220" y="597"/>
			<point x="219" y="585"/>
			<point x="215" y="569" type="curve"/>
			<point x="152" y="569" type="line"/>
			<point x="143" y="530" type="line"/>
			<point x="207" y="530" type="line"/>
			<point x="104" y="72" type="line" smooth="yes"/>
			<point x="99" y="48"/>
			<point x="91" y="27"/>
			<point x="91" y="17" type="curve" smooth="yes"/>
			<point x="91" y="4"/>
			<point x="97" y="-5"/>
			<point x="129" y="-9" type="curve" smooth="yes"/>
			<point x="136" y="-10"/>
			<point x="146" y="-10"/>
			<point x="157" y="-10" type="curve" smooth="yes"/>
			<point x="218" y="-10"/>
			<point x="217" y="33"/>
		</contour>
	</outline>
</glyph>
<glyph name="Jcircumflex" format="2">
	<unicode hex="0134"/>
	<advance width="494"/>
	<outline>
		<contour>
			<point x="200" y="334" type="line"/>
			<point x="200" y="299" type="line"/>
			<point x="348" y="290" type="line"/>
			<point x="334" y="215"/>
			<point x="319" y="139"/>
			<point x="300" y="73" type="curve" smooth="yes"/>
			<point x="271" y="-30"/>
			<point x="232" y="-109"/>
			<point x="169" y="-125" type="curve"/>
			<point x="166" y="-115"/>
			<point x="162" y="-105"/>
			<point x="155" y="-96" type="curve"/>
			<point x="142" y="-77"/>
			<point x="121" y="-61"/>
			<point x="91" y="-61" type="curve" smooth="yes"/>
			<point x="83" y="-61"/>
			<point x="76" y="-62"/>
			<point x="69" y="-65" type="curve"/>
			<point x="44" y="-74"/>
			<point x="31" y="-99"/>
			<point x="31" y="-121" type="curve" smooth="yes"/>
			<point x="31" y="-173"/>
			<point x="88" y="-194"/>
			<point x="129" y="-199" type="curve"/>
			<point x="135" y="-200"/>
			<point x="141" y="-200"/>
			<point x="146" y="-200" type="curve" smooth="yes"/>
			<point x="311" y="-200"/>
			<point x="390" y="-80"/>
			<point x="434" y="72" type="curve" smooth="yes"/>
			<point x="454" y="141"/>
			<point x="466" y="217"/>
			<point x="477" y="291" type="curve"/>
			<point x="528" y="296" type="line"/>
			<point x="535" y="335" type="line"/>
			<point x="518" y="337"/>
			<point x="500" y="339"/>
			<point x="483" y="341" type="curve"/>
			<point x="494" y="422"/>
			<point x="503" y="499"/>
			<point x="517" y="561" type="curve"/>
			<point x="551" y="577"/>
			<point x="576" y="601"/>
			<point x="576" y="630" type="curve" smooth="yes"/>
			<point x="576" y="647"/>
			<point x="561" y="666"/>
			<point x="542" y="674" type="curve"/>
			<point x="536" y="676"/>
			<point x="529" y="678"/>
			<point x="522" y="678" type="curve" smooth="yes"/>
			<point x="489" y="678"/>
			<point x="464" y="658"/>
			<point x="443" y="624" type="curve"/>
			<point x="393" y="640"/>
			<point x="346" y="663"/>
			<point x="292" y="663" type="curve" smooth="yes"/>
			<point x="211" y="663"/>
			<point x="122" y="623"/>
			<point x="122" y="538" type="curve" smooth="yes"/>
			<point x="122" y="509"/>
			<point x="136" y="486"/>
			<point x="160" y="477" type="curve"/>
			<point x="166" y="475"/>
			<point x="173" y="474"/>
			<point x="180" y="474" type="curve" smooth="yes"/>
			<point x="205" y="474"/>
			<point x="231" y="484"/>
			<point name=".hr01" x="240" y="504" type="curve"/>
			<point x="243" y="509"/>
			<point x="244" y="515"/>
			<point x="244" y="521" type="curve" smooth="yes"/>
			<point x="244" y="547"/>
			<point x="225" y="568"/>
			<point name=".hr02" x="205" y="577" type="curve"/>
			<point x="212" y="587"/>
			<point x="226" y="592"/>
			<point name=".hr03" x="240" y="592" type="curve" smooth="yes"/>
			<point x="271" y="592"/>
			<point x="306" y="574"/>
			<point x="345" y="559" type="curve" smooth="yes"/>
			<point x="359" y="554"/>
			<point x="372" y="549"/>
			<point x="386" y="546" type="curve"/>
			<point x="393" y="544"/>
			<point x="400" y="543"/>
			<point x="407" y="542" type="curve"/>
			<point x="407" y="542" type="line"/>
			<point x="390" y="491"/>
			<point x="376" y="428"/>
			<point x="363" y="362" type="curve"/>
			<point x="358" y="340" type="line"/>
		</contour>
		<contour>
			<point x="562" y="724" type="curve"/>
			<point x="526" y="750"/>
			<point x="473" y="797"/>
			<point x="442" y="834" type="curve"/>
			<point x="427" y="829" type="line"/>
			<point x="387" y="794"/>
			<point x="331" y="752"/>
			<point x="285" y="725" type="curve"/>
			<point x="284" y="715"/>
			<point x="287" y="702"/>
			<point x="295" y="698" type="curve"/>
			<point x="334" y="709"/>
			<point x="393" y="732"/>
			<point x="426" y="754" type="curve"/>
			<point x="450" y="733"/>
			<point x="505" y="710"/>
			<point x="542" y="698" type="curve"/>
			<point x="552" y="702"/>
			<point x="561" y="714"/>
		</contour>
	</outline>
</glyph>
<glyph name="jcircumflex" format="2">
	<unicode hex="0135"/>
	<advance width="330"/>
	<outline>
		<contour>
			<point x="141" y="176" type="line" smooth="yes"/>
			<point x="121" y="78"/>
			<point x="114" y="16"/>
			<point x="96" y="-56" type="curve" smooth="yes"/>
			<point x="74" y="-142"/>
			<point x="58" y="-172"/>
			<point x="34" y="-172" type="curve" smooth="yes"/>
			<point x="-3" y="-172"/>
			<point x="10" y="-99"/>
			<point x="-56" y="-99" type="curve" smooth="yes"/>
			<point x="-74" y="-99"/>
			<point x="-95" y="-114"/>
			<point x="-95" y="-144" type="curve" smooth="yes"/>
			<point x="-95" y="-191"/>
			<point x="-44" y="-207"/>
			<point x="15" y="-207" type="curve" smooth="yes"/>
			<point x="184" y="-207"/>
			<point x="225" y="-8"/>
			<point x="277" y="235" type="curve"/>
			<point x="293" y="320" type="line" smooth="yes"/>
			<point x="301" y="360"/>
			<point x="314" y="398"/>
			<point x="314" y="415" type="curve" smooth="yes"/>
			<point x="314" y="429"/>
			<point x="306" y="436"/>
			<point x="293" y="436" type="curve" smooth="yes"/>
			<point x="261" y="436"/>
			<point x="168" y="429"/>
			<point x="121" y="423" type="curve"/>
			<point x="114" y="415"/>
			<point x="113" y="394"/>
			<point x="119" y="385" type="curve"/>
			<point x="159" y="382" type="line" smooth="yes"/>
			<point x="171" y="381"/>
			<point x="177" y="372"/>
			<point x="177" y="362" type="curve" smooth="yes"/>
			<point x="177" y="353"/>
			<point x="177" y="349"/>
			<point x="171" y="321" type="curve" smooth="yes"/>
		</contour>
		<contour>
			<point x="310" y="663" type="curve"/>
			<point x="258" y="663" type="line"/>
			<point x="221" y="615"/>
			<point x="175" y="570"/>
			<point x="133" y="529" type="curve"/>
			<point x="155" y="510" type="line"/>
			<point x="199" y="536"/>
			<point x="229" y="554"/>
			<point x="273" y="593" type="curve"/>
			<point x="303" y="556"/>
			<point x="329" y="536"/>
			<point x="368" y="510" type="curve"/>
			<point x="396" y="529" type="line"/>
			<point x="365" y="570"/>
			<point x="333" y="614"/>
		</contour>
	</outline>
</glyph>
<glyph name="Lacute" format="2">
	<unicode hex="0139"/>
	<advance width="552"/>
	<outline>
		<contour>
			<point x="343" y="42" type="curve" smooth="yes"/>
			<point x="285" y="42" type="line"/>
			<point x="285" y="42" type="line"/>
			<point x="273" y="42"/>
			<point x="265" y="49"/>
			<point x="262" y="67" type="curve"/>
			<point x="261" y="80"/>
			<point x="262" y="97"/>
			<point x="267" y="121" type="curve" smooth="yes"/>
			<point x="345" y="523" type="line" smooth="yes"/>
			<point x="347" y="533"/>
			<point x="349" y="543"/>
			<point x="352" y="551" type="curve"/>
			<point x="364" y="591"/>
			<point x="381" y="604"/>
			<point x="407" y="609" type="curve" smooth="yes"/>
			<point x="417" y="611"/>
			<point x="429" y="612"/>
			<point x="442" y="613" type="curve"/>
			<point x="453" y="619"/>
			<point x="457" y="641"/>
			<point x="449" y="647" type="curve"/>
			<point x="370" y="646"/>
			<point x="341" y="645"/>
			<point x="303" y="645" type="curve" smooth="yes"/>
			<point x="298" y="645"/>
			<point x="292" y="645"/>
			<point x="286" y="645" type="curve" smooth="yes"/>
			<point x="239" y="645"/>
			<point x="155" y="647"/>
			<point x="155" y="647" type="curve"/>
			<point x="144" y="641"/>
			<point x="140" y="619"/>
			<point x="148" y="613" type="curve"/>
			<point x="163" y="612"/>
			<point x="176" y="611"/>
			<point x="186" y="608" type="curve"/>
			<point x="207" y="603"/>
			<point x="218" y="589"/>
			<point x="215" y="554" type="curve"/>
			<point x="215" y="545"/>
			<point x="213" y="535"/>
			<point x="211" y="523" type="curve"/>
			<point x="133" y="122" type="line" smooth="yes"/>
			<point x="129" y="101"/>
			<point x="124" y="85"/>
			<point x="119" y="73" type="curve"/>
			<point x="107" y="49"/>
			<point x="92" y="40"/>
			<point x="71" y="36" type="curve" smooth="yes"/>
			<point x="61" y="34"/>
			<point x="49" y="33"/>
			<point x="36" y="32" type="curve"/>
			<point x="25" y="26"/>
			<point x="21" y="4"/>
			<point x="29" y="-2" type="curve"/>
			<point x="29" y="-2"/>
			<point x="114" y="0"/>
			<point x="160" y="0" type="curve" smooth="yes"/>
			<point x="167" y="0"/>
			<point x="172" y="0"/>
			<point x="177" y="0" type="curve" smooth="yes"/>
			<point x="372" y="0" type="line"/>
			<point x="391" y="0" type="line" smooth="yes"/>
			<point x="419" y="0"/>
			<point x="506" y="-2"/>
			<point x="506" y="-2" type="curve"/>
			<point x="525" y="48"/>
			<point x="547" y="113"/>
			<point x="563" y="165" type="curve"/>
			<point x="555" y="170"/>
			<point x="535" y="172"/>
			<point x="523" y="170" type="curve"/>
			<point x="490" y="98"/>
			<point x="444" y="42"/>
		</contour>
		<contour>
			<point x="491" y="833" type="curve"/>
			<point x="450" y="807"/>
			<point x="382" y="761"/>
			<point x="356" y="740" type="curve"/>
			<point x="354" y="739"/>
			<point x="352" y="738"/>
			<point x="351" y="737" type="curve"/>
			<point x="340" y="729"/>
			<point x="339" y="723"/>
			<point x="338" y="716" type="curve"/>
			<point x="337" y="711"/>
			<point x="342" y="706"/>
			<point x="347" y="703" type="curve"/>
			<point x="350" y="702"/>
			<point x="353" y="701"/>
			<point x="356" y="701" type="curve" smooth="yes"/>
			<point x="365" y="701"/>
			<point x="376" y="702"/>
			<point x="392" y="708" type="curve" smooth="yes"/>
			<point x="544" y="766" type="line"/>
			<point x="549" y="778" type="line"/>
			<point x="539" y="799"/>
			<point x="515" y="821"/>
		</contour>
	</outline>
</glyph>
<glyph name="lacute" format="2">
	<unicode hex="013A"/>
	<advance width="324"/>
	<outline>
		<contour>
			<point x="208" y="563" type="curve" smooth="yes"/>
			<point x="107" y="118" type="line" smooth="yes"/>
			<point x="102" y="95"/>
			<point x="97" y="68"/>
			<point x="97" y="47" type="curve" smooth="yes"/>
			<point x="97" y="41"/>
			<point x="97" y="36"/>
			<point x="98" y="31" type="curve" smooth="yes"/>
			<point x="103" y="6"/>
			<point x="118" y="-10"/>
			<point x="148" y="-10" type="curve" smooth="yes"/>
			<point x="218" y="-10"/>
			<point x="284" y="30"/>
			<point x="334" y="85" type="curve"/>
			<point x="331" y="94"/>
			<point x="319" y="113"/>
			<point x="305" y="113" type="curve"/>
			<point x="279" y="83"/>
			<point x="245" y="66"/>
			<point x="235" y="66" type="curve" smooth="yes"/>
			<point x="227" y="66"/>
			<point x="224" y="74"/>
			<point x="224" y="84" type="curve" smooth="yes"/>
			<point x="224" y="97"/>
			<point x="228" y="113"/>
			<point x="231" y="127" type="curve" smooth="yes"/>
			<point x="328" y="567" type="line"/>
			<point x="332" y="583" type="line"/>
			<point x="339" y="616"/>
			<point x="347" y="645"/>
			<point x="347" y="665" type="curve" smooth="yes"/>
			<point x="347" y="676"/>
			<point x="345" y="684"/>
			<point x="341" y="689" type="curve"/>
			<point x="338" y="692"/>
			<point name=".hr01" x="335" y="694"/>
			<point name=".hr02" x="331" y="696" type="curve"/>
			<point x="328" y="697"/>
			<point x="323" y="698"/>
			<point x="317" y="698" type="curve" smooth="yes"/>
			<point x="286" y="698"/>
			<point x="194" y="679"/>
			<point x="151" y="672" type="curve"/>
			<point x="147" y="664"/>
			<point x="145" y="656"/>
			<point x="145" y="648" type="curve" smooth="yes"/>
			<point x="145" y="644"/>
			<point x="145" y="641"/>
			<point x="146" y="638" type="curve"/>
			<point x="154" y="638"/>
			<point x="161" y="638"/>
			<point x="167" y="638" type="curve"/>
			<point x="180" y="637"/>
			<point x="190" y="636"/>
			<point x="197" y="632" type="curve"/>
			<point x="208" y="628"/>
			<point x="213" y="619"/>
			<point x="214" y="604" type="curve"/>
			<point x="214" y="594"/>
			<point x="212" y="580"/>
		</contour>
		<contour>
			<point x="341" y="863" type="curve"/>
			<point x="300" y="837"/>
			<point x="232" y="791"/>
			<point x="206" y="770" type="curve"/>
			<point x="204" y="769"/>
			<point x="202" y="768"/>
			<point x="201" y="767" type="curve"/>
			<point x="190" y="759"/>
			<point x="189" y="753"/>
			<point x="188" y="746" type="curve"/>
			<point x="187" y="741"/>
			<point x="192" y="736"/>
			<point x="197" y="733" type="curve"/>
			<point x="200" y="732"/>
			<point x="203" y="731"/>
			<point x="206" y="731" type="curve" smooth="yes"/>
			<point x="215" y="731"/>
			<point x="226" y="732"/>
			<point x="242" y="738" type="curve" smooth="yes"/>
			<point x="394" y="796" type="line"/>
			<point x="399" y="808" type="line"/>
			<point x="389" y="829"/>
			<point x="365" y="851"/>
		</contour>
	</outline>
</glyph>
<glyph name="uni013B" format="2">
	<unicode hex="013B"/>
	<advance width="552"/>
	<outline>
		<contour>
			<point x="343" y="42" type="curve" smooth="yes"/>
			<point x="285" y="42" type="line"/>
			<point x="285" y="42" type="line"/>
			<point x="273" y="42"/>
			<point x="265" y="49"/>
			<point x="262" y="67" type="curve"/>
			<point x="261" y="80"/>
			<point x="262" y="97"/>
			<point x="267" y="121" type="curve" smooth="yes"/>
			<point x="345" y="523" type="line" smooth="yes"/>
			<point x="347" y="533"/>
			<point x="349" y="543"/>
			<point x="352" y="551" type="curve"/>
			<point x="364" y="591"/>
			<point x="381" y="604"/>
			<point x="407" y="609" type="curve" smooth="yes"/>
			<point x="417" y="611"/>
			<point x="429" y="612"/>
			<point x="442" y="613" type="curve"/>
			<point x="453" y="619"/>
			<point x="457" y="641"/>
			<point x="449" y="647" type="curve"/>
			<point x="370" y="646"/>
			<point x="341" y="645"/>
			<point x="303" y="645" type="curve" smooth="yes"/>
			<point x="298" y="645"/>
			<point x="292" y="645"/>
			<point x="286" y="645" type="curve" smooth="yes"/>
			<point x="239" y="645"/>
			<point x="155" y="647"/>
			<point x="155" y="647" type="curve"/>
			<point x="144" y="641"/>
			<point x="140" y="619"/>
			<point x="148" y="613" type="curve"/>
			<point x="163" y="612"/>
			<point x="176" y="611"/>
			<point x="186" y="608" type="curve"/>
			<point x="207" y="603"/>
			<point x="218" y="589"/>
			<point x="215" y="554" type="curve"/>
			<point x="215" y="545"/>
			<point x="213" y="535"/>
			<point x="211" y="523" type="curve"/>
			<point x="133" y="122" type="line" smooth="yes"/>
			<point x="129" y="101"/>
			<point x="124" y="85"/>
			<point x="119" y="73" type="curve"/>
			<point x="107" y="49"/>
			<point x="92" y="40"/>
			<point x="71" y="36" type="curve" smooth="yes"/>
			<point x="61" y="34"/>
			<point x="49" y="33"/>
			<point x="36" y="32" type="curve"/>
			<point x="25" y="26"/>
			<point x="21" y="4"/>
			<point x="29" y="-2" type="curve"/>
			<point x="29" y="-2"/>
			<point x="114" y="0"/>
			<point x="160" y="0" type="curve" smooth="yes"/>
			<point x="167" y="0"/>
			<point x="172" y="0"/>
			<point x="177" y="0" type="curve" smooth="yes"/>
			<point x="372" y="0" type="line"/>
			<point x="391" y="0" type="line" smooth="yes"/>
			<point x="419" y="0"/>
			<point x="506" y="-2"/>
			<point x="506" y="-2" type="curve"/>
			<point x="525" y="48"/>
			<point x="547" y="113"/>
			<point x="563" y="165" type="curve"/>
			<point x="555" y="170"/>
			<point x="535" y="172"/>
			<point x="523" y="170" type="curve"/>
			<point x="490" y="98"/>
			<point x="444" y="42"/>
		</contour>
		<contour>
			<point x="276" y="-53" type="curve" smooth="yes"/>
			<point x="253" y="-53"/>
			<point x="222" y="-74"/>
			<point x="220" y="-91" type="curve"/>
			<point x="216" y="-116"/>
			<point x="225" y="-131"/>
			<point x="247" y="-136" type="curve"/>
			<point x="248" y="-136"/>
			<point x="249" y="-137"/>
			<point x="250" y="-137" type="curve"/>
			<point x="259" y="-139"/>
			<point x="275" y="-142"/>
			<point x="272" y="-159" type="curve"/>
			<point x="272" y="-159"/>
			<point x="272" y="-159"/>
			<point x="272" y="-159" type="curve"/>
			<point x="270" y="-177"/>
			<point x="241" y="-201"/>
			<point x="200" y="-212" type="curve"/>
			<point x="194" y="-224"/>
			<point x="193" y="-234"/>
			<point x="202" y="-240" type="curve"/>
			<point x="269" y="-229"/>
			<point x="324" y="-191"/>
			<point x="336" y="-138" type="curve"/>
			<point x="336" y="-136"/>
			<point x="337" y="-133"/>
			<point x="337" y="-131" type="curve"/>
			<point x="346" y="-68"/>
			<point x="308" y="-53"/>
		</contour>
	</outline>
</glyph>
<glyph name="Lcaron" format="2">
	<unicode hex="013D"/>
	<advance width="552"/>
	<outline>
		<contour>
			<point x="343" y="42" type="curve" smooth="yes"/>
			<point x="285" y="42" type="line"/>
			<point x="285" y="42" type="line"/>
			<point x="273" y="42"/>
			<point x="265" y="49"/>
			<point x="262" y="67" type="curve"/>
			<point x="261" y="80"/>
			<point x="262" y="97"/>
			<point x="267" y="121" type="curve" smooth="yes"/>
			<point x="345" y="523" type="line" smooth="yes"/>
			<point x="347" y="533"/>
			<point x="349" y="543"/>
			<point x="352" y="551" type="curve"/>
			<point x="364" y="591"/>
			<point x="381" y="604"/>
			<point x="407" y="609" type="curve" smooth="yes"/>
			<point x="417" y="611"/>
			<point x="429" y="612"/>
			<point x="442" y="613" type="curve"/>
			<point x="453" y="619"/>
			<point x="457" y="641"/>
			<point x="449" y="647" type="curve"/>
			<point x="370" y="646"/>
			<point x="341" y="645"/>
			<point x="303" y="645" type="curve" smooth="yes"/>
			<point x="298" y="645"/>
			<point x="292" y="645"/>
			<point x="286" y="645" type="curve" smooth="yes"/>
			<point x="239" y="645"/>
			<point x="155" y="647"/>
			<point x="155" y="647" type="curve"/>
			<point x="144" y="641"/>
			<point x="140" y="619"/>
			<point x="148" y="613" type="curve"/>
			<point x="163" y="612"/>
			<point x="176" y="611"/>
			<point x="186" y="608" type="curve"/>
			<point x="207" y="603"/>
			<point x="218" y="589"/>
			<point x="215" y="554" type="curve"/>
			<point x="215" y="545"/>
			<point x="213" y="535"/>
			<point x="211" y="523" type="curve"/>
			<point x="133" y="122" type="line" smooth="yes"/>
			<point x="129" y="101"/>
			<point x="124" y="85"/>
			<point x="119" y="73" type="curve"/>
			<point x="107" y="49"/>
			<point x="92" y="40"/>
			<point x="71" y="36" type="curve" smooth="yes"/>
			<point x="61" y="34"/>
			<point x="49" y="33"/>
			<point x="36" y="32" type="curve"/>
			<point x="25" y="26"/>
			<point x="21" y="4"/>
			<point x="29" y="-2" type="curve"/>
			<point x="29" y="-2"/>
			<point x="114" y="0"/>
			<point x="160" y="0" type="curve" smooth="yes"/>
			<point x="167" y="0"/>
			<point x="172" y="0"/>
			<point x="177" y="0" type="curve" smooth="yes"/>
			<point x="372" y="0" type="line"/>
			<point x="391" y="0" type="line" smooth="yes"/>
			<point x="419" y="0"/>
			<point x="506" y="-2"/>
			<point x="506" y="-2" type="curve"/>
			<point x="525" y="48"/>
			<point x="547" y="113"/>
			<point x="563" y="165" type="curve"/>
			<point x="555" y="170"/>
			<point x="535" y="172"/>
			<point x="523" y="170" type="curve"/>
			<point x="490" y="98"/>
			<point x="444" y="42"/>
		</contour>
		<contour>
			<point x="553" y="698" type="curve" smooth="yes"/>
			<point x="523" y="698"/>
			<point x="505" y="680"/>
			<point x="502" y="664" type="curve"/>
			<point x="498" y="648"/>
			<point x="499" y="626"/>
			<point x="540" y="626" type="curve" smooth="yes"/>
			<point x="548" y="626"/>
			<point x="552" y="618"/>
			<point x="550" y="605" type="curve"/>
			<point x="545" y="582"/>
			<point x="517" y="545"/>
			<point x="473" y="536" type="curve"/>
			<point x="474" y="519" type="line"/>
			<point x="546" y="527"/>
			<point x="591" y="589"/>
			<point x="598" y="625" type="curve" smooth="yes"/>
			<point x="605" y="661"/>
			<point x="591" y="698"/>
		</contour>
	</outline>
</glyph>
<glyph name="ldot" format="2">
	<unicode hex="0140"/>
	<advance width="389"/>
	<outline>
		<contour>
			<point x="208" y="563" type="curve" smooth="yes"/>
			<point x="107" y="118" type="line" smooth="yes"/>
			<point x="102" y="95"/>
			<point x="97" y="68"/>
			<point x="97" y="47" type="curve" smooth="yes"/>
			<point x="97" y="41"/>
			<point x="97" y="36"/>
			<point x="98" y="31" type="curve" smooth="yes"/>
			<point x="103" y="6"/>
			<point x="118" y="-10"/>
			<point x="148" y="-10" type="curve" smooth="yes"/>
			<point x="218" y="-10"/>
			<point x="284" y="30"/>
			<point x="334" y="85" type="curve"/>
			<point x="331" y="94"/>
			<point x="319" y="113"/>
			<point x="305" y="113" type="curve"/>
			<point x="279" y="83"/>
			<point x="245" y="66"/>
			<point x="235" y="66" type="curve" smooth="yes"/>
			<point x="227" y="66"/>
			<point x="224" y="74"/>
			<point x="224" y="84" type="curve" smooth="yes"/>
			<point x="224" y="97"/>
			<point x="228" y="113"/>
			<point x="231" y="127" type="curve" smooth="yes"/>
			<point x="328" y="567" type="line"/>
			<point x="332" y="583" type="line"/>
			<point x="339" y="616"/>
			<point x="347" y="645"/>
			<point x="347" y="665" type="curve" smooth="yes"/>
			<point x="347" y="676"/>
			<point x="345" y="684"/>
			<point x="341" y="689" type="curve"/>
			<point x="338" y="692"/>
			<point name=".hr01" x="335" y="694"/>
			<point name=".hr02" x="331" y="696" type="curve"/>
			<point x="328" y="697"/>
			<point x="323" y="698"/>
			<point x="317" y="698" type="curve" smooth="yes"/>
			<point x="286" y="698"/>
			<point x="194" y="679"/>
			<point x="151" y="672" type="curve"/>
			<point x="147" y="664"/>
			<point x="145" y="656"/>
			<point x="145" y="648" type="curve" smooth="yes"/>
			<point x="145" y="644"/>
			<point x="145" y="641"/>
			<point x="146" y="638" type="curve"/>
			<point x="154" y="638"/>
			<point x="161" y="638"/>
			<point x="167" y="638" type="curve"/>
			<point x="180" y="637"/>
			<point x="190" y="636"/>
			<point x="197" y="632" type="curve"/>
			<point x="208" y="628"/>
			<point x="213" y="619"/>
			<point x="214" y="604" type="curve"/>
			<point x="214" y="594"/>
			<point x="212" y="580"/>
		</contour>
		<contour>
			<point x="341" y="360" type="curve" smooth="yes"/>
			<point x="341" y="336"/>
			<point x="360" y="313"/>
			<point x="389" y="313" type="curve" smooth="yes"/>
			<point x="416" y="313"/>
			<point x="437" y="335"/>
			<point x="437" y="360" type="curve" smooth="yes"/>
			<point x="437" y="387"/>
			<point x="413" y="409"/>
			<point x="389" y="409" type="curve" smooth="yes"/>
			<point x="363" y="409"/>
			<point x="341" y="385"/>
		</contour>
	</outline>
</glyph>
<glyph name="Lslash" format="2">
	<unicode hex="0141"/>
	<advance width="552"/>
	<outline>
		<contour>
			<point x="393" y="449" type="line"/>
			<point x="324" y="412" type="line"/>
			<point x="345" y="523" type="line" smooth="yes"/>
			<point x="347" y="533"/>
			<point x="349" y="543"/>
			<point x="352" y="551" type="curve"/>
			<point x="364" y="591"/>
			<point x="381" y="604"/>
			<point x="407" y="609" type="curve" smooth="yes"/>
			<point x="417" y="611"/>
			<point x="429" y="612"/>
			<point x="442" y="613" type="curve"/>
			<point x="453" y="619"/>
			<point x="457" y="641"/>
			<point x="449" y="647" type="curve"/>
			<point x="370" y="646"/>
			<point x="341" y="645"/>
			<point x="303" y="645" type="curve" smooth="yes"/>
			<point x="265" y="645"/>
			<point x="155" y="647"/>
			<point x="155" y="647" type="curve"/>
			<point x="144" y="641"/>
			<point x="140" y="619"/>
			<point x="148" y="613" type="curve"/>
			<point x="161" y="612"/>
			<point x="172" y="611"/>
			<point x="182" y="609" type="curve" smooth="yes"/>
			<point x="201" y="605"/>
			<point x="213" y="596"/>
			<point x="215" y="572" type="curve" smooth="yes"/>
			<point x="216" y="560"/>
			<point x="215" y="544"/>
			<point x="211" y="523" type="curve" smooth="yes"/>
			<point x="174" y="334" type="line"/>
			<point x="63" y="275" type="line"/>
			<point x="74" y="244" type="line"/>
			<point x="166" y="293" type="line"/>
			<point x="133" y="122" type="line" smooth="yes"/>
			<point x="129" y="101"/>
			<point x="124" y="85"/>
			<point x="119" y="73" type="curve"/>
			<point x="107" y="49"/>
			<point x="92" y="40"/>
			<point x="71" y="36" type="curve" smooth="yes"/>
			<point x="61" y="34"/>
			<point x="49" y="33"/>
			<point x="36" y="32" type="curve"/>
			<point x="25" y="26"/>
			<point x="21" y="4"/>
			<point x="29" y="-2" type="curve"/>
			<point x="29" y="-2"/>
			<point x="114" y="0"/>
			<point x="160" y="0" type="curve" smooth="yes"/>
			<point x="167" y="0"/>
			<point x="172" y="0"/>
			<point x="177" y="0" type="curve" smooth="yes"/>
			<point x="373" y="0" type="line" smooth="yes"/>
			<point x="379" y="0"/>
			<point x="385" y="0"/>
			<point x="391" y="0" type="curve" smooth="yes"/>
			<point x="419" y="0"/>
			<point x="506" y="-2"/>
			<point x="506" y="-2" type="curve"/>
			<point x="525" y="48"/>
			<point x="547" y="113"/>
			<point x="563" y="165" type="curve"/>
			<point x="555" y="170"/>
			<point x="535" y="172"/>
			<point x="523" y="170" type="curve"/>
			<point x="493" y="104"/>
			<point x="451" y="51"/>
			<point x="365" y="43" type="curve"/>
			<point x="358" y="42"/>
			<point x="351" y="42"/>
			<point x="343" y="42" type="curve" smooth="yes"/>
			<point x="285" y="42" type="line"/>
			<point x="285" y="42" type="line"/>
			<point x="273" y="42"/>
			<point x="265" y="49"/>
			<point x="262" y="67" type="curve"/>
			<point x="261" y="80"/>
			<point x="262" y="97"/>
			<point x="267" y="121" type="curve" smooth="yes"/>
			<point x="316" y="372" type="line"/>
			<point x="404" y="419" type="line"/>
		</contour>
	</outline>
</glyph>
<glyph name="napostrophe" format="2">
	<unicode hex="0149"/>
	<advance width="665"/>
	<outline>
		<contour>
			<point x="173" y="243" type="curve" smooth="yes"/>
			<point x="135" y="72" type="line"/>
			<point x="130" y="52"/>
			<point x="122" y="27"/>
			<point x="122" y="17" type="curve" smooth="yes"/>
			<point x="122" y="1"/>
			<point x="132" y="-10"/>
			<point x="188" y="-10" type="curve" smooth="yes"/>
			<point x="242" y="-10"/>
			<point x="247" y="24"/>
			<point x="254" y="59" type="curve"/>
			<point x="255" y="63"/>
			<point x="256" y="68"/>
			<point x="257" y="72" type="curve" smooth="yes"/>
			<point x="295" y="228" type="line"/>
			<point x="358" y="310"/>
			<point x="409" y="369"/>
			<point x="445" y="369" type="curve" smooth="yes"/>
			<point x="449" y="369"/>
			<point x="453" y="369"/>
			<point x="457" y="368" type="curve"/>
			<point x="471" y="366"/>
			<point x="480" y="358"/>
			<point x="480" y="333" type="curve" smooth="yes"/>
			<point x="480" y="319"/>
			<point x="479" y="309"/>
			<point x="471" y="275" type="curve" smooth="yes"/>
			<point x="434" y="115" type="line" smooth="yes"/>
			<point x="426" y="83"/>
			<point x="421" y="41"/>
			<point x="427" y="23" type="curve"/>
			<point x="435" y="3"/>
			<point x="446" y="-10"/>
			<point x="476" y="-10" type="curve" smooth="yes"/>
			<point x="546" y="-10"/>
			<point x="615" y="23"/>
			<point x="661" y="82" type="curve"/>
			<point x="658" y="91"/>
			<point x="646" y="110"/>
			<point x="632" y="110" type="curve"/>
			<point x="606" y="80"/>
			<point x="572" y="63"/>
			<point x="562" y="63" type="curve" smooth="yes"/>
			<point x="555" y="63"/>
			<point x="552" y="69"/>
			<point x="552" y="77" type="curve"/>
			<point x="550" y="90"/>
			<point x="554" y="108"/>
			<point x="558" y="124" type="curve" smooth="yes"/>
			<point x="596" y="283" type="line" smooth="yes"/>
			<point x="604" y="318"/>
			<point x="609" y="341"/>
			<point x="609" y="359" type="curve" smooth="yes"/>
			<point x="609" y="413"/>
			<point x="569" y="435"/>
			<point x="532" y="438" type="curve"/>
			<point x="528" y="439"/>
			<point x="524" y="439"/>
			<point x="520" y="439" type="curve" smooth="yes"/>
			<point x="456" y="439"/>
			<point x="403" y="417"/>
			<point x="311" y="309" type="curve"/>
			<point x="309" y="311" type="line"/>
			<point x="310" y="316"/>
			<point x="311" y="322"/>
			<point x="312" y="327" type="curve" smooth="yes"/>
			<point x="319" y="363"/>
			<point x="322" y="397"/>
			<point x="322" y="412" type="curve" smooth="yes"/>
			<point x="322" y="426"/>
			<point name=".hr01" x="311" y="436"/>
			<point x="298" y="436" type="curve" smooth="yes"/>
			<point x="266" y="436"/>
			<point x="179" y="429"/>
			<point x="132" y="423" type="curve"/>
			<point x="125" y="415"/>
			<point x="124" y="394"/>
			<point x="130" y="385" type="curve"/>
			<point x="170" y="382" type="line" smooth="yes"/>
			<point x="184" y="381"/>
			<point x="188" y="364"/>
			<point x="188" y="352" type="curve" smooth="yes"/>
			<point x="188" y="341"/>
			<point x="188" y="309"/>
		</contour>
		<contour>
			<point x="205" y="698" type="curve" smooth="yes"/>
			<point x="175" y="698"/>
			<point x="157" y="680"/>
			<point x="154" y="664" type="curve"/>
			<point x="150" y="648"/>
			<point x="151" y="626"/>
			<point x="192" y="626" type="curve" smooth="yes"/>
			<point x="200" y="626"/>
			<point x="204" y="618"/>
			<point x="202" y="605" type="curve"/>
			<point x="197" y="582"/>
			<point x="169" y="545"/>
			<point x="125" y="536" type="curve"/>
			<point x="126" y="519" type="line"/>
			<point x="198" y="527"/>
			<point x="243" y="589"/>
			<point x="250" y="625" type="curve" smooth="yes"/>
			<point x="257" y="661"/>
			<point x="243" y="698"/>
		</contour>
	</outline>
</glyph>
<glyph name="eng" format="2">
	<unicode hex="014B"/>
	<advance width="568"/>
	<outline>
		<contour>
			<point x="576" y="283" type="curve" smooth="yes"/>
			<point x="581" y="304"/>
			<point x="583" y="324"/>
			<point x="583" y="341" type="curve" smooth="yes"/>
			<point x="583" y="407"/>
			<point x="548" y="439"/>
			<point x="488" y="443" type="curve"/>
			<point x="483" y="444"/>
			<point x="478" y="444"/>
			<point x="473" y="444" type="curve" smooth="yes"/>
			<point x="437" y="444"/>
			<point x="357" y="414"/>
			<point x="292" y="382" type="curve"/>
			<point x="292" y="382" type="line"/>
			<point x="293" y="387"/>
			<point x="294" y="391"/>
			<point x="294" y="395" type="curve"/>
			<point x="296" y="403"/>
			<point x="296" y="410"/>
			<point x="296" y="415" type="curve" smooth="yes"/>
			<point x="296" y="429"/>
			<point name=".hr01" x="289" y="436"/>
			<point x="276" y="436" type="curve" smooth="yes"/>
			<point x="244" y="436"/>
			<point x="154" y="429"/>
			<point x="107" y="423" type="curve"/>
			<point x="103" y="418"/>
			<point x="101" y="410"/>
			<point x="101" y="402" type="curve" smooth="yes"/>
			<point x="101" y="396"/>
			<point x="102" y="389"/>
			<point x="105" y="385" type="curve"/>
			<point x="145" y="382" type="line"/>
			<point x="145" y="382" type="line"/>
			<point x="157" y="381"/>
			<point x="163" y="372"/>
			<point x="163" y="362" type="curve" smooth="yes"/>
			<point x="163" y="353"/>
			<point x="162" y="343"/>
			<point x="157" y="321" type="curve" smooth="yes"/>
			<point x="103" y="72" type="line" smooth="yes"/>
			<point x="99" y="52"/>
			<point x="90" y="27"/>
			<point x="90" y="17" type="curve" smooth="yes"/>
			<point x="90" y="0"/>
			<point x="100" y="-10"/>
			<point x="156" y="-10" type="curve" smooth="yes"/>
			<point x="210" y="-10"/>
			<point x="216" y="24"/>
			<point x="223" y="59" type="curve"/>
			<point x="223" y="63"/>
			<point x="224" y="68"/>
			<point x="225" y="72" type="curve"/>
			<point x="263" y="245" type="line"/>
			<point x="267" y="267"/>
			<point x="272" y="289"/>
			<point x="277" y="311" type="curve"/>
			<point x="279" y="322"/>
			<point x="282" y="333"/>
			<point x="284" y="343" type="curve"/>
			<point x="330" y="368"/>
			<point x="367" y="370"/>
			<point x="385" y="370" type="curve" smooth="yes"/>
			<point x="398" y="370"/>
			<point x="412" y="368"/>
			<point name=".hr02" x="424" y="363" type="curve"/>
			<point x="444" y="356"/>
			<point x="459" y="340"/>
			<point x="459" y="314" type="curve" smooth="yes"/>
			<point x="459" y="308"/>
			<point x="457" y="302"/>
			<point x="456" y="295" type="curve"/>
			<point x="440" y="222"/>
			<point x="424" y="149"/>
			<point x="408" y="76" type="curve" smooth="yes"/>
			<point x="405" y="63"/>
			<point x="403" y="50"/>
			<point x="401" y="38" type="curve" smooth="yes"/>
			<point x="394" y="-4"/>
			<point x="389" y="-44"/>
			<point x="370" y="-92" type="curve" smooth="yes"/>
			<point x="363" y="-111"/>
			<point x="353" y="-132"/>
			<point x="342" y="-148" type="curve"/>
			<point x="332" y="-164"/>
			<point x="320" y="-175"/>
			<point x="307" y="-175" type="curve"/>
			<point x="307" y="-175"/>
			<point x="307" y="-175"/>
			<point x="307" y="-175" type="curve"/>
			<point x="293" y="-175"/>
			<point x="277" y="-170"/>
			<point x="270" y="-161" type="curve" smooth="yes"/>
			<point x="260" y="-148"/>
			<point x="249" y="-127"/>
			<point x="220" y="-127" type="curve" smooth="yes"/>
			<point x="204" y="-127"/>
			<point x="167" y="-157"/>
			<point x="167" y="-186" type="curve" smooth="yes"/>
			<point x="167" y="-217"/>
			<point x="204" y="-232"/>
			<point x="227" y="-232" type="curve" smooth="yes"/>
			<point x="245" y="-232"/>
			<point x="261" y="-231"/>
			<point x="276" y="-229" type="curve" smooth="yes"/>
			<point x="330" y="-221"/>
			<point x="368" y="-200"/>
			<point x="403" y="-176" type="curve"/>
			<point x="405" y="-174"/>
			<point x="408" y="-173"/>
			<point x="410" y="-171" type="curve"/>
			<point x="452" y="-140"/>
			<point x="484" y="-92"/>
			<point x="516" y="26" type="curve" smooth="yes"/>
			<point x="523" y="51"/>
			<point x="530" y="79"/>
			<point x="537" y="110" type="curve" smooth="yes"/>
			<point x="550" y="168"/>
			<point x="563" y="225"/>
		</contour>
	</outline>
</glyph>
<glyph name="Ohungarumlaut" format="2">
	<unicode hex="0150"/>
	<advance width="699"/>
	<outline>
		<contour>
			<point x="347" y="-10" type="curve" smooth="yes"/>
			<point x="538" y="-10"/>
			<point x="688" y="126"/>
			<point x="727" y="309" type="curve" smooth="yes"/>
			<point x="734" y="339"/>
			<point x="737" y="371"/>
			<point x="737" y="404" type="curve" smooth="yes"/>
			<point x="737" y="560"/>
			<point x="629" y="658"/>
			<point x="476" y="658" type="curve" smooth="yes"/>
			<point x="380" y="658"/>
			<point x="288" y="615"/>
			<point x="219" y="546" type="curve" smooth="yes"/>
			<point x="165" y="492"/>
			<point x="118" y="420"/>
			<point x="98" y="333" type="curve" smooth="yes"/>
			<point x="92" y="304"/>
			<point x="88" y="273"/>
			<point x="88" y="241" type="curve" smooth="yes"/>
			<point x="88" y="84"/>
			<point x="204" y="-10"/>
		</contour>
		<contour>
			<point x="456" y="616" type="curve" smooth="yes"/>
			<point x="537" y="616"/>
			<point x="592" y="550"/>
			<point x="592" y="423" type="curve" smooth="yes"/>
			<point x="592" y="382"/>
			<point x="588" y="341"/>
			<point x="581" y="303" type="curve" smooth="yes"/>
			<point x="552" y="150"/>
			<point x="470" y="32"/>
			<point x="374" y="32" type="curve" smooth="yes"/>
			<point x="289" y="32"/>
			<point x="233" y="102"/>
			<point x="233" y="226" type="curve" smooth="yes"/>
			<point x="233" y="261"/>
			<point x="237" y="298"/>
			<point x="244" y="333" type="curve" smooth="yes"/>
			<point x="258" y="404"/>
			<point x="283" y="470"/>
			<point x="306" y="509" type="curve" smooth="yes"/>
			<point x="349" y="584"/>
			<point x="403" y="616"/>
		</contour>
		<contour>
			<point x="598" y="818" type="curve"/>
			<point x="589" y="827"/>
			<point x="580" y="828"/>
			<point x="572" y="828" type="curve" smooth="yes"/>
			<point x="563" y="828"/>
			<point x="556" y="825"/>
			<point x="551" y="820" type="curve"/>
			<point x="549" y="819"/>
			<point x="548" y="818"/>
			<point x="547" y="816" type="curve"/>
			<point x="469" y="702" type="line"/>
			<point x="468" y="701"/>
			<point x="468" y="699"/>
			<point x="467" y="697" type="curve"/>
			<point x="466" y="691"/>
			<point x="471" y="687"/>
			<point x="476" y="685" type="curve"/>
			<point x="477" y="684"/>
			<point x="479" y="684"/>
			<point x="480" y="684" type="curve"/>
			<point x="482" y="684"/>
			<point x="483" y="684"/>
			<point x="484" y="684" type="curve"/>
			<point x="485" y="685"/>
			<point x="486" y="685"/>
			<point x="487" y="686" type="curve"/>
			<point x="598" y="770" type="line"/>
			<point x="602" y="774"/>
			<point x="606" y="781"/>
			<point x="607" y="790" type="curve"/>
			<point x="607" y="792"/>
			<point x="608" y="793"/>
			<point x="608" y="795" type="curve" smooth="yes"/>
			<point x="608" y="804"/>
			<point x="605" y="812"/>
		</contour>
		<contour>
			<point x="466" y="824" type="curve"/>
			<point x="462" y="828"/>
			<point x="454" y="833"/>
			<point x="445" y="833" type="curve" smooth="yes"/>
			<point x="432" y="833"/>
			<point x="424" y="830"/>
			<point x="419" y="824" type="curve"/>
			<point x="418" y="823"/>
			<point x="417" y="822"/>
			<point x="416" y="821" type="curve"/>
			<point x="343" y="706" type="line"/>
			<point x="342" y="705"/>
			<point x="341" y="703"/>
			<point x="341" y="702" type="curve"/>
			<point x="341" y="698"/>
			<point x="342" y="694"/>
			<point x="346" y="691" type="curve"/>
			<point x="347" y="691"/>
			<point x="348" y="690"/>
			<point x="349" y="689" type="curve"/>
			<point x="350" y="689"/>
			<point x="352" y="688"/>
			<point x="353" y="688" type="curve"/>
			<point x="355" y="688"/>
			<point x="358" y="689"/>
			<point x="361" y="690" type="curve"/>
			<point x="468" y="776" type="line" smooth="yes"/>
			<point x="473" y="780"/>
			<point x="476" y="787"/>
			<point x="477" y="795" type="curve"/>
			<point x="478" y="798"/>
			<point x="478" y="801"/>
			<point x="477" y="804" type="curve"/>
			<point x="476" y="812"/>
			<point x="472" y="819"/>
		</contour>
	</outline>
</glyph>
<glyph name="ohungarumlaut" format="2">
	<unicode hex="0151"/>
	<advance width="479"/>
	<outline>
		<contour>
			<point x="220" y="-10" type="curve" smooth="yes"/>
			<point x="253" y="-10"/>
			<point x="291" y="-4"/>
			<point x="321" y="6" type="curve"/>
			<point x="328" y="8"/>
			<point x="335" y="11"/>
			<point x="341" y="14" type="curve" smooth="yes"/>
			<point x="428" y="58"/>
			<point x="500" y="146"/>
			<point x="500" y="281" type="curve" smooth="yes"/>
			<point x="500" y="353"/>
			<point x="463" y="439"/>
			<point x="340" y="439" type="curve" smooth="yes"/>
			<point x="294" y="439"/>
			<point x="252" y="425"/>
			<point x="217" y="405" type="curve" smooth="yes"/>
			<point x="123" y="353"/>
			<point x="67" y="249"/>
			<point x="67" y="162" type="curve" smooth="yes"/>
			<point x="67" y="98"/>
			<point x="93" y="-10"/>
		</contour>
		<contour>
			<point x="196" y="170" type="curve" smooth="yes"/>
			<point x="196" y="270"/>
			<point x="214" y="397"/>
			<point x="315" y="397" type="curve" smooth="yes"/>
			<point x="338" y="397"/>
			<point x="351" y="382"/>
			<point x="359" y="361" type="curve" smooth="yes"/>
			<point x="370" y="333"/>
			<point x="371" y="293"/>
			<point x="371" y="260" type="curve" smooth="yes"/>
			<point x="371" y="212"/>
			<point x="367" y="142"/>
			<point x="343" y="93" type="curve" smooth="yes"/>
			<point x="326" y="57"/>
			<point x="298" y="32"/>
			<point x="255" y="32" type="curve" smooth="yes"/>
			<point x="226" y="32"/>
			<point x="196" y="58"/>
		</contour>
		<contour>
			<point x="518" y="691" type="curve"/>
			<point x="521" y="710"/>
			<point x="508" y="728"/>
			<point x="487" y="728" type="curve" smooth="yes"/>
			<point x="475" y="728"/>
			<point x="468" y="725"/>
			<point x="461" y="716" type="curve" smooth="yes"/>
			<point x="354" y="577" type="line"/>
			<point x="353" y="576"/>
			<point x="353" y="574"/>
			<point x="353" y="573" type="curve"/>
			<point x="351" y="565"/>
			<point x="359" y="560"/>
			<point x="364" y="560" type="curve" smooth="yes"/>
			<point x="366" y="560"/>
			<point x="368" y="560"/>
			<point x="370" y="562" type="curve"/>
			<point x="507" y="672" type="line"/>
			<point x="514" y="678"/>
			<point x="516" y="685"/>
		</contour>
		<contour>
			<point x="387" y="697" type="curve" smooth="yes"/>
			<point x="391" y="718"/>
			<point x="377" y="733"/>
			<point x="356" y="733" type="curve" smooth="yes"/>
			<point x="352" y="733"/>
			<point x="336" y="732"/>
			<point x="327" y="719" type="curve"/>
			<point x="234" y="573" type="line"/>
			<point x="232" y="572"/>
			<point x="232" y="571"/>
			<point x="232" y="570" type="curve"/>
			<point x="230" y="562"/>
			<point x="237" y="557"/>
			<point x="243" y="557" type="curve" smooth="yes"/>
			<point x="246" y="557"/>
			<point x="250" y="558"/>
			<point x="252" y="560" type="curve" smooth="yes"/>
			<point x="379" y="681" type="line" smooth="yes"/>
			<point x="384" y="686"/>
			<point x="386" y="692"/>
		</contour>
	</outline>
</glyph>
<glyph name="OE" format="2">
	<unicode hex="0152"/>
	<advance width="925"/>
	<outline>
		<contour>
			<point x="720" y="367" type="curve" smooth="yes"/>
			<point x="639" y="367" type="line"/>
			<point x="681" y="554" type="line"/>
			<point x="681" y="554" type="line"/>
			<point x="686" y="578"/>
			<point x="709" y="603"/>
			<point x="733" y="603" type="curve" smooth="yes"/>
			<point x="818" y="603" type="line" smooth="yes"/>
			<point x="826" y="603"/>
			<point x="834" y="603"/>
			<point x="841" y="602" type="curve" smooth="yes"/>
			<point x="896" y="594"/>
			<point x="906" y="557"/>
			<point x="912" y="496" type="curve"/>
			<point x="924" y="494"/>
			<point x="945" y="496"/>
			<point x="956" y="501" type="curve"/>
			<point x="958" y="524"/>
			<point x="964" y="563"/>
			<point x="969" y="595" type="curve" smooth="yes"/>
			<point x="973" y="621"/>
			<point x="976" y="642"/>
			<point x="976" y="646" type="curve"/>
			<point x="977" y="648"/>
			<point x="976" y="649"/>
			<point x="973" y="649" type="curve"/>
			<point x="955" y="646"/>
			<point x="947" y="645"/>
			<point x="923" y="645" type="curve" smooth="yes"/>
			<point x="628" y="645" type="line"/>
			<point x="628" y="645"/>
			<point x="560" y="646"/>
			<point x="510" y="647" type="curve"/>
			<point x="503" y="647"/>
			<point x="496" y="647"/>
			<point x="489" y="646" type="curve"/>
			<point x="302" y="636"/>
			<point x="153" y="493"/>
			<point x="114" y="319" type="curve" smooth="yes"/>
			<point x="76" y="145"/>
			<point x="170" y="11"/>
			<point x="355" y="1" type="curve"/>
			<point x="363" y="0"/>
			<point x="371" y="0"/>
			<point x="379" y="0" type="curve" smooth="yes"/>
			<point x="411" y="0"/>
			<point x="442" y="0"/>
			<point x="474" y="0" type="curve" smooth="yes"/>
			<point x="721" y="0" type="line" smooth="yes"/>
			<point x="769" y="0"/>
			<point x="859" y="-2"/>
			<point x="859" y="-2" type="curve"/>
			<point x="884" y="48"/>
			<point x="903" y="114"/>
			<point x="923" y="165" type="curve"/>
			<point x="914" y="171"/>
			<point x="893" y="173"/>
			<point x="879" y="170" type="curve"/>
			<point x="846" y="104"/>
			<point x="795" y="51"/>
			<point x="728" y="43" type="curve"/>
			<point name=".hr01" x="722" y="42"/>
			<point x="715" y="42"/>
			<point x="709" y="42" type="curve" smooth="yes"/>
			<point x="608" y="42" type="line" smooth="yes"/>
			<point x="592" y="42"/>
			<point x="580" y="54"/>
			<point x="577" y="71" type="curve" smooth="yes"/>
			<point x="576" y="77"/>
			<point x="577" y="83"/>
			<point x="578" y="90" type="curve"/>
			<point x="628" y="317" type="line"/>
			<point x="709" y="317" type="line" smooth="yes"/>
			<point x="748" y="317"/>
			<point x="771" y="311"/>
			<point x="781" y="298" type="curve"/>
			<point x="786" y="292"/>
			<point x="788" y="283"/>
			<point x="789" y="273" type="curve"/>
			<point x="789" y="267"/>
			<point x="788" y="261"/>
			<point x="787" y="255" type="curve"/>
			<point x="788" y="253"/>
			<point x="793" y="252"/>
			<point x="798" y="251" type="curve"/>
			<point x="809" y="250"/>
			<point x="825" y="251"/>
			<point x="830" y="255" type="curve"/>
			<point x="831" y="262"/>
			<point x="832" y="268"/>
			<point x="833" y="274" type="curve"/>
			<point x="838" y="298"/>
			<point x="841" y="316"/>
			<point x="847" y="343" type="curve" smooth="yes"/>
			<point x="855" y="377"/>
			<point x="860" y="399"/>
			<point x="868" y="429" type="curve"/>
			<point x="868" y="429"/>
			<point x="868" y="429"/>
			<point x="868" y="429" type="curve"/>
			<point x="865" y="433"/>
			<point x="850" y="434"/>
			<point x="838" y="433" type="curve"/>
			<point x="832" y="432"/>
			<point x="827" y="431"/>
			<point x="825" y="429" type="curve"/>
			<point x="823" y="421"/>
			<point x="821" y="414"/>
			<point x="818" y="408" type="curve" smooth="yes"/>
			<point x="815" y="402"/>
			<point x="813" y="397"/>
			<point x="809" y="393" type="curve"/>
			<point x="793" y="371"/>
			<point x="768" y="367"/>
		</contour>
		<contour>
			<point x="386" y="40" type="line" smooth="yes"/>
			<point name=".hr02" x="295" y="40"/>
			<point x="222" y="125"/>
			<point x="267" y="328" type="curve" smooth="yes"/>
			<point x="309" y="520"/>
			<point x="390" y="593"/>
			<point x="469" y="603" type="curve" smooth="yes"/>
			<point x="476" y="604"/>
			<point x="482" y="604"/>
			<point x="489" y="604" type="curve" smooth="yes"/>
			<point x="506" y="604" type="line" smooth="yes"/>
			<point x="512" y="604"/>
			<point x="517" y="604"/>
			<point x="523" y="604" type="curve" smooth="yes"/>
			<point x="538" y="604"/>
			<point x="543" y="588"/>
			<point x="541" y="563" type="curve" smooth="yes"/>
			<point x="540" y="551"/>
			<point x="537" y="537"/>
			<point x="534" y="522" type="curve" smooth="yes"/>
			<point x="445" y="122" type="line"/>
			<point x="443" y="111"/>
			<point x="440" y="100"/>
			<point x="437" y="90" type="curve"/>
			<point x="427" y="61"/>
			<point x="415" y="40"/>
			<point x="398" y="40" type="curve" smooth="yes"/>
		</contour>
	</outline>
</glyph>
